G04 #@! TF.GenerationSoftware,KiCad,Pcbnew,(5.0.1)-4*
G04 #@! TF.CreationDate,2018-12-26T16:50:05+01:00*
G04 #@! TF.ProjectId,EdtrackerDiy,4564747261636B65724469792E6B6963,rev?*
G04 #@! TF.SameCoordinates,Original*
G04 #@! TF.FileFunction,Copper,L1,Top,Signal*
G04 #@! TF.FilePolarity,Positive*
%FSLAX46Y46*%
G04 Gerber Fmt 4.6, Leading zero omitted, Abs format (unit mm)*
G04 Created by KiCad (PCBNEW (5.0.1)-4) date 26/12/2018 16:50:05*
%MOMM*%
%LPD*%
G01*
G04 APERTURE LIST*
G04 #@! TA.AperFunction,ComponentPad*
%ADD10C,1.879600*%
G04 #@! TD*
G04 #@! TA.AperFunction,ComponentPad*
%ADD11C,1.524000*%
G04 #@! TD*
G04 #@! TA.AperFunction,ComponentPad*
%ADD12R,1.524000X1.524000*%
G04 #@! TD*
G04 #@! TA.AperFunction,ComponentPad*
%ADD13C,2.000000*%
G04 #@! TD*
G04 #@! TA.AperFunction,Conductor*
%ADD14C,0.250000*%
G04 #@! TD*
G04 APERTURE END LIST*
D10*
G04 #@! TO.P,B1,1*
G04 #@! TO.N,Net-(B1-Pad1)*
X68834000Y-88963501D03*
G04 #@! TO.P,B1,2*
G04 #@! TO.N,Net-(B1-Pad2)*
X68834000Y-91503501D03*
G04 #@! TO.P,B1,3*
G04 #@! TO.N,GND*
X68834000Y-94043501D03*
G04 #@! TO.P,B1,4*
X68834000Y-96583501D03*
G04 #@! TO.P,B1,5*
G04 #@! TO.N,Net-(B1-Pad5)*
X68834000Y-99123501D03*
G04 #@! TO.P,B1,6*
G04 #@! TO.N,Net-(B1-Pad6)*
X68834000Y-101663501D03*
G04 #@! TO.P,B1,7*
G04 #@! TO.N,Net-(B1-Pad7)*
X68834000Y-104203501D03*
G04 #@! TO.P,B1,8*
G04 #@! TO.N,Net-(B1-Pad8)*
X68834000Y-106743501D03*
G04 #@! TO.P,B1,9*
G04 #@! TO.N,Net-(B1-Pad9)*
X68834000Y-109283501D03*
G04 #@! TO.P,B1,10*
G04 #@! TO.N,Net-(B1-Pad10)*
X68834000Y-111823501D03*
G04 #@! TO.P,B1,11*
G04 #@! TO.N,Net-(B1-Pad11)*
X68834000Y-114363501D03*
G04 #@! TO.P,B1,12*
G04 #@! TO.N,Net-(B1-Pad12)*
X68834000Y-116903501D03*
G04 #@! TO.P,B1,13*
G04 #@! TO.N,Net-(B1-Pad13)*
X84074000Y-116903501D03*
G04 #@! TO.P,B1,14*
G04 #@! TO.N,Net-(B1-Pad14)*
X84074000Y-114363501D03*
G04 #@! TO.P,B1,15*
G04 #@! TO.N,Net-(B1-Pad15)*
X84074000Y-111823501D03*
G04 #@! TO.P,B1,16*
G04 #@! TO.N,Net-(B1-Pad16)*
X84074000Y-109283501D03*
G04 #@! TO.P,B1,17*
G04 #@! TO.N,Net-(B1-Pad17)*
X84074000Y-106743501D03*
G04 #@! TO.P,B1,18*
G04 #@! TO.N,Net-(B1-Pad18)*
X84074000Y-104203501D03*
G04 #@! TO.P,B1,19*
G04 #@! TO.N,Net-(B1-Pad19)*
X84074000Y-101663501D03*
G04 #@! TO.P,B1,20*
G04 #@! TO.N,Net-(B1-Pad20)*
X84074000Y-99123501D03*
G04 #@! TO.P,B1,21*
G04 #@! TO.N,VCC*
X84074000Y-96583501D03*
G04 #@! TO.P,B1,22*
G04 #@! TO.N,Net-(B1-Pad22)*
X84074000Y-94043501D03*
G04 #@! TO.P,B1,23*
G04 #@! TO.N,GND*
X84074000Y-91503501D03*
G04 #@! TO.P,B1,24*
G04 #@! TO.N,Net-(B1-Pad24)*
X84074000Y-88963501D03*
G04 #@! TD*
D11*
G04 #@! TO.P,M1,10*
G04 #@! TO.N,Net-(M1-Pad10)*
X65786000Y-88138000D03*
G04 #@! TO.P,M1,9*
G04 #@! TO.N,Net-(M1-Pad9)*
X65786000Y-90678000D03*
G04 #@! TO.P,M1,8*
G04 #@! TO.N,Net-(M1-Pad8)*
X65786000Y-93218000D03*
G04 #@! TO.P,M1,7*
G04 #@! TO.N,Net-(B1-Pad10)*
X65786000Y-95758000D03*
G04 #@! TO.P,M1,6*
G04 #@! TO.N,GND*
X65786000Y-98298000D03*
G04 #@! TO.P,M1,5*
G04 #@! TO.N,Net-(M1-Pad5)*
X65786000Y-100838000D03*
G04 #@! TO.P,M1,4*
G04 #@! TO.N,Net-(B1-Pad5)*
X65786000Y-103378000D03*
G04 #@! TO.P,M1,3*
G04 #@! TO.N,Net-(B1-Pad6)*
X65786000Y-105918000D03*
G04 #@! TO.P,M1,2*
G04 #@! TO.N,GND*
X65786000Y-108458000D03*
D12*
G04 #@! TO.P,M1,1*
G04 #@! TO.N,VCC*
X65786000Y-110998000D03*
G04 #@! TD*
D13*
G04 #@! TO.P,SW1,2*
G04 #@! TO.N,GND*
X79248000Y-118872000D03*
G04 #@! TO.P,SW1,1*
G04 #@! TO.N,Net-(B1-Pad13)*
X79248000Y-114372000D03*
G04 #@! TO.P,SW1,2*
G04 #@! TO.N,GND*
X72748000Y-118872000D03*
G04 #@! TO.P,SW1,1*
G04 #@! TO.N,Net-(B1-Pad13)*
X72748000Y-114372000D03*
G04 #@! TD*
D14*
G04 #@! TO.N,VCC*
X83134201Y-97523300D02*
X84074000Y-96583501D01*
X72638801Y-108018700D02*
X83134201Y-97523300D01*
X68226895Y-108018700D02*
X72638801Y-108018700D01*
X65786000Y-110459595D02*
X68226895Y-108018700D01*
X65786000Y-110998000D02*
X65786000Y-110459595D01*
G04 #@! TD*
M02*
