M48
;DRILL file {KiCad (5.0.1)-4} date 26/12/2018 16:46:39
;FORMAT={-:-/ absolute / metric / decimal}
FMAT,2
METRIC,TZ
T1C0.800
T2C1.016
T3C1.100
T4C3.200
%
G90
G05
M71
T1
X65.786Y-88.138
X65.786Y-90.678
X65.786Y-93.218
X65.786Y-95.758
X65.786Y-98.298
X65.786Y-100.838
X65.786Y-103.378
X65.786Y-105.918
X65.786Y-108.458
X65.786Y-110.998
T2
X68.834Y-88.964
X68.834Y-91.504
X68.834Y-94.044
X68.834Y-96.584
X68.834Y-99.124
X68.834Y-101.664
X68.834Y-104.204
X68.834Y-106.744
X68.834Y-109.284
X68.834Y-111.824
X68.834Y-114.364
X68.834Y-116.904
X84.074Y-88.964
X84.074Y-91.504
X84.074Y-94.044
X84.074Y-96.584
X84.074Y-99.124
X84.074Y-101.664
X84.074Y-104.204
X84.074Y-106.744
X84.074Y-109.284
X84.074Y-111.824
X84.074Y-114.364
X84.074Y-116.904
T3
X72.748Y-114.372
X72.748Y-118.872
X79.248Y-114.372
X79.248Y-118.872
T4
X64.008Y-116.078
X88.392Y-90.424
X88.392Y-116.078
T0
M30
