G04 #@! TF.GenerationSoftware,KiCad,Pcbnew,(5.0.1)-4*
G04 #@! TF.CreationDate,2018-12-26T16:50:05+01:00*
G04 #@! TF.ProjectId,EdtrackerDiy,4564747261636B65724469792E6B6963,rev?*
G04 #@! TF.SameCoordinates,Original*
G04 #@! TF.FileFunction,Soldermask,Bot*
G04 #@! TF.FilePolarity,Negative*
%FSLAX46Y46*%
G04 Gerber Fmt 4.6, Leading zero omitted, Abs format (unit mm)*
G04 Created by KiCad (PCBNEW (5.0.1)-4) date 26/12/2018 16:50:05*
%MOMM*%
%LPD*%
G01*
G04 APERTURE LIST*
%ADD10C,0.100000*%
G04 APERTURE END LIST*
D10*
G36*
X79554565Y-117861389D02*
X79745834Y-117940615D01*
X79917976Y-118055637D01*
X80064363Y-118202024D01*
X80179385Y-118374166D01*
X80258611Y-118565435D01*
X80299000Y-118768484D01*
X80299000Y-118975516D01*
X80258611Y-119178565D01*
X80179385Y-119369834D01*
X80064363Y-119541976D01*
X79917976Y-119688363D01*
X79745834Y-119803385D01*
X79554565Y-119882611D01*
X79351516Y-119923000D01*
X79144484Y-119923000D01*
X78941435Y-119882611D01*
X78750166Y-119803385D01*
X78578024Y-119688363D01*
X78431637Y-119541976D01*
X78316615Y-119369834D01*
X78237389Y-119178565D01*
X78197000Y-118975516D01*
X78197000Y-118768484D01*
X78237389Y-118565435D01*
X78316615Y-118374166D01*
X78431637Y-118202024D01*
X78578024Y-118055637D01*
X78750166Y-117940615D01*
X78941435Y-117861389D01*
X79144484Y-117821000D01*
X79351516Y-117821000D01*
X79554565Y-117861389D01*
X79554565Y-117861389D01*
G37*
G36*
X73054565Y-117861389D02*
X73245834Y-117940615D01*
X73417976Y-118055637D01*
X73564363Y-118202024D01*
X73679385Y-118374166D01*
X73758611Y-118565435D01*
X73799000Y-118768484D01*
X73799000Y-118975516D01*
X73758611Y-119178565D01*
X73679385Y-119369834D01*
X73564363Y-119541976D01*
X73417976Y-119688363D01*
X73245834Y-119803385D01*
X73054565Y-119882611D01*
X72851516Y-119923000D01*
X72644484Y-119923000D01*
X72441435Y-119882611D01*
X72250166Y-119803385D01*
X72078024Y-119688363D01*
X71931637Y-119541976D01*
X71816615Y-119369834D01*
X71737389Y-119178565D01*
X71697000Y-118975516D01*
X71697000Y-118768484D01*
X71737389Y-118565435D01*
X71816615Y-118374166D01*
X71931637Y-118202024D01*
X72078024Y-118055637D01*
X72250166Y-117940615D01*
X72441435Y-117861389D01*
X72644484Y-117821000D01*
X72851516Y-117821000D01*
X73054565Y-117861389D01*
X73054565Y-117861389D01*
G37*
G36*
X69137765Y-115902121D02*
X69327289Y-115980624D01*
X69497855Y-116094593D01*
X69642908Y-116239646D01*
X69756877Y-116410212D01*
X69835380Y-116599736D01*
X69875400Y-116800931D01*
X69875400Y-117006071D01*
X69835380Y-117207266D01*
X69756877Y-117396790D01*
X69642908Y-117567356D01*
X69497855Y-117712409D01*
X69327289Y-117826378D01*
X69137765Y-117904881D01*
X68936570Y-117944901D01*
X68731430Y-117944901D01*
X68530235Y-117904881D01*
X68340711Y-117826378D01*
X68170145Y-117712409D01*
X68025092Y-117567356D01*
X67911123Y-117396790D01*
X67832620Y-117207266D01*
X67792600Y-117006071D01*
X67792600Y-116800931D01*
X67832620Y-116599736D01*
X67911123Y-116410212D01*
X68025092Y-116239646D01*
X68170145Y-116094593D01*
X68340711Y-115980624D01*
X68530235Y-115902121D01*
X68731430Y-115862101D01*
X68936570Y-115862101D01*
X69137765Y-115902121D01*
X69137765Y-115902121D01*
G37*
G36*
X84377765Y-115902121D02*
X84567289Y-115980624D01*
X84737855Y-116094593D01*
X84882908Y-116239646D01*
X84996877Y-116410212D01*
X85075380Y-116599736D01*
X85115400Y-116800931D01*
X85115400Y-117006071D01*
X85075380Y-117207266D01*
X84996877Y-117396790D01*
X84882908Y-117567356D01*
X84737855Y-117712409D01*
X84567289Y-117826378D01*
X84377765Y-117904881D01*
X84176570Y-117944901D01*
X83971430Y-117944901D01*
X83770235Y-117904881D01*
X83580711Y-117826378D01*
X83410145Y-117712409D01*
X83265092Y-117567356D01*
X83151123Y-117396790D01*
X83072620Y-117207266D01*
X83032600Y-117006071D01*
X83032600Y-116800931D01*
X83072620Y-116599736D01*
X83151123Y-116410212D01*
X83265092Y-116239646D01*
X83410145Y-116094593D01*
X83580711Y-115980624D01*
X83770235Y-115902121D01*
X83971430Y-115862101D01*
X84176570Y-115862101D01*
X84377765Y-115902121D01*
X84377765Y-115902121D01*
G37*
G36*
X64383256Y-114469298D02*
X64489579Y-114490447D01*
X64790042Y-114614903D01*
X65056852Y-114793180D01*
X65060454Y-114795587D01*
X65290413Y-115025546D01*
X65471098Y-115295960D01*
X65595553Y-115596422D01*
X65659000Y-115915389D01*
X65659000Y-116240611D01*
X65595553Y-116559578D01*
X65471098Y-116860040D01*
X65290413Y-117130454D01*
X65060454Y-117360413D01*
X65060451Y-117360415D01*
X64790042Y-117541097D01*
X64489579Y-117665553D01*
X64383256Y-117686702D01*
X64170611Y-117729000D01*
X63845389Y-117729000D01*
X63632744Y-117686702D01*
X63526421Y-117665553D01*
X63225958Y-117541097D01*
X62955549Y-117360415D01*
X62955546Y-117360413D01*
X62725587Y-117130454D01*
X62544902Y-116860040D01*
X62420447Y-116559578D01*
X62357000Y-116240611D01*
X62357000Y-115915389D01*
X62420447Y-115596422D01*
X62544902Y-115295960D01*
X62725587Y-115025546D01*
X62955546Y-114795587D01*
X62959148Y-114793180D01*
X63225958Y-114614903D01*
X63526421Y-114490447D01*
X63632744Y-114469298D01*
X63845389Y-114427000D01*
X64170611Y-114427000D01*
X64383256Y-114469298D01*
X64383256Y-114469298D01*
G37*
G36*
X88767256Y-114469298D02*
X88873579Y-114490447D01*
X89174042Y-114614903D01*
X89440852Y-114793180D01*
X89444454Y-114795587D01*
X89674413Y-115025546D01*
X89855098Y-115295960D01*
X89979553Y-115596422D01*
X90043000Y-115915389D01*
X90043000Y-116240611D01*
X89979553Y-116559578D01*
X89855098Y-116860040D01*
X89674413Y-117130454D01*
X89444454Y-117360413D01*
X89444451Y-117360415D01*
X89174042Y-117541097D01*
X88873579Y-117665553D01*
X88767256Y-117686702D01*
X88554611Y-117729000D01*
X88229389Y-117729000D01*
X88016744Y-117686702D01*
X87910421Y-117665553D01*
X87609958Y-117541097D01*
X87339549Y-117360415D01*
X87339546Y-117360413D01*
X87109587Y-117130454D01*
X86928902Y-116860040D01*
X86804447Y-116559578D01*
X86741000Y-116240611D01*
X86741000Y-115915389D01*
X86804447Y-115596422D01*
X86928902Y-115295960D01*
X87109587Y-115025546D01*
X87339546Y-114795587D01*
X87343148Y-114793180D01*
X87609958Y-114614903D01*
X87910421Y-114490447D01*
X88016744Y-114469298D01*
X88229389Y-114427000D01*
X88554611Y-114427000D01*
X88767256Y-114469298D01*
X88767256Y-114469298D01*
G37*
G36*
X73054565Y-113361389D02*
X73245834Y-113440615D01*
X73417976Y-113555637D01*
X73564363Y-113702024D01*
X73679385Y-113874166D01*
X73758611Y-114065435D01*
X73799000Y-114268484D01*
X73799000Y-114475516D01*
X73758611Y-114678565D01*
X73679385Y-114869834D01*
X73564363Y-115041976D01*
X73417976Y-115188363D01*
X73245834Y-115303385D01*
X73054565Y-115382611D01*
X72851516Y-115423000D01*
X72644484Y-115423000D01*
X72441435Y-115382611D01*
X72250166Y-115303385D01*
X72078024Y-115188363D01*
X71931637Y-115041976D01*
X71816615Y-114869834D01*
X71737389Y-114678565D01*
X71697000Y-114475516D01*
X71697000Y-114268484D01*
X71737389Y-114065435D01*
X71816615Y-113874166D01*
X71931637Y-113702024D01*
X72078024Y-113555637D01*
X72250166Y-113440615D01*
X72441435Y-113361389D01*
X72644484Y-113321000D01*
X72851516Y-113321000D01*
X73054565Y-113361389D01*
X73054565Y-113361389D01*
G37*
G36*
X79554565Y-113361389D02*
X79745834Y-113440615D01*
X79917976Y-113555637D01*
X80064363Y-113702024D01*
X80179385Y-113874166D01*
X80258611Y-114065435D01*
X80299000Y-114268484D01*
X80299000Y-114475516D01*
X80258611Y-114678565D01*
X80179385Y-114869834D01*
X80064363Y-115041976D01*
X79917976Y-115188363D01*
X79745834Y-115303385D01*
X79554565Y-115382611D01*
X79351516Y-115423000D01*
X79144484Y-115423000D01*
X78941435Y-115382611D01*
X78750166Y-115303385D01*
X78578024Y-115188363D01*
X78431637Y-115041976D01*
X78316615Y-114869834D01*
X78237389Y-114678565D01*
X78197000Y-114475516D01*
X78197000Y-114268484D01*
X78237389Y-114065435D01*
X78316615Y-113874166D01*
X78431637Y-113702024D01*
X78578024Y-113555637D01*
X78750166Y-113440615D01*
X78941435Y-113361389D01*
X79144484Y-113321000D01*
X79351516Y-113321000D01*
X79554565Y-113361389D01*
X79554565Y-113361389D01*
G37*
G36*
X84377765Y-113362121D02*
X84567289Y-113440624D01*
X84737855Y-113554593D01*
X84882908Y-113699646D01*
X84996877Y-113870212D01*
X85075380Y-114059736D01*
X85115400Y-114260931D01*
X85115400Y-114466071D01*
X85075380Y-114667266D01*
X84996877Y-114856790D01*
X84882908Y-115027356D01*
X84737855Y-115172409D01*
X84567289Y-115286378D01*
X84377765Y-115364881D01*
X84176570Y-115404901D01*
X83971430Y-115404901D01*
X83770235Y-115364881D01*
X83580711Y-115286378D01*
X83410145Y-115172409D01*
X83265092Y-115027356D01*
X83151123Y-114856790D01*
X83072620Y-114667266D01*
X83032600Y-114466071D01*
X83032600Y-114260931D01*
X83072620Y-114059736D01*
X83151123Y-113870212D01*
X83265092Y-113699646D01*
X83410145Y-113554593D01*
X83580711Y-113440624D01*
X83770235Y-113362121D01*
X83971430Y-113322101D01*
X84176570Y-113322101D01*
X84377765Y-113362121D01*
X84377765Y-113362121D01*
G37*
G36*
X69137765Y-113362121D02*
X69327289Y-113440624D01*
X69497855Y-113554593D01*
X69642908Y-113699646D01*
X69756877Y-113870212D01*
X69835380Y-114059736D01*
X69875400Y-114260931D01*
X69875400Y-114466071D01*
X69835380Y-114667266D01*
X69756877Y-114856790D01*
X69642908Y-115027356D01*
X69497855Y-115172409D01*
X69327289Y-115286378D01*
X69137765Y-115364881D01*
X68936570Y-115404901D01*
X68731430Y-115404901D01*
X68530235Y-115364881D01*
X68340711Y-115286378D01*
X68170145Y-115172409D01*
X68025092Y-115027356D01*
X67911123Y-114856790D01*
X67832620Y-114667266D01*
X67792600Y-114466071D01*
X67792600Y-114260931D01*
X67832620Y-114059736D01*
X67911123Y-113870212D01*
X68025092Y-113699646D01*
X68170145Y-113554593D01*
X68340711Y-113440624D01*
X68530235Y-113362121D01*
X68731430Y-113322101D01*
X68936570Y-113322101D01*
X69137765Y-113362121D01*
X69137765Y-113362121D01*
G37*
G36*
X84377765Y-110822121D02*
X84567289Y-110900624D01*
X84737855Y-111014593D01*
X84882908Y-111159646D01*
X84996877Y-111330212D01*
X85075380Y-111519736D01*
X85115400Y-111720931D01*
X85115400Y-111926071D01*
X85075380Y-112127266D01*
X84996877Y-112316790D01*
X84882908Y-112487356D01*
X84737855Y-112632409D01*
X84567289Y-112746378D01*
X84377765Y-112824881D01*
X84176570Y-112864901D01*
X83971430Y-112864901D01*
X83770235Y-112824881D01*
X83580711Y-112746378D01*
X83410145Y-112632409D01*
X83265092Y-112487356D01*
X83151123Y-112316790D01*
X83072620Y-112127266D01*
X83032600Y-111926071D01*
X83032600Y-111720931D01*
X83072620Y-111519736D01*
X83151123Y-111330212D01*
X83265092Y-111159646D01*
X83410145Y-111014593D01*
X83580711Y-110900624D01*
X83770235Y-110822121D01*
X83971430Y-110782101D01*
X84176570Y-110782101D01*
X84377765Y-110822121D01*
X84377765Y-110822121D01*
G37*
G36*
X69137765Y-110822121D02*
X69327289Y-110900624D01*
X69497855Y-111014593D01*
X69642908Y-111159646D01*
X69756877Y-111330212D01*
X69835380Y-111519736D01*
X69875400Y-111720931D01*
X69875400Y-111926071D01*
X69835380Y-112127266D01*
X69756877Y-112316790D01*
X69642908Y-112487356D01*
X69497855Y-112632409D01*
X69327289Y-112746378D01*
X69137765Y-112824881D01*
X68936570Y-112864901D01*
X68731430Y-112864901D01*
X68530235Y-112824881D01*
X68340711Y-112746378D01*
X68170145Y-112632409D01*
X68025092Y-112487356D01*
X67911123Y-112316790D01*
X67832620Y-112127266D01*
X67792600Y-111926071D01*
X67792600Y-111720931D01*
X67832620Y-111519736D01*
X67911123Y-111330212D01*
X68025092Y-111159646D01*
X68170145Y-111014593D01*
X68340711Y-110900624D01*
X68530235Y-110822121D01*
X68731430Y-110782101D01*
X68936570Y-110782101D01*
X69137765Y-110822121D01*
X69137765Y-110822121D01*
G37*
G36*
X66599000Y-111811000D02*
X64973000Y-111811000D01*
X64973000Y-110185000D01*
X66599000Y-110185000D01*
X66599000Y-111811000D01*
X66599000Y-111811000D01*
G37*
G36*
X69137765Y-108282121D02*
X69327289Y-108360624D01*
X69497855Y-108474593D01*
X69642908Y-108619646D01*
X69756877Y-108790212D01*
X69835380Y-108979736D01*
X69875400Y-109180931D01*
X69875400Y-109386071D01*
X69835380Y-109587266D01*
X69756877Y-109776790D01*
X69642908Y-109947356D01*
X69497855Y-110092409D01*
X69327289Y-110206378D01*
X69137765Y-110284881D01*
X68936570Y-110324901D01*
X68731430Y-110324901D01*
X68530235Y-110284881D01*
X68340711Y-110206378D01*
X68170145Y-110092409D01*
X68025092Y-109947356D01*
X67911123Y-109776790D01*
X67832620Y-109587266D01*
X67792600Y-109386071D01*
X67792600Y-109180931D01*
X67832620Y-108979736D01*
X67911123Y-108790212D01*
X68025092Y-108619646D01*
X68170145Y-108474593D01*
X68340711Y-108360624D01*
X68530235Y-108282121D01*
X68731430Y-108242101D01*
X68936570Y-108242101D01*
X69137765Y-108282121D01*
X69137765Y-108282121D01*
G37*
G36*
X84377765Y-108282121D02*
X84567289Y-108360624D01*
X84737855Y-108474593D01*
X84882908Y-108619646D01*
X84996877Y-108790212D01*
X85075380Y-108979736D01*
X85115400Y-109180931D01*
X85115400Y-109386071D01*
X85075380Y-109587266D01*
X84996877Y-109776790D01*
X84882908Y-109947356D01*
X84737855Y-110092409D01*
X84567289Y-110206378D01*
X84377765Y-110284881D01*
X84176570Y-110324901D01*
X83971430Y-110324901D01*
X83770235Y-110284881D01*
X83580711Y-110206378D01*
X83410145Y-110092409D01*
X83265092Y-109947356D01*
X83151123Y-109776790D01*
X83072620Y-109587266D01*
X83032600Y-109386071D01*
X83032600Y-109180931D01*
X83072620Y-108979736D01*
X83151123Y-108790212D01*
X83265092Y-108619646D01*
X83410145Y-108474593D01*
X83580711Y-108360624D01*
X83770235Y-108282121D01*
X83971430Y-108242101D01*
X84176570Y-108242101D01*
X84377765Y-108282121D01*
X84377765Y-108282121D01*
G37*
G36*
X66023142Y-107676242D02*
X66171102Y-107737530D01*
X66304258Y-107826502D01*
X66417498Y-107939742D01*
X66506470Y-108072898D01*
X66567758Y-108220858D01*
X66599000Y-108377925D01*
X66599000Y-108538075D01*
X66567758Y-108695142D01*
X66506470Y-108843102D01*
X66417498Y-108976258D01*
X66304258Y-109089498D01*
X66171102Y-109178470D01*
X66171101Y-109178471D01*
X66171100Y-109178471D01*
X66137583Y-109192354D01*
X66023142Y-109239758D01*
X65866075Y-109271000D01*
X65705925Y-109271000D01*
X65548858Y-109239758D01*
X65434417Y-109192354D01*
X65400900Y-109178471D01*
X65400899Y-109178471D01*
X65400898Y-109178470D01*
X65267742Y-109089498D01*
X65154502Y-108976258D01*
X65065530Y-108843102D01*
X65004242Y-108695142D01*
X64973000Y-108538075D01*
X64973000Y-108377925D01*
X65004242Y-108220858D01*
X65065530Y-108072898D01*
X65154502Y-107939742D01*
X65267742Y-107826502D01*
X65400898Y-107737530D01*
X65548858Y-107676242D01*
X65705925Y-107645000D01*
X65866075Y-107645000D01*
X66023142Y-107676242D01*
X66023142Y-107676242D01*
G37*
G36*
X84377765Y-105742121D02*
X84567289Y-105820624D01*
X84737855Y-105934593D01*
X84882908Y-106079646D01*
X84996877Y-106250212D01*
X85075380Y-106439736D01*
X85115400Y-106640931D01*
X85115400Y-106846071D01*
X85075380Y-107047266D01*
X84996877Y-107236790D01*
X84882908Y-107407356D01*
X84737855Y-107552409D01*
X84567289Y-107666378D01*
X84377765Y-107744881D01*
X84176570Y-107784901D01*
X83971430Y-107784901D01*
X83770235Y-107744881D01*
X83580711Y-107666378D01*
X83410145Y-107552409D01*
X83265092Y-107407356D01*
X83151123Y-107236790D01*
X83072620Y-107047266D01*
X83032600Y-106846071D01*
X83032600Y-106640931D01*
X83072620Y-106439736D01*
X83151123Y-106250212D01*
X83265092Y-106079646D01*
X83410145Y-105934593D01*
X83580711Y-105820624D01*
X83770235Y-105742121D01*
X83971430Y-105702101D01*
X84176570Y-105702101D01*
X84377765Y-105742121D01*
X84377765Y-105742121D01*
G37*
G36*
X69137765Y-105742121D02*
X69327289Y-105820624D01*
X69497855Y-105934593D01*
X69642908Y-106079646D01*
X69756877Y-106250212D01*
X69835380Y-106439736D01*
X69875400Y-106640931D01*
X69875400Y-106846071D01*
X69835380Y-107047266D01*
X69756877Y-107236790D01*
X69642908Y-107407356D01*
X69497855Y-107552409D01*
X69327289Y-107666378D01*
X69137765Y-107744881D01*
X68936570Y-107784901D01*
X68731430Y-107784901D01*
X68530235Y-107744881D01*
X68340711Y-107666378D01*
X68170145Y-107552409D01*
X68025092Y-107407356D01*
X67911123Y-107236790D01*
X67832620Y-107047266D01*
X67792600Y-106846071D01*
X67792600Y-106640931D01*
X67832620Y-106439736D01*
X67911123Y-106250212D01*
X68025092Y-106079646D01*
X68170145Y-105934593D01*
X68340711Y-105820624D01*
X68530235Y-105742121D01*
X68731430Y-105702101D01*
X68936570Y-105702101D01*
X69137765Y-105742121D01*
X69137765Y-105742121D01*
G37*
G36*
X66023142Y-105136242D02*
X66171102Y-105197530D01*
X66304258Y-105286502D01*
X66417498Y-105399742D01*
X66506470Y-105532898D01*
X66567758Y-105680858D01*
X66599000Y-105837925D01*
X66599000Y-105998075D01*
X66567758Y-106155142D01*
X66506470Y-106303102D01*
X66417498Y-106436258D01*
X66304258Y-106549498D01*
X66171102Y-106638470D01*
X66171101Y-106638471D01*
X66171100Y-106638471D01*
X66137583Y-106652354D01*
X66023142Y-106699758D01*
X65866075Y-106731000D01*
X65705925Y-106731000D01*
X65548858Y-106699758D01*
X65434417Y-106652354D01*
X65400900Y-106638471D01*
X65400899Y-106638471D01*
X65400898Y-106638470D01*
X65267742Y-106549498D01*
X65154502Y-106436258D01*
X65065530Y-106303102D01*
X65004242Y-106155142D01*
X64973000Y-105998075D01*
X64973000Y-105837925D01*
X65004242Y-105680858D01*
X65065530Y-105532898D01*
X65154502Y-105399742D01*
X65267742Y-105286502D01*
X65400898Y-105197530D01*
X65548858Y-105136242D01*
X65705925Y-105105000D01*
X65866075Y-105105000D01*
X66023142Y-105136242D01*
X66023142Y-105136242D01*
G37*
G36*
X84377765Y-103202121D02*
X84567289Y-103280624D01*
X84737855Y-103394593D01*
X84882908Y-103539646D01*
X84996877Y-103710212D01*
X85075380Y-103899736D01*
X85115400Y-104100931D01*
X85115400Y-104306071D01*
X85075380Y-104507266D01*
X84996877Y-104696790D01*
X84882908Y-104867356D01*
X84737855Y-105012409D01*
X84567289Y-105126378D01*
X84377765Y-105204881D01*
X84176570Y-105244901D01*
X83971430Y-105244901D01*
X83770235Y-105204881D01*
X83580711Y-105126378D01*
X83410145Y-105012409D01*
X83265092Y-104867356D01*
X83151123Y-104696790D01*
X83072620Y-104507266D01*
X83032600Y-104306071D01*
X83032600Y-104100931D01*
X83072620Y-103899736D01*
X83151123Y-103710212D01*
X83265092Y-103539646D01*
X83410145Y-103394593D01*
X83580711Y-103280624D01*
X83770235Y-103202121D01*
X83971430Y-103162101D01*
X84176570Y-103162101D01*
X84377765Y-103202121D01*
X84377765Y-103202121D01*
G37*
G36*
X69137765Y-103202121D02*
X69327289Y-103280624D01*
X69497855Y-103394593D01*
X69642908Y-103539646D01*
X69756877Y-103710212D01*
X69835380Y-103899736D01*
X69875400Y-104100931D01*
X69875400Y-104306071D01*
X69835380Y-104507266D01*
X69756877Y-104696790D01*
X69642908Y-104867356D01*
X69497855Y-105012409D01*
X69327289Y-105126378D01*
X69137765Y-105204881D01*
X68936570Y-105244901D01*
X68731430Y-105244901D01*
X68530235Y-105204881D01*
X68340711Y-105126378D01*
X68170145Y-105012409D01*
X68025092Y-104867356D01*
X67911123Y-104696790D01*
X67832620Y-104507266D01*
X67792600Y-104306071D01*
X67792600Y-104100931D01*
X67832620Y-103899736D01*
X67911123Y-103710212D01*
X68025092Y-103539646D01*
X68170145Y-103394593D01*
X68340711Y-103280624D01*
X68530235Y-103202121D01*
X68731430Y-103162101D01*
X68936570Y-103162101D01*
X69137765Y-103202121D01*
X69137765Y-103202121D01*
G37*
G36*
X66023142Y-102596242D02*
X66171102Y-102657530D01*
X66304258Y-102746502D01*
X66417498Y-102859742D01*
X66506470Y-102992898D01*
X66567758Y-103140858D01*
X66599000Y-103297925D01*
X66599000Y-103458075D01*
X66567758Y-103615142D01*
X66506470Y-103763102D01*
X66417498Y-103896258D01*
X66304258Y-104009498D01*
X66171102Y-104098470D01*
X66171101Y-104098471D01*
X66171100Y-104098471D01*
X66137583Y-104112354D01*
X66023142Y-104159758D01*
X65866075Y-104191000D01*
X65705925Y-104191000D01*
X65548858Y-104159758D01*
X65434417Y-104112354D01*
X65400900Y-104098471D01*
X65400899Y-104098471D01*
X65400898Y-104098470D01*
X65267742Y-104009498D01*
X65154502Y-103896258D01*
X65065530Y-103763102D01*
X65004242Y-103615142D01*
X64973000Y-103458075D01*
X64973000Y-103297925D01*
X65004242Y-103140858D01*
X65065530Y-102992898D01*
X65154502Y-102859742D01*
X65267742Y-102746502D01*
X65400898Y-102657530D01*
X65548858Y-102596242D01*
X65705925Y-102565000D01*
X65866075Y-102565000D01*
X66023142Y-102596242D01*
X66023142Y-102596242D01*
G37*
G36*
X84377765Y-100662121D02*
X84567289Y-100740624D01*
X84737855Y-100854593D01*
X84882908Y-100999646D01*
X84996877Y-101170212D01*
X85075380Y-101359736D01*
X85115400Y-101560931D01*
X85115400Y-101766071D01*
X85075380Y-101967266D01*
X84996877Y-102156790D01*
X84882908Y-102327356D01*
X84737855Y-102472409D01*
X84567289Y-102586378D01*
X84377765Y-102664881D01*
X84176570Y-102704901D01*
X83971430Y-102704901D01*
X83770235Y-102664881D01*
X83580711Y-102586378D01*
X83410145Y-102472409D01*
X83265092Y-102327356D01*
X83151123Y-102156790D01*
X83072620Y-101967266D01*
X83032600Y-101766071D01*
X83032600Y-101560931D01*
X83072620Y-101359736D01*
X83151123Y-101170212D01*
X83265092Y-100999646D01*
X83410145Y-100854593D01*
X83580711Y-100740624D01*
X83770235Y-100662121D01*
X83971430Y-100622101D01*
X84176570Y-100622101D01*
X84377765Y-100662121D01*
X84377765Y-100662121D01*
G37*
G36*
X69137765Y-100662121D02*
X69327289Y-100740624D01*
X69497855Y-100854593D01*
X69642908Y-100999646D01*
X69756877Y-101170212D01*
X69835380Y-101359736D01*
X69875400Y-101560931D01*
X69875400Y-101766071D01*
X69835380Y-101967266D01*
X69756877Y-102156790D01*
X69642908Y-102327356D01*
X69497855Y-102472409D01*
X69327289Y-102586378D01*
X69137765Y-102664881D01*
X68936570Y-102704901D01*
X68731430Y-102704901D01*
X68530235Y-102664881D01*
X68340711Y-102586378D01*
X68170145Y-102472409D01*
X68025092Y-102327356D01*
X67911123Y-102156790D01*
X67832620Y-101967266D01*
X67792600Y-101766071D01*
X67792600Y-101560931D01*
X67832620Y-101359736D01*
X67911123Y-101170212D01*
X68025092Y-100999646D01*
X68170145Y-100854593D01*
X68340711Y-100740624D01*
X68530235Y-100662121D01*
X68731430Y-100622101D01*
X68936570Y-100622101D01*
X69137765Y-100662121D01*
X69137765Y-100662121D01*
G37*
G36*
X66023142Y-100056242D02*
X66171102Y-100117530D01*
X66304258Y-100206502D01*
X66417498Y-100319742D01*
X66506470Y-100452898D01*
X66567758Y-100600858D01*
X66599000Y-100757925D01*
X66599000Y-100918075D01*
X66567758Y-101075142D01*
X66506470Y-101223102D01*
X66417498Y-101356258D01*
X66304258Y-101469498D01*
X66171102Y-101558470D01*
X66171101Y-101558471D01*
X66171100Y-101558471D01*
X66137583Y-101572354D01*
X66023142Y-101619758D01*
X65866075Y-101651000D01*
X65705925Y-101651000D01*
X65548858Y-101619758D01*
X65434417Y-101572354D01*
X65400900Y-101558471D01*
X65400899Y-101558471D01*
X65400898Y-101558470D01*
X65267742Y-101469498D01*
X65154502Y-101356258D01*
X65065530Y-101223102D01*
X65004242Y-101075142D01*
X64973000Y-100918075D01*
X64973000Y-100757925D01*
X65004242Y-100600858D01*
X65065530Y-100452898D01*
X65154502Y-100319742D01*
X65267742Y-100206502D01*
X65400898Y-100117530D01*
X65548858Y-100056242D01*
X65705925Y-100025000D01*
X65866075Y-100025000D01*
X66023142Y-100056242D01*
X66023142Y-100056242D01*
G37*
G36*
X69137765Y-98122121D02*
X69327289Y-98200624D01*
X69497855Y-98314593D01*
X69642908Y-98459646D01*
X69756877Y-98630212D01*
X69835380Y-98819736D01*
X69875400Y-99020931D01*
X69875400Y-99226071D01*
X69835380Y-99427266D01*
X69756877Y-99616790D01*
X69642908Y-99787356D01*
X69497855Y-99932409D01*
X69327289Y-100046378D01*
X69137765Y-100124881D01*
X68936570Y-100164901D01*
X68731430Y-100164901D01*
X68530235Y-100124881D01*
X68340711Y-100046378D01*
X68170145Y-99932409D01*
X68025092Y-99787356D01*
X67911123Y-99616790D01*
X67832620Y-99427266D01*
X67792600Y-99226071D01*
X67792600Y-99020931D01*
X67832620Y-98819736D01*
X67911123Y-98630212D01*
X68025092Y-98459646D01*
X68170145Y-98314593D01*
X68340711Y-98200624D01*
X68530235Y-98122121D01*
X68731430Y-98082101D01*
X68936570Y-98082101D01*
X69137765Y-98122121D01*
X69137765Y-98122121D01*
G37*
G36*
X84377765Y-98122121D02*
X84567289Y-98200624D01*
X84737855Y-98314593D01*
X84882908Y-98459646D01*
X84996877Y-98630212D01*
X85075380Y-98819736D01*
X85115400Y-99020931D01*
X85115400Y-99226071D01*
X85075380Y-99427266D01*
X84996877Y-99616790D01*
X84882908Y-99787356D01*
X84737855Y-99932409D01*
X84567289Y-100046378D01*
X84377765Y-100124881D01*
X84176570Y-100164901D01*
X83971430Y-100164901D01*
X83770235Y-100124881D01*
X83580711Y-100046378D01*
X83410145Y-99932409D01*
X83265092Y-99787356D01*
X83151123Y-99616790D01*
X83072620Y-99427266D01*
X83032600Y-99226071D01*
X83032600Y-99020931D01*
X83072620Y-98819736D01*
X83151123Y-98630212D01*
X83265092Y-98459646D01*
X83410145Y-98314593D01*
X83580711Y-98200624D01*
X83770235Y-98122121D01*
X83971430Y-98082101D01*
X84176570Y-98082101D01*
X84377765Y-98122121D01*
X84377765Y-98122121D01*
G37*
G36*
X66023142Y-97516242D02*
X66171102Y-97577530D01*
X66304258Y-97666502D01*
X66417498Y-97779742D01*
X66506470Y-97912898D01*
X66567758Y-98060858D01*
X66599000Y-98217925D01*
X66599000Y-98378075D01*
X66567758Y-98535142D01*
X66506470Y-98683102D01*
X66417498Y-98816258D01*
X66304258Y-98929498D01*
X66171102Y-99018470D01*
X66171101Y-99018471D01*
X66171100Y-99018471D01*
X66137583Y-99032354D01*
X66023142Y-99079758D01*
X65866075Y-99111000D01*
X65705925Y-99111000D01*
X65548858Y-99079758D01*
X65434417Y-99032354D01*
X65400900Y-99018471D01*
X65400899Y-99018471D01*
X65400898Y-99018470D01*
X65267742Y-98929498D01*
X65154502Y-98816258D01*
X65065530Y-98683102D01*
X65004242Y-98535142D01*
X64973000Y-98378075D01*
X64973000Y-98217925D01*
X65004242Y-98060858D01*
X65065530Y-97912898D01*
X65154502Y-97779742D01*
X65267742Y-97666502D01*
X65400898Y-97577530D01*
X65548858Y-97516242D01*
X65705925Y-97485000D01*
X65866075Y-97485000D01*
X66023142Y-97516242D01*
X66023142Y-97516242D01*
G37*
G36*
X84377765Y-95582121D02*
X84567289Y-95660624D01*
X84737855Y-95774593D01*
X84882908Y-95919646D01*
X84996877Y-96090212D01*
X85075380Y-96279736D01*
X85115400Y-96480931D01*
X85115400Y-96686071D01*
X85075380Y-96887266D01*
X84996877Y-97076790D01*
X84882908Y-97247356D01*
X84737855Y-97392409D01*
X84567289Y-97506378D01*
X84377765Y-97584881D01*
X84176570Y-97624901D01*
X83971430Y-97624901D01*
X83770235Y-97584881D01*
X83580711Y-97506378D01*
X83410145Y-97392409D01*
X83265092Y-97247356D01*
X83151123Y-97076790D01*
X83072620Y-96887266D01*
X83032600Y-96686071D01*
X83032600Y-96480931D01*
X83072620Y-96279736D01*
X83151123Y-96090212D01*
X83265092Y-95919646D01*
X83410145Y-95774593D01*
X83580711Y-95660624D01*
X83770235Y-95582121D01*
X83971430Y-95542101D01*
X84176570Y-95542101D01*
X84377765Y-95582121D01*
X84377765Y-95582121D01*
G37*
G36*
X69137765Y-95582121D02*
X69327289Y-95660624D01*
X69497855Y-95774593D01*
X69642908Y-95919646D01*
X69756877Y-96090212D01*
X69835380Y-96279736D01*
X69875400Y-96480931D01*
X69875400Y-96686071D01*
X69835380Y-96887266D01*
X69756877Y-97076790D01*
X69642908Y-97247356D01*
X69497855Y-97392409D01*
X69327289Y-97506378D01*
X69137765Y-97584881D01*
X68936570Y-97624901D01*
X68731430Y-97624901D01*
X68530235Y-97584881D01*
X68340711Y-97506378D01*
X68170145Y-97392409D01*
X68025092Y-97247356D01*
X67911123Y-97076790D01*
X67832620Y-96887266D01*
X67792600Y-96686071D01*
X67792600Y-96480931D01*
X67832620Y-96279736D01*
X67911123Y-96090212D01*
X68025092Y-95919646D01*
X68170145Y-95774593D01*
X68340711Y-95660624D01*
X68530235Y-95582121D01*
X68731430Y-95542101D01*
X68936570Y-95542101D01*
X69137765Y-95582121D01*
X69137765Y-95582121D01*
G37*
G36*
X66023142Y-94976242D02*
X66171102Y-95037530D01*
X66304258Y-95126502D01*
X66417498Y-95239742D01*
X66506470Y-95372898D01*
X66567758Y-95520858D01*
X66599000Y-95677925D01*
X66599000Y-95838075D01*
X66567758Y-95995142D01*
X66506470Y-96143102D01*
X66417498Y-96276258D01*
X66304258Y-96389498D01*
X66171102Y-96478470D01*
X66171101Y-96478471D01*
X66171100Y-96478471D01*
X66137583Y-96492354D01*
X66023142Y-96539758D01*
X65866075Y-96571000D01*
X65705925Y-96571000D01*
X65548858Y-96539758D01*
X65434417Y-96492354D01*
X65400900Y-96478471D01*
X65400899Y-96478471D01*
X65400898Y-96478470D01*
X65267742Y-96389498D01*
X65154502Y-96276258D01*
X65065530Y-96143102D01*
X65004242Y-95995142D01*
X64973000Y-95838075D01*
X64973000Y-95677925D01*
X65004242Y-95520858D01*
X65065530Y-95372898D01*
X65154502Y-95239742D01*
X65267742Y-95126502D01*
X65400898Y-95037530D01*
X65548858Y-94976242D01*
X65705925Y-94945000D01*
X65866075Y-94945000D01*
X66023142Y-94976242D01*
X66023142Y-94976242D01*
G37*
G36*
X69137765Y-93042121D02*
X69327289Y-93120624D01*
X69497855Y-93234593D01*
X69642908Y-93379646D01*
X69756877Y-93550212D01*
X69835380Y-93739736D01*
X69875400Y-93940931D01*
X69875400Y-94146071D01*
X69835380Y-94347266D01*
X69756877Y-94536790D01*
X69642908Y-94707356D01*
X69497855Y-94852409D01*
X69327289Y-94966378D01*
X69137765Y-95044881D01*
X68936570Y-95084901D01*
X68731430Y-95084901D01*
X68530235Y-95044881D01*
X68340711Y-94966378D01*
X68170145Y-94852409D01*
X68025092Y-94707356D01*
X67911123Y-94536790D01*
X67832620Y-94347266D01*
X67792600Y-94146071D01*
X67792600Y-93940931D01*
X67832620Y-93739736D01*
X67911123Y-93550212D01*
X68025092Y-93379646D01*
X68170145Y-93234593D01*
X68340711Y-93120624D01*
X68530235Y-93042121D01*
X68731430Y-93002101D01*
X68936570Y-93002101D01*
X69137765Y-93042121D01*
X69137765Y-93042121D01*
G37*
G36*
X84377765Y-93042121D02*
X84567289Y-93120624D01*
X84737855Y-93234593D01*
X84882908Y-93379646D01*
X84996877Y-93550212D01*
X85075380Y-93739736D01*
X85115400Y-93940931D01*
X85115400Y-94146071D01*
X85075380Y-94347266D01*
X84996877Y-94536790D01*
X84882908Y-94707356D01*
X84737855Y-94852409D01*
X84567289Y-94966378D01*
X84377765Y-95044881D01*
X84176570Y-95084901D01*
X83971430Y-95084901D01*
X83770235Y-95044881D01*
X83580711Y-94966378D01*
X83410145Y-94852409D01*
X83265092Y-94707356D01*
X83151123Y-94536790D01*
X83072620Y-94347266D01*
X83032600Y-94146071D01*
X83032600Y-93940931D01*
X83072620Y-93739736D01*
X83151123Y-93550212D01*
X83265092Y-93379646D01*
X83410145Y-93234593D01*
X83580711Y-93120624D01*
X83770235Y-93042121D01*
X83971430Y-93002101D01*
X84176570Y-93002101D01*
X84377765Y-93042121D01*
X84377765Y-93042121D01*
G37*
G36*
X66023142Y-92436242D02*
X66171102Y-92497530D01*
X66304258Y-92586502D01*
X66417498Y-92699742D01*
X66506470Y-92832898D01*
X66567758Y-92980858D01*
X66599000Y-93137925D01*
X66599000Y-93298075D01*
X66567758Y-93455142D01*
X66506470Y-93603102D01*
X66417498Y-93736258D01*
X66304258Y-93849498D01*
X66171102Y-93938470D01*
X66171101Y-93938471D01*
X66171100Y-93938471D01*
X66137583Y-93952354D01*
X66023142Y-93999758D01*
X65866075Y-94031000D01*
X65705925Y-94031000D01*
X65548858Y-93999758D01*
X65434417Y-93952354D01*
X65400900Y-93938471D01*
X65400899Y-93938471D01*
X65400898Y-93938470D01*
X65267742Y-93849498D01*
X65154502Y-93736258D01*
X65065530Y-93603102D01*
X65004242Y-93455142D01*
X64973000Y-93298075D01*
X64973000Y-93137925D01*
X65004242Y-92980858D01*
X65065530Y-92832898D01*
X65154502Y-92699742D01*
X65267742Y-92586502D01*
X65400898Y-92497530D01*
X65548858Y-92436242D01*
X65705925Y-92405000D01*
X65866075Y-92405000D01*
X66023142Y-92436242D01*
X66023142Y-92436242D01*
G37*
G36*
X69137765Y-90502121D02*
X69327289Y-90580624D01*
X69497855Y-90694593D01*
X69642908Y-90839646D01*
X69756877Y-91010212D01*
X69835380Y-91199736D01*
X69875400Y-91400931D01*
X69875400Y-91606071D01*
X69835380Y-91807266D01*
X69756877Y-91996790D01*
X69642908Y-92167356D01*
X69497855Y-92312409D01*
X69327289Y-92426378D01*
X69137765Y-92504881D01*
X68936570Y-92544901D01*
X68731430Y-92544901D01*
X68530235Y-92504881D01*
X68340711Y-92426378D01*
X68170145Y-92312409D01*
X68025092Y-92167356D01*
X67911123Y-91996790D01*
X67832620Y-91807266D01*
X67792600Y-91606071D01*
X67792600Y-91400931D01*
X67832620Y-91199736D01*
X67911123Y-91010212D01*
X68025092Y-90839646D01*
X68170145Y-90694593D01*
X68340711Y-90580624D01*
X68530235Y-90502121D01*
X68731430Y-90462101D01*
X68936570Y-90462101D01*
X69137765Y-90502121D01*
X69137765Y-90502121D01*
G37*
G36*
X84377765Y-90502121D02*
X84567289Y-90580624D01*
X84737855Y-90694593D01*
X84882908Y-90839646D01*
X84996877Y-91010212D01*
X85075380Y-91199736D01*
X85115400Y-91400931D01*
X85115400Y-91606071D01*
X85075380Y-91807266D01*
X84996877Y-91996790D01*
X84882908Y-92167356D01*
X84737855Y-92312409D01*
X84567289Y-92426378D01*
X84377765Y-92504881D01*
X84176570Y-92544901D01*
X83971430Y-92544901D01*
X83770235Y-92504881D01*
X83580711Y-92426378D01*
X83410145Y-92312409D01*
X83265092Y-92167356D01*
X83151123Y-91996790D01*
X83072620Y-91807266D01*
X83032600Y-91606071D01*
X83032600Y-91400931D01*
X83072620Y-91199736D01*
X83151123Y-91010212D01*
X83265092Y-90839646D01*
X83410145Y-90694593D01*
X83580711Y-90580624D01*
X83770235Y-90502121D01*
X83971430Y-90462101D01*
X84176570Y-90462101D01*
X84377765Y-90502121D01*
X84377765Y-90502121D01*
G37*
G36*
X88767256Y-88815298D02*
X88873579Y-88836447D01*
X89174042Y-88960903D01*
X89440852Y-89139180D01*
X89444454Y-89141587D01*
X89674413Y-89371546D01*
X89674415Y-89371549D01*
X89855097Y-89641958D01*
X89979553Y-89942421D01*
X90043000Y-90261391D01*
X90043000Y-90586609D01*
X89979553Y-90905579D01*
X89914305Y-91063102D01*
X89855098Y-91206040D01*
X89674413Y-91476454D01*
X89444454Y-91706413D01*
X89444451Y-91706415D01*
X89174042Y-91887097D01*
X88873579Y-92011553D01*
X88767256Y-92032702D01*
X88554611Y-92075000D01*
X88229389Y-92075000D01*
X88016744Y-92032702D01*
X87910421Y-92011553D01*
X87609958Y-91887097D01*
X87339549Y-91706415D01*
X87339546Y-91706413D01*
X87109587Y-91476454D01*
X86928902Y-91206040D01*
X86869695Y-91063102D01*
X86804447Y-90905579D01*
X86741000Y-90586609D01*
X86741000Y-90261391D01*
X86804447Y-89942421D01*
X86928903Y-89641958D01*
X87109585Y-89371549D01*
X87109587Y-89371546D01*
X87339546Y-89141587D01*
X87343148Y-89139180D01*
X87609958Y-88960903D01*
X87910421Y-88836447D01*
X88016744Y-88815298D01*
X88229389Y-88773000D01*
X88554611Y-88773000D01*
X88767256Y-88815298D01*
X88767256Y-88815298D01*
G37*
G36*
X66023142Y-89896242D02*
X66171102Y-89957530D01*
X66304258Y-90046502D01*
X66417498Y-90159742D01*
X66506470Y-90292898D01*
X66567758Y-90440858D01*
X66599000Y-90597925D01*
X66599000Y-90758075D01*
X66567758Y-90915142D01*
X66506470Y-91063102D01*
X66417498Y-91196258D01*
X66304258Y-91309498D01*
X66171102Y-91398470D01*
X66171101Y-91398471D01*
X66171100Y-91398471D01*
X66137583Y-91412354D01*
X66023142Y-91459758D01*
X65866075Y-91491000D01*
X65705925Y-91491000D01*
X65548858Y-91459758D01*
X65434417Y-91412354D01*
X65400900Y-91398471D01*
X65400899Y-91398471D01*
X65400898Y-91398470D01*
X65267742Y-91309498D01*
X65154502Y-91196258D01*
X65065530Y-91063102D01*
X65004242Y-90915142D01*
X64973000Y-90758075D01*
X64973000Y-90597925D01*
X65004242Y-90440858D01*
X65065530Y-90292898D01*
X65154502Y-90159742D01*
X65267742Y-90046502D01*
X65400898Y-89957530D01*
X65548858Y-89896242D01*
X65705925Y-89865000D01*
X65866075Y-89865000D01*
X66023142Y-89896242D01*
X66023142Y-89896242D01*
G37*
G36*
X84377765Y-87962121D02*
X84567289Y-88040624D01*
X84737855Y-88154593D01*
X84882908Y-88299646D01*
X84996877Y-88470212D01*
X85075380Y-88659736D01*
X85115400Y-88860931D01*
X85115400Y-89066071D01*
X85075380Y-89267266D01*
X84996877Y-89456790D01*
X84882908Y-89627356D01*
X84737855Y-89772409D01*
X84567289Y-89886378D01*
X84377765Y-89964881D01*
X84176570Y-90004901D01*
X83971430Y-90004901D01*
X83770235Y-89964881D01*
X83580711Y-89886378D01*
X83410145Y-89772409D01*
X83265092Y-89627356D01*
X83151123Y-89456790D01*
X83072620Y-89267266D01*
X83032600Y-89066071D01*
X83032600Y-88860931D01*
X83072620Y-88659736D01*
X83151123Y-88470212D01*
X83265092Y-88299646D01*
X83410145Y-88154593D01*
X83580711Y-88040624D01*
X83770235Y-87962121D01*
X83971430Y-87922101D01*
X84176570Y-87922101D01*
X84377765Y-87962121D01*
X84377765Y-87962121D01*
G37*
G36*
X69137765Y-87962121D02*
X69327289Y-88040624D01*
X69497855Y-88154593D01*
X69642908Y-88299646D01*
X69756877Y-88470212D01*
X69835380Y-88659736D01*
X69875400Y-88860931D01*
X69875400Y-89066071D01*
X69835380Y-89267266D01*
X69756877Y-89456790D01*
X69642908Y-89627356D01*
X69497855Y-89772409D01*
X69327289Y-89886378D01*
X69137765Y-89964881D01*
X68936570Y-90004901D01*
X68731430Y-90004901D01*
X68530235Y-89964881D01*
X68340711Y-89886378D01*
X68170145Y-89772409D01*
X68025092Y-89627356D01*
X67911123Y-89456790D01*
X67832620Y-89267266D01*
X67792600Y-89066071D01*
X67792600Y-88860931D01*
X67832620Y-88659736D01*
X67911123Y-88470212D01*
X68025092Y-88299646D01*
X68170145Y-88154593D01*
X68340711Y-88040624D01*
X68530235Y-87962121D01*
X68731430Y-87922101D01*
X68936570Y-87922101D01*
X69137765Y-87962121D01*
X69137765Y-87962121D01*
G37*
G36*
X66023142Y-87356242D02*
X66171102Y-87417530D01*
X66304258Y-87506502D01*
X66417498Y-87619742D01*
X66506470Y-87752898D01*
X66567758Y-87900858D01*
X66599000Y-88057925D01*
X66599000Y-88218075D01*
X66567758Y-88375142D01*
X66506470Y-88523102D01*
X66417498Y-88656258D01*
X66304258Y-88769498D01*
X66171102Y-88858470D01*
X66171101Y-88858471D01*
X66171100Y-88858471D01*
X66137583Y-88872354D01*
X66023142Y-88919758D01*
X65866075Y-88951000D01*
X65705925Y-88951000D01*
X65548858Y-88919758D01*
X65434417Y-88872354D01*
X65400900Y-88858471D01*
X65400899Y-88858471D01*
X65400898Y-88858470D01*
X65267742Y-88769498D01*
X65154502Y-88656258D01*
X65065530Y-88523102D01*
X65004242Y-88375142D01*
X64973000Y-88218075D01*
X64973000Y-88057925D01*
X65004242Y-87900858D01*
X65065530Y-87752898D01*
X65154502Y-87619742D01*
X65267742Y-87506502D01*
X65400898Y-87417530D01*
X65548858Y-87356242D01*
X65705925Y-87325000D01*
X65866075Y-87325000D01*
X66023142Y-87356242D01*
X66023142Y-87356242D01*
G37*
M02*
