G04 #@! TF.GenerationSoftware,KiCad,Pcbnew,(5.0.1)-4*
G04 #@! TF.CreationDate,2018-12-26T16:50:05+01:00*
G04 #@! TF.ProjectId,EdtrackerDiy,4564747261636B65724469792E6B6963,rev?*
G04 #@! TF.SameCoordinates,Original*
G04 #@! TF.FileFunction,Legend,Bot*
G04 #@! TF.FilePolarity,Positive*
%FSLAX46Y46*%
G04 Gerber Fmt 4.6, Leading zero omitted, Abs format (unit mm)*
G04 Created by KiCad (PCBNEW (5.0.1)-4) date 26/12/2018 16:50:05*
%MOMM*%
%LPD*%
G01*
G04 APERTURE LIST*
%ADD10C,0.300000*%
%ADD11C,0.150000*%
%ADD12C,0.200000*%
%ADD13C,0.120000*%
%ADD14C,0.010000*%
G04 APERTURE END LIST*
D10*
X61916571Y-104140285D02*
X63416571Y-104640285D01*
X61916571Y-105140285D01*
X63416571Y-106426000D02*
X63416571Y-105568857D01*
X63416571Y-105997428D02*
X61916571Y-105997428D01*
X62130857Y-105854571D01*
X62273714Y-105711714D01*
X62345142Y-105568857D01*
X63273714Y-107068857D02*
X63345142Y-107140285D01*
X63416571Y-107068857D01*
X63345142Y-106997428D01*
X63273714Y-107068857D01*
X63416571Y-107068857D01*
X61916571Y-108068857D02*
X61916571Y-108211714D01*
X61988000Y-108354571D01*
X62059428Y-108426000D01*
X62202285Y-108497428D01*
X62488000Y-108568857D01*
X62845142Y-108568857D01*
X63130857Y-108497428D01*
X63273714Y-108426000D01*
X63345142Y-108354571D01*
X63416571Y-108211714D01*
X63416571Y-108068857D01*
X63345142Y-107926000D01*
X63273714Y-107854571D01*
X63130857Y-107783142D01*
X62845142Y-107711714D01*
X62488000Y-107711714D01*
X62202285Y-107783142D01*
X62059428Y-107854571D01*
X61988000Y-107926000D01*
X61916571Y-108068857D01*
D11*
X75811571Y-94964666D02*
X75859190Y-95107523D01*
X75906809Y-95155142D01*
X76002047Y-95202761D01*
X76144904Y-95202761D01*
X76240142Y-95155142D01*
X76287761Y-95107523D01*
X76335380Y-95012285D01*
X76335380Y-94631333D01*
X75335380Y-94631333D01*
X75335380Y-94964666D01*
X75383000Y-95059904D01*
X75430619Y-95107523D01*
X75525857Y-95155142D01*
X75621095Y-95155142D01*
X75716333Y-95107523D01*
X75763952Y-95059904D01*
X75811571Y-94964666D01*
X75811571Y-94631333D01*
X76335380Y-96059904D02*
X75811571Y-96059904D01*
X75716333Y-96012285D01*
X75668714Y-95917047D01*
X75668714Y-95726571D01*
X75716333Y-95631333D01*
X76287761Y-96059904D02*
X76335380Y-95964666D01*
X76335380Y-95726571D01*
X76287761Y-95631333D01*
X76192523Y-95583714D01*
X76097285Y-95583714D01*
X76002047Y-95631333D01*
X75954428Y-95726571D01*
X75954428Y-95964666D01*
X75906809Y-96059904D01*
X76287761Y-96488476D02*
X76335380Y-96583714D01*
X76335380Y-96774190D01*
X76287761Y-96869428D01*
X76192523Y-96917047D01*
X76144904Y-96917047D01*
X76049666Y-96869428D01*
X76002047Y-96774190D01*
X76002047Y-96631333D01*
X75954428Y-96536095D01*
X75859190Y-96488476D01*
X75811571Y-96488476D01*
X75716333Y-96536095D01*
X75668714Y-96631333D01*
X75668714Y-96774190D01*
X75716333Y-96869428D01*
X76287761Y-97726571D02*
X76335380Y-97631333D01*
X76335380Y-97440857D01*
X76287761Y-97345619D01*
X76192523Y-97298000D01*
X75811571Y-97298000D01*
X75716333Y-97345619D01*
X75668714Y-97440857D01*
X75668714Y-97631333D01*
X75716333Y-97726571D01*
X75811571Y-97774190D01*
X75906809Y-97774190D01*
X76002047Y-97298000D01*
X76335380Y-98631333D02*
X75335380Y-98631333D01*
X76287761Y-98631333D02*
X76335380Y-98536095D01*
X76335380Y-98345619D01*
X76287761Y-98250380D01*
X76240142Y-98202761D01*
X76144904Y-98155142D01*
X75859190Y-98155142D01*
X75763952Y-98202761D01*
X75716333Y-98250380D01*
X75668714Y-98345619D01*
X75668714Y-98536095D01*
X75716333Y-98631333D01*
X76335380Y-100012285D02*
X76287761Y-99917047D01*
X76240142Y-99869428D01*
X76144904Y-99821809D01*
X75859190Y-99821809D01*
X75763952Y-99869428D01*
X75716333Y-99917047D01*
X75668714Y-100012285D01*
X75668714Y-100155142D01*
X75716333Y-100250380D01*
X75763952Y-100298000D01*
X75859190Y-100345619D01*
X76144904Y-100345619D01*
X76240142Y-100298000D01*
X76287761Y-100250380D01*
X76335380Y-100155142D01*
X76335380Y-100012285D01*
X75668714Y-100774190D02*
X76335380Y-100774190D01*
X75763952Y-100774190D02*
X75716333Y-100821809D01*
X75668714Y-100917047D01*
X75668714Y-101059904D01*
X75716333Y-101155142D01*
X75811571Y-101202761D01*
X76335380Y-101202761D01*
X77985380Y-87393238D02*
X76985380Y-87393238D01*
X77985380Y-87821809D02*
X77461571Y-87821809D01*
X77366333Y-87774190D01*
X77318714Y-87678952D01*
X77318714Y-87536095D01*
X77366333Y-87440857D01*
X77413952Y-87393238D01*
X77318714Y-88155142D02*
X77318714Y-88536095D01*
X76985380Y-88298000D02*
X77842523Y-88298000D01*
X77937761Y-88345619D01*
X77985380Y-88440857D01*
X77985380Y-88536095D01*
X77318714Y-88726571D02*
X77318714Y-89107523D01*
X76985380Y-88869428D02*
X77842523Y-88869428D01*
X77937761Y-88917047D01*
X77985380Y-89012285D01*
X77985380Y-89107523D01*
X77318714Y-89440857D02*
X78318714Y-89440857D01*
X77366333Y-89440857D02*
X77318714Y-89536095D01*
X77318714Y-89726571D01*
X77366333Y-89821809D01*
X77413952Y-89869428D01*
X77509190Y-89917047D01*
X77794904Y-89917047D01*
X77890142Y-89869428D01*
X77937761Y-89821809D01*
X77985380Y-89726571D01*
X77985380Y-89536095D01*
X77937761Y-89440857D01*
X77890142Y-90345619D02*
X77937761Y-90393238D01*
X77985380Y-90345619D01*
X77937761Y-90298000D01*
X77890142Y-90345619D01*
X77985380Y-90345619D01*
X77366333Y-90345619D02*
X77413952Y-90393238D01*
X77461571Y-90345619D01*
X77413952Y-90298000D01*
X77366333Y-90345619D01*
X77461571Y-90345619D01*
X76937761Y-91536095D02*
X78223476Y-90678952D01*
X76937761Y-92583714D02*
X78223476Y-91726571D01*
X77318714Y-92821809D02*
X77985380Y-93012285D01*
X77509190Y-93202761D01*
X77985380Y-93393238D01*
X77318714Y-93583714D01*
X77318714Y-93869428D02*
X77985380Y-94059904D01*
X77509190Y-94250380D01*
X77985380Y-94440857D01*
X77318714Y-94631333D01*
X77318714Y-94917047D02*
X77985380Y-95107523D01*
X77509190Y-95298000D01*
X77985380Y-95488476D01*
X77318714Y-95678952D01*
X77890142Y-96059904D02*
X77937761Y-96107523D01*
X77985380Y-96059904D01*
X77937761Y-96012285D01*
X77890142Y-96059904D01*
X77985380Y-96059904D01*
X77937761Y-96917047D02*
X77985380Y-96821809D01*
X77985380Y-96631333D01*
X77937761Y-96536095D01*
X77842523Y-96488476D01*
X77461571Y-96488476D01*
X77366333Y-96536095D01*
X77318714Y-96631333D01*
X77318714Y-96821809D01*
X77366333Y-96917047D01*
X77461571Y-96964666D01*
X77556809Y-96964666D01*
X77652047Y-96488476D01*
X77985380Y-97821809D02*
X76985380Y-97821809D01*
X77937761Y-97821809D02*
X77985380Y-97726571D01*
X77985380Y-97536095D01*
X77937761Y-97440857D01*
X77890142Y-97393238D01*
X77794904Y-97345619D01*
X77509190Y-97345619D01*
X77413952Y-97393238D01*
X77366333Y-97440857D01*
X77318714Y-97536095D01*
X77318714Y-97726571D01*
X77366333Y-97821809D01*
X77318714Y-98155142D02*
X77318714Y-98536095D01*
X76985380Y-98297999D02*
X77842523Y-98297999D01*
X77937761Y-98345619D01*
X77985380Y-98440857D01*
X77985380Y-98536095D01*
X77985380Y-98869428D02*
X77318714Y-98869428D01*
X77509190Y-98869428D02*
X77413952Y-98917047D01*
X77366333Y-98964666D01*
X77318714Y-99059904D01*
X77318714Y-99155142D01*
X77985380Y-99917047D02*
X77461571Y-99917047D01*
X77366333Y-99869428D01*
X77318714Y-99774190D01*
X77318714Y-99583714D01*
X77366333Y-99488476D01*
X77937761Y-99917047D02*
X77985380Y-99821809D01*
X77985380Y-99583714D01*
X77937761Y-99488476D01*
X77842523Y-99440857D01*
X77747285Y-99440857D01*
X77652047Y-99488476D01*
X77604428Y-99583714D01*
X77604428Y-99821809D01*
X77556809Y-99917047D01*
X77937761Y-100821809D02*
X77985380Y-100726571D01*
X77985380Y-100536095D01*
X77937761Y-100440857D01*
X77890142Y-100393238D01*
X77794904Y-100345619D01*
X77509190Y-100345619D01*
X77413952Y-100393238D01*
X77366333Y-100440857D01*
X77318714Y-100536095D01*
X77318714Y-100726571D01*
X77366333Y-100821809D01*
X77985380Y-101250380D02*
X76985380Y-101250380D01*
X77604428Y-101345619D02*
X77985380Y-101631333D01*
X77318714Y-101631333D02*
X77699666Y-101250380D01*
X77937761Y-102440857D02*
X77985380Y-102345619D01*
X77985380Y-102155142D01*
X77937761Y-102059904D01*
X77842523Y-102012285D01*
X77461571Y-102012285D01*
X77366333Y-102059904D01*
X77318714Y-102155142D01*
X77318714Y-102345619D01*
X77366333Y-102440857D01*
X77461571Y-102488476D01*
X77556809Y-102488476D01*
X77652047Y-102012285D01*
X77985380Y-102917047D02*
X77318714Y-102917047D01*
X77509190Y-102917047D02*
X77413952Y-102964666D01*
X77366333Y-103012285D01*
X77318714Y-103107523D01*
X77318714Y-103202761D01*
X77890142Y-103536095D02*
X77937761Y-103583714D01*
X77985380Y-103536095D01*
X77937761Y-103488476D01*
X77890142Y-103536095D01*
X77985380Y-103536095D01*
X77985380Y-104155142D02*
X77937761Y-104059904D01*
X77890142Y-104012285D01*
X77794904Y-103964666D01*
X77509190Y-103964666D01*
X77413952Y-104012285D01*
X77366333Y-104059904D01*
X77318714Y-104155142D01*
X77318714Y-104297999D01*
X77366333Y-104393238D01*
X77413952Y-104440857D01*
X77509190Y-104488476D01*
X77794904Y-104488476D01*
X77890142Y-104440857D01*
X77937761Y-104393238D01*
X77985380Y-104297999D01*
X77985380Y-104155142D01*
X77985380Y-104917047D02*
X77318714Y-104917047D01*
X77509190Y-104917047D02*
X77413952Y-104964666D01*
X77366333Y-105012285D01*
X77318714Y-105107523D01*
X77318714Y-105202761D01*
X77318714Y-105964666D02*
X78128238Y-105964666D01*
X78223476Y-105917047D01*
X78271095Y-105869428D01*
X78318714Y-105774190D01*
X78318714Y-105631333D01*
X78271095Y-105536095D01*
X77937761Y-105964666D02*
X77985380Y-105869428D01*
X77985380Y-105678952D01*
X77937761Y-105583714D01*
X77890142Y-105536095D01*
X77794904Y-105488476D01*
X77509190Y-105488476D01*
X77413952Y-105536095D01*
X77366333Y-105583714D01*
X77318714Y-105678952D01*
X77318714Y-105869428D01*
X77366333Y-105964666D01*
X77890142Y-106440857D02*
X77937761Y-106488476D01*
X77985380Y-106440857D01*
X77937761Y-106393238D01*
X77890142Y-106440857D01*
X77985380Y-106440857D01*
X77318714Y-107345619D02*
X77985380Y-107345619D01*
X77318714Y-106917047D02*
X77842523Y-106917047D01*
X77937761Y-106964666D01*
X77985380Y-107059904D01*
X77985380Y-107202761D01*
X77937761Y-107297999D01*
X77890142Y-107345619D01*
X77985380Y-107821809D02*
X76985380Y-107821809D01*
X77604428Y-107917047D02*
X77985380Y-108202761D01*
X77318714Y-108202761D02*
X77699666Y-107821809D01*
X76937761Y-109345619D02*
X78223476Y-108488476D01*
D12*
X62190380Y-86972095D02*
X63190380Y-87305428D01*
X62190380Y-87638761D01*
X63190380Y-87972095D02*
X62523714Y-87972095D01*
X62190380Y-87972095D02*
X62238000Y-87924476D01*
X62285619Y-87972095D01*
X62238000Y-88019714D01*
X62190380Y-87972095D01*
X62285619Y-87972095D01*
X62523714Y-88448285D02*
X63190380Y-88448285D01*
X62618952Y-88448285D02*
X62571333Y-88495904D01*
X62523714Y-88591142D01*
X62523714Y-88734000D01*
X62571333Y-88829238D01*
X62666571Y-88876857D01*
X63190380Y-88876857D01*
X63142761Y-89781619D02*
X63190380Y-89686380D01*
X63190380Y-89495904D01*
X63142761Y-89400666D01*
X63095142Y-89353047D01*
X62999904Y-89305428D01*
X62714190Y-89305428D01*
X62618952Y-89353047D01*
X62571333Y-89400666D01*
X62523714Y-89495904D01*
X62523714Y-89686380D01*
X62571333Y-89781619D01*
X63142761Y-90591142D02*
X63190380Y-90495904D01*
X63190380Y-90305428D01*
X63142761Y-90210190D01*
X63047523Y-90162571D01*
X62666571Y-90162571D01*
X62571333Y-90210190D01*
X62523714Y-90305428D01*
X62523714Y-90495904D01*
X62571333Y-90591142D01*
X62666571Y-90638761D01*
X62761809Y-90638761D01*
X62857047Y-90162571D01*
X62523714Y-91067333D02*
X63190380Y-91067333D01*
X62618952Y-91067333D02*
X62571333Y-91114952D01*
X62523714Y-91210190D01*
X62523714Y-91353047D01*
X62571333Y-91448285D01*
X62666571Y-91495904D01*
X63190380Y-91495904D01*
X62523714Y-91829238D02*
X62523714Y-92210190D01*
X62190380Y-91972095D02*
X63047523Y-91972095D01*
X63142761Y-92019714D01*
X63190380Y-92114952D01*
X63190380Y-92210190D01*
X63190380Y-93305428D02*
X62190380Y-93305428D01*
X62904666Y-93638761D01*
X62190380Y-93972095D01*
X63190380Y-93972095D01*
X62904666Y-94400666D02*
X62904666Y-94876857D01*
X63190380Y-94305428D02*
X62190380Y-94638761D01*
X63190380Y-94972095D01*
X63190380Y-95305428D02*
X62190380Y-95305428D01*
X63190380Y-95876857D01*
X62190380Y-95876857D01*
X62190380Y-96543523D02*
X62190380Y-96734000D01*
X62238000Y-96829238D01*
X62333238Y-96924476D01*
X62523714Y-96972095D01*
X62857047Y-96972095D01*
X63047523Y-96924476D01*
X63142761Y-96829238D01*
X63190380Y-96734000D01*
X63190380Y-96543523D01*
X63142761Y-96448285D01*
X63047523Y-96353047D01*
X62857047Y-96305428D01*
X62523714Y-96305428D01*
X62333238Y-96353047D01*
X62238000Y-96448285D01*
X62190380Y-96543523D01*
X62190380Y-97400666D02*
X62999904Y-97400666D01*
X63095142Y-97448285D01*
X63142761Y-97495904D01*
X63190380Y-97591142D01*
X63190380Y-97781619D01*
X63142761Y-97876857D01*
X63095142Y-97924476D01*
X62999904Y-97972095D01*
X62190380Y-97972095D01*
X63190380Y-98448285D02*
X62190380Y-98448285D01*
X63190380Y-99019714D02*
X62618952Y-98591142D01*
X62190380Y-99019714D02*
X62761809Y-98448285D01*
X63190380Y-99448285D02*
X62190380Y-99448285D01*
X62904666Y-99876857D02*
X62904666Y-100353047D01*
X63190380Y-99781619D02*
X62190380Y-100114952D01*
X63190380Y-100448285D01*
X63190380Y-100781619D02*
X62190380Y-100781619D01*
X63190380Y-101353047D01*
X62190380Y-101353047D01*
D11*
G04 #@! TO.C,M1*
X64516000Y-112268000D02*
X67056000Y-112268000D01*
X64516000Y-86868000D02*
X64516000Y-112268000D01*
X67056000Y-86868000D02*
X64516000Y-86868000D01*
X67056000Y-112268000D02*
X67056000Y-86868000D01*
D13*
G04 #@! TO.C,SW1*
X78248000Y-119872000D02*
X73748000Y-119872000D01*
X79498000Y-115872000D02*
X79498000Y-117372000D01*
X73748000Y-113372000D02*
X78248000Y-113372000D01*
X72498000Y-117372000D02*
X72498000Y-115872000D01*
D14*
G04 #@! TO.C,REF\002A\002A*
G36*
X85380348Y-102973910D02*
X85380778Y-103052454D01*
X85381942Y-103109298D01*
X85384207Y-103148105D01*
X85387940Y-103172538D01*
X85393506Y-103186262D01*
X85401273Y-103192940D01*
X85411605Y-103196236D01*
X85412943Y-103196556D01*
X85437079Y-103201562D01*
X85484701Y-103210829D01*
X85550741Y-103223392D01*
X85630128Y-103238287D01*
X85717796Y-103254551D01*
X85720875Y-103255119D01*
X85806789Y-103271410D01*
X85882696Y-103286652D01*
X85944045Y-103299861D01*
X85986282Y-103310054D01*
X86004855Y-103316248D01*
X86005184Y-103316543D01*
X86014253Y-103334788D01*
X86029367Y-103372405D01*
X86047262Y-103421271D01*
X86047358Y-103421543D01*
X86070493Y-103483093D01*
X86099965Y-103555657D01*
X86129597Y-103624057D01*
X86131062Y-103627294D01*
X86181626Y-103738702D01*
X86013160Y-103985399D01*
X85961803Y-104061077D01*
X85915889Y-104129631D01*
X85878030Y-104187088D01*
X85850837Y-104229476D01*
X85836921Y-104252825D01*
X85835889Y-104255042D01*
X85840484Y-104272010D01*
X85862655Y-104303701D01*
X85903447Y-104351352D01*
X85963905Y-104416198D01*
X86028227Y-104482397D01*
X86091612Y-104546214D01*
X86149451Y-104603329D01*
X86198175Y-104650305D01*
X86234210Y-104683703D01*
X86253984Y-104700085D01*
X86255002Y-104700694D01*
X86268572Y-104702505D01*
X86290733Y-104695683D01*
X86324478Y-104678540D01*
X86372800Y-104649393D01*
X86438692Y-104606555D01*
X86523517Y-104549448D01*
X86598177Y-104498766D01*
X86665140Y-104453461D01*
X86720516Y-104416150D01*
X86760420Y-104389452D01*
X86780962Y-104375985D01*
X86782356Y-104375137D01*
X86802038Y-104376781D01*
X86840293Y-104389245D01*
X86889889Y-104410048D01*
X86905728Y-104417462D01*
X86976290Y-104449814D01*
X87056353Y-104484328D01*
X87125629Y-104512365D01*
X87177045Y-104532568D01*
X87216119Y-104548615D01*
X87236541Y-104557888D01*
X87238114Y-104559041D01*
X87240721Y-104576096D01*
X87247863Y-104616298D01*
X87258523Y-104674302D01*
X87271685Y-104744763D01*
X87286333Y-104822335D01*
X87301449Y-104901672D01*
X87316018Y-104977431D01*
X87329022Y-105044264D01*
X87339445Y-105096828D01*
X87346270Y-105129776D01*
X87348199Y-105137857D01*
X87352962Y-105146205D01*
X87363718Y-105152506D01*
X87384098Y-105157045D01*
X87417734Y-105160104D01*
X87468255Y-105161967D01*
X87539292Y-105162918D01*
X87634476Y-105163240D01*
X87673492Y-105163257D01*
X87990799Y-105163257D01*
X88005839Y-105087057D01*
X88013995Y-105044663D01*
X88025899Y-104981400D01*
X88040116Y-104904962D01*
X88055210Y-104823043D01*
X88059355Y-104800400D01*
X88074053Y-104724806D01*
X88088505Y-104658953D01*
X88101375Y-104608366D01*
X88111322Y-104578574D01*
X88114287Y-104573612D01*
X88135283Y-104561426D01*
X88175967Y-104543953D01*
X88228322Y-104524577D01*
X88239600Y-104520734D01*
X88309523Y-104495339D01*
X88388418Y-104463817D01*
X88459266Y-104432969D01*
X88459595Y-104432817D01*
X88570733Y-104381447D01*
X88819253Y-104550399D01*
X89067772Y-104719352D01*
X89285058Y-104502429D01*
X89349726Y-104436819D01*
X89406733Y-104376979D01*
X89453033Y-104326267D01*
X89485584Y-104288046D01*
X89501343Y-104265675D01*
X89502343Y-104262466D01*
X89494469Y-104243626D01*
X89472578Y-104205180D01*
X89439267Y-104151330D01*
X89397131Y-104086276D01*
X89349943Y-104015940D01*
X89301810Y-103944555D01*
X89259928Y-103880908D01*
X89226871Y-103829041D01*
X89205218Y-103792995D01*
X89197543Y-103776867D01*
X89204037Y-103757189D01*
X89221150Y-103719875D01*
X89245326Y-103672621D01*
X89248013Y-103667612D01*
X89279927Y-103603977D01*
X89295579Y-103560341D01*
X89295745Y-103533202D01*
X89281204Y-103519057D01*
X89281000Y-103518975D01*
X89263779Y-103511905D01*
X89222899Y-103495042D01*
X89161525Y-103469695D01*
X89082819Y-103437171D01*
X88989947Y-103398778D01*
X88886072Y-103355822D01*
X88785502Y-103314222D01*
X88674516Y-103268504D01*
X88571703Y-103226526D01*
X88480215Y-103189548D01*
X88403201Y-103158827D01*
X88343815Y-103135622D01*
X88305209Y-103121190D01*
X88290800Y-103116743D01*
X88274272Y-103127896D01*
X88247930Y-103157069D01*
X88218887Y-103195971D01*
X88127039Y-103306757D01*
X88021759Y-103393351D01*
X87905266Y-103454716D01*
X87779776Y-103489815D01*
X87647507Y-103497608D01*
X87586457Y-103491943D01*
X87459795Y-103461078D01*
X87347941Y-103407920D01*
X87252001Y-103335767D01*
X87173076Y-103247917D01*
X87112270Y-103147665D01*
X87070687Y-103038310D01*
X87049428Y-102923147D01*
X87049599Y-102805475D01*
X87072301Y-102688590D01*
X87118638Y-102575789D01*
X87189713Y-102470369D01*
X87229911Y-102426368D01*
X87333129Y-102341979D01*
X87445925Y-102283222D01*
X87565010Y-102249704D01*
X87687095Y-102241035D01*
X87808893Y-102256823D01*
X87927116Y-102296678D01*
X88038475Y-102360207D01*
X88139684Y-102447021D01*
X88218887Y-102544029D01*
X88249162Y-102584437D01*
X88275219Y-102612982D01*
X88290825Y-102623257D01*
X88307843Y-102617877D01*
X88348500Y-102602575D01*
X88409642Y-102578612D01*
X88488119Y-102547244D01*
X88580780Y-102509732D01*
X88684472Y-102467333D01*
X88785526Y-102425663D01*
X88896607Y-102379690D01*
X88999541Y-102337107D01*
X89091165Y-102299221D01*
X89168316Y-102267340D01*
X89227831Y-102242771D01*
X89266544Y-102226820D01*
X89281000Y-102220910D01*
X89295685Y-102206948D01*
X89295642Y-102179940D01*
X89280099Y-102136413D01*
X89248284Y-102072890D01*
X89248013Y-102072388D01*
X89223323Y-102024560D01*
X89205338Y-101985897D01*
X89197614Y-101964095D01*
X89197543Y-101963133D01*
X89205378Y-101946721D01*
X89227165Y-101910487D01*
X89260328Y-101858474D01*
X89302291Y-101794725D01*
X89349943Y-101724060D01*
X89398191Y-101652116D01*
X89440151Y-101587274D01*
X89473227Y-101533735D01*
X89494821Y-101495697D01*
X89502343Y-101477533D01*
X89492457Y-101460808D01*
X89464826Y-101427180D01*
X89422495Y-101380010D01*
X89368505Y-101322658D01*
X89305899Y-101258484D01*
X89284983Y-101237497D01*
X89067623Y-101020499D01*
X88825220Y-101185668D01*
X88750781Y-101235864D01*
X88683972Y-101279919D01*
X88628665Y-101315362D01*
X88588729Y-101339719D01*
X88568036Y-101350522D01*
X88566563Y-101350838D01*
X88547058Y-101345143D01*
X88507822Y-101329826D01*
X88455430Y-101307537D01*
X88420355Y-101291893D01*
X88353201Y-101262641D01*
X88285358Y-101235094D01*
X88228034Y-101213737D01*
X88210572Y-101207935D01*
X88163938Y-101191452D01*
X88127905Y-101175340D01*
X88114287Y-101166490D01*
X88105952Y-101146960D01*
X88094137Y-101104334D01*
X88080181Y-101044145D01*
X88065422Y-100971922D01*
X88059355Y-100939600D01*
X88044273Y-100857522D01*
X88029669Y-100778795D01*
X88016980Y-100711109D01*
X88007642Y-100662160D01*
X88005839Y-100652943D01*
X87990799Y-100576743D01*
X87673492Y-100576743D01*
X87569154Y-100576914D01*
X87490213Y-100577616D01*
X87433038Y-100579134D01*
X87393999Y-100581749D01*
X87369465Y-100585746D01*
X87355805Y-100591409D01*
X87349389Y-100599020D01*
X87348199Y-100602143D01*
X87343980Y-100620978D01*
X87335562Y-100662588D01*
X87323961Y-100721630D01*
X87310195Y-100792757D01*
X87295280Y-100870625D01*
X87280232Y-100949887D01*
X87266069Y-101025198D01*
X87253806Y-101091213D01*
X87244461Y-101142587D01*
X87239050Y-101173975D01*
X87238114Y-101180959D01*
X87225596Y-101187285D01*
X87192246Y-101201290D01*
X87144377Y-101220355D01*
X87125629Y-101227634D01*
X87053195Y-101256996D01*
X86973170Y-101291571D01*
X86905728Y-101322537D01*
X86854159Y-101345323D01*
X86811785Y-101360482D01*
X86785834Y-101365542D01*
X86782356Y-101364736D01*
X86765936Y-101354041D01*
X86729417Y-101329620D01*
X86676687Y-101294095D01*
X86611635Y-101250087D01*
X86538151Y-101200217D01*
X86523645Y-101190356D01*
X86437704Y-101132492D01*
X86372261Y-101089956D01*
X86324304Y-101061054D01*
X86290820Y-101044090D01*
X86268795Y-101037367D01*
X86255217Y-101039190D01*
X86255131Y-101039236D01*
X86237297Y-101053586D01*
X86202817Y-101085323D01*
X86155268Y-101131010D01*
X86098222Y-101187204D01*
X86035255Y-101250468D01*
X86028227Y-101257602D01*
X85951020Y-101337330D01*
X85894330Y-101398857D01*
X85857110Y-101443421D01*
X85838315Y-101472257D01*
X85835889Y-101484958D01*
X85846471Y-101503494D01*
X85870916Y-101541961D01*
X85906612Y-101596386D01*
X85950947Y-101662798D01*
X86001311Y-101737225D01*
X86013160Y-101754601D01*
X86181626Y-102001297D01*
X86131062Y-102112706D01*
X86101595Y-102180457D01*
X86071959Y-102253183D01*
X86048330Y-102315703D01*
X86047358Y-102318457D01*
X86029457Y-102367360D01*
X86014320Y-102405057D01*
X86005210Y-102423425D01*
X86005184Y-102423456D01*
X85988717Y-102429285D01*
X85948219Y-102439192D01*
X85888242Y-102452195D01*
X85813340Y-102467309D01*
X85728064Y-102483552D01*
X85720875Y-102484881D01*
X85633014Y-102501175D01*
X85553260Y-102516133D01*
X85486681Y-102528791D01*
X85438347Y-102538186D01*
X85413325Y-102543354D01*
X85412943Y-102543444D01*
X85402299Y-102546589D01*
X85394262Y-102552704D01*
X85388467Y-102565453D01*
X85384547Y-102588500D01*
X85382135Y-102625509D01*
X85380865Y-102680144D01*
X85380371Y-102756067D01*
X85380286Y-102856944D01*
X85380286Y-102870000D01*
X85380348Y-102973910D01*
X85380348Y-102973910D01*
G37*
X85380348Y-102973910D02*
X85380778Y-103052454D01*
X85381942Y-103109298D01*
X85384207Y-103148105D01*
X85387940Y-103172538D01*
X85393506Y-103186262D01*
X85401273Y-103192940D01*
X85411605Y-103196236D01*
X85412943Y-103196556D01*
X85437079Y-103201562D01*
X85484701Y-103210829D01*
X85550741Y-103223392D01*
X85630128Y-103238287D01*
X85717796Y-103254551D01*
X85720875Y-103255119D01*
X85806789Y-103271410D01*
X85882696Y-103286652D01*
X85944045Y-103299861D01*
X85986282Y-103310054D01*
X86004855Y-103316248D01*
X86005184Y-103316543D01*
X86014253Y-103334788D01*
X86029367Y-103372405D01*
X86047262Y-103421271D01*
X86047358Y-103421543D01*
X86070493Y-103483093D01*
X86099965Y-103555657D01*
X86129597Y-103624057D01*
X86131062Y-103627294D01*
X86181626Y-103738702D01*
X86013160Y-103985399D01*
X85961803Y-104061077D01*
X85915889Y-104129631D01*
X85878030Y-104187088D01*
X85850837Y-104229476D01*
X85836921Y-104252825D01*
X85835889Y-104255042D01*
X85840484Y-104272010D01*
X85862655Y-104303701D01*
X85903447Y-104351352D01*
X85963905Y-104416198D01*
X86028227Y-104482397D01*
X86091612Y-104546214D01*
X86149451Y-104603329D01*
X86198175Y-104650305D01*
X86234210Y-104683703D01*
X86253984Y-104700085D01*
X86255002Y-104700694D01*
X86268572Y-104702505D01*
X86290733Y-104695683D01*
X86324478Y-104678540D01*
X86372800Y-104649393D01*
X86438692Y-104606555D01*
X86523517Y-104549448D01*
X86598177Y-104498766D01*
X86665140Y-104453461D01*
X86720516Y-104416150D01*
X86760420Y-104389452D01*
X86780962Y-104375985D01*
X86782356Y-104375137D01*
X86802038Y-104376781D01*
X86840293Y-104389245D01*
X86889889Y-104410048D01*
X86905728Y-104417462D01*
X86976290Y-104449814D01*
X87056353Y-104484328D01*
X87125629Y-104512365D01*
X87177045Y-104532568D01*
X87216119Y-104548615D01*
X87236541Y-104557888D01*
X87238114Y-104559041D01*
X87240721Y-104576096D01*
X87247863Y-104616298D01*
X87258523Y-104674302D01*
X87271685Y-104744763D01*
X87286333Y-104822335D01*
X87301449Y-104901672D01*
X87316018Y-104977431D01*
X87329022Y-105044264D01*
X87339445Y-105096828D01*
X87346270Y-105129776D01*
X87348199Y-105137857D01*
X87352962Y-105146205D01*
X87363718Y-105152506D01*
X87384098Y-105157045D01*
X87417734Y-105160104D01*
X87468255Y-105161967D01*
X87539292Y-105162918D01*
X87634476Y-105163240D01*
X87673492Y-105163257D01*
X87990799Y-105163257D01*
X88005839Y-105087057D01*
X88013995Y-105044663D01*
X88025899Y-104981400D01*
X88040116Y-104904962D01*
X88055210Y-104823043D01*
X88059355Y-104800400D01*
X88074053Y-104724806D01*
X88088505Y-104658953D01*
X88101375Y-104608366D01*
X88111322Y-104578574D01*
X88114287Y-104573612D01*
X88135283Y-104561426D01*
X88175967Y-104543953D01*
X88228322Y-104524577D01*
X88239600Y-104520734D01*
X88309523Y-104495339D01*
X88388418Y-104463817D01*
X88459266Y-104432969D01*
X88459595Y-104432817D01*
X88570733Y-104381447D01*
X88819253Y-104550399D01*
X89067772Y-104719352D01*
X89285058Y-104502429D01*
X89349726Y-104436819D01*
X89406733Y-104376979D01*
X89453033Y-104326267D01*
X89485584Y-104288046D01*
X89501343Y-104265675D01*
X89502343Y-104262466D01*
X89494469Y-104243626D01*
X89472578Y-104205180D01*
X89439267Y-104151330D01*
X89397131Y-104086276D01*
X89349943Y-104015940D01*
X89301810Y-103944555D01*
X89259928Y-103880908D01*
X89226871Y-103829041D01*
X89205218Y-103792995D01*
X89197543Y-103776867D01*
X89204037Y-103757189D01*
X89221150Y-103719875D01*
X89245326Y-103672621D01*
X89248013Y-103667612D01*
X89279927Y-103603977D01*
X89295579Y-103560341D01*
X89295745Y-103533202D01*
X89281204Y-103519057D01*
X89281000Y-103518975D01*
X89263779Y-103511905D01*
X89222899Y-103495042D01*
X89161525Y-103469695D01*
X89082819Y-103437171D01*
X88989947Y-103398778D01*
X88886072Y-103355822D01*
X88785502Y-103314222D01*
X88674516Y-103268504D01*
X88571703Y-103226526D01*
X88480215Y-103189548D01*
X88403201Y-103158827D01*
X88343815Y-103135622D01*
X88305209Y-103121190D01*
X88290800Y-103116743D01*
X88274272Y-103127896D01*
X88247930Y-103157069D01*
X88218887Y-103195971D01*
X88127039Y-103306757D01*
X88021759Y-103393351D01*
X87905266Y-103454716D01*
X87779776Y-103489815D01*
X87647507Y-103497608D01*
X87586457Y-103491943D01*
X87459795Y-103461078D01*
X87347941Y-103407920D01*
X87252001Y-103335767D01*
X87173076Y-103247917D01*
X87112270Y-103147665D01*
X87070687Y-103038310D01*
X87049428Y-102923147D01*
X87049599Y-102805475D01*
X87072301Y-102688590D01*
X87118638Y-102575789D01*
X87189713Y-102470369D01*
X87229911Y-102426368D01*
X87333129Y-102341979D01*
X87445925Y-102283222D01*
X87565010Y-102249704D01*
X87687095Y-102241035D01*
X87808893Y-102256823D01*
X87927116Y-102296678D01*
X88038475Y-102360207D01*
X88139684Y-102447021D01*
X88218887Y-102544029D01*
X88249162Y-102584437D01*
X88275219Y-102612982D01*
X88290825Y-102623257D01*
X88307843Y-102617877D01*
X88348500Y-102602575D01*
X88409642Y-102578612D01*
X88488119Y-102547244D01*
X88580780Y-102509732D01*
X88684472Y-102467333D01*
X88785526Y-102425663D01*
X88896607Y-102379690D01*
X88999541Y-102337107D01*
X89091165Y-102299221D01*
X89168316Y-102267340D01*
X89227831Y-102242771D01*
X89266544Y-102226820D01*
X89281000Y-102220910D01*
X89295685Y-102206948D01*
X89295642Y-102179940D01*
X89280099Y-102136413D01*
X89248284Y-102072890D01*
X89248013Y-102072388D01*
X89223323Y-102024560D01*
X89205338Y-101985897D01*
X89197614Y-101964095D01*
X89197543Y-101963133D01*
X89205378Y-101946721D01*
X89227165Y-101910487D01*
X89260328Y-101858474D01*
X89302291Y-101794725D01*
X89349943Y-101724060D01*
X89398191Y-101652116D01*
X89440151Y-101587274D01*
X89473227Y-101533735D01*
X89494821Y-101495697D01*
X89502343Y-101477533D01*
X89492457Y-101460808D01*
X89464826Y-101427180D01*
X89422495Y-101380010D01*
X89368505Y-101322658D01*
X89305899Y-101258484D01*
X89284983Y-101237497D01*
X89067623Y-101020499D01*
X88825220Y-101185668D01*
X88750781Y-101235864D01*
X88683972Y-101279919D01*
X88628665Y-101315362D01*
X88588729Y-101339719D01*
X88568036Y-101350522D01*
X88566563Y-101350838D01*
X88547058Y-101345143D01*
X88507822Y-101329826D01*
X88455430Y-101307537D01*
X88420355Y-101291893D01*
X88353201Y-101262641D01*
X88285358Y-101235094D01*
X88228034Y-101213737D01*
X88210572Y-101207935D01*
X88163938Y-101191452D01*
X88127905Y-101175340D01*
X88114287Y-101166490D01*
X88105952Y-101146960D01*
X88094137Y-101104334D01*
X88080181Y-101044145D01*
X88065422Y-100971922D01*
X88059355Y-100939600D01*
X88044273Y-100857522D01*
X88029669Y-100778795D01*
X88016980Y-100711109D01*
X88007642Y-100662160D01*
X88005839Y-100652943D01*
X87990799Y-100576743D01*
X87673492Y-100576743D01*
X87569154Y-100576914D01*
X87490213Y-100577616D01*
X87433038Y-100579134D01*
X87393999Y-100581749D01*
X87369465Y-100585746D01*
X87355805Y-100591409D01*
X87349389Y-100599020D01*
X87348199Y-100602143D01*
X87343980Y-100620978D01*
X87335562Y-100662588D01*
X87323961Y-100721630D01*
X87310195Y-100792757D01*
X87295280Y-100870625D01*
X87280232Y-100949887D01*
X87266069Y-101025198D01*
X87253806Y-101091213D01*
X87244461Y-101142587D01*
X87239050Y-101173975D01*
X87238114Y-101180959D01*
X87225596Y-101187285D01*
X87192246Y-101201290D01*
X87144377Y-101220355D01*
X87125629Y-101227634D01*
X87053195Y-101256996D01*
X86973170Y-101291571D01*
X86905728Y-101322537D01*
X86854159Y-101345323D01*
X86811785Y-101360482D01*
X86785834Y-101365542D01*
X86782356Y-101364736D01*
X86765936Y-101354041D01*
X86729417Y-101329620D01*
X86676687Y-101294095D01*
X86611635Y-101250087D01*
X86538151Y-101200217D01*
X86523645Y-101190356D01*
X86437704Y-101132492D01*
X86372261Y-101089956D01*
X86324304Y-101061054D01*
X86290820Y-101044090D01*
X86268795Y-101037367D01*
X86255217Y-101039190D01*
X86255131Y-101039236D01*
X86237297Y-101053586D01*
X86202817Y-101085323D01*
X86155268Y-101131010D01*
X86098222Y-101187204D01*
X86035255Y-101250468D01*
X86028227Y-101257602D01*
X85951020Y-101337330D01*
X85894330Y-101398857D01*
X85857110Y-101443421D01*
X85838315Y-101472257D01*
X85835889Y-101484958D01*
X85846471Y-101503494D01*
X85870916Y-101541961D01*
X85906612Y-101596386D01*
X85950947Y-101662798D01*
X86001311Y-101737225D01*
X86013160Y-101754601D01*
X86181626Y-102001297D01*
X86131062Y-102112706D01*
X86101595Y-102180457D01*
X86071959Y-102253183D01*
X86048330Y-102315703D01*
X86047358Y-102318457D01*
X86029457Y-102367360D01*
X86014320Y-102405057D01*
X86005210Y-102423425D01*
X86005184Y-102423456D01*
X85988717Y-102429285D01*
X85948219Y-102439192D01*
X85888242Y-102452195D01*
X85813340Y-102467309D01*
X85728064Y-102483552D01*
X85720875Y-102484881D01*
X85633014Y-102501175D01*
X85553260Y-102516133D01*
X85486681Y-102528791D01*
X85438347Y-102538186D01*
X85413325Y-102543354D01*
X85412943Y-102543444D01*
X85402299Y-102546589D01*
X85394262Y-102552704D01*
X85388467Y-102565453D01*
X85384547Y-102588500D01*
X85382135Y-102625509D01*
X85380865Y-102680144D01*
X85380371Y-102756067D01*
X85380286Y-102856944D01*
X85380286Y-102870000D01*
X85380348Y-102973910D01*
G36*
X90104966Y-106023595D02*
X90142497Y-106081021D01*
X90176096Y-106108719D01*
X90237064Y-106130662D01*
X90285308Y-106132405D01*
X90349816Y-106128457D01*
X90414934Y-105979686D01*
X90448202Y-105907349D01*
X90474964Y-105860084D01*
X90498144Y-105835507D01*
X90520667Y-105831237D01*
X90545455Y-105844889D01*
X90561886Y-105859943D01*
X90588235Y-105903746D01*
X90590081Y-105951389D01*
X90569546Y-105995145D01*
X90528752Y-106027289D01*
X90514347Y-106033038D01*
X90469356Y-106060576D01*
X90450182Y-106092258D01*
X90433779Y-106135714D01*
X90495966Y-106135714D01*
X90538283Y-106131872D01*
X90573969Y-106116823D01*
X90614943Y-106085280D01*
X90620267Y-106080592D01*
X90656720Y-106045506D01*
X90676283Y-106015347D01*
X90685283Y-105977615D01*
X90688230Y-105946335D01*
X90688965Y-105890385D01*
X90679660Y-105850555D01*
X90665846Y-105825708D01*
X90635467Y-105786656D01*
X90602613Y-105759625D01*
X90561294Y-105742517D01*
X90505521Y-105733238D01*
X90429305Y-105729693D01*
X90390622Y-105729410D01*
X90344247Y-105730372D01*
X90344247Y-105818007D01*
X90369126Y-105819023D01*
X90373200Y-105821556D01*
X90367665Y-105838274D01*
X90353017Y-105874249D01*
X90332190Y-105922331D01*
X90327714Y-105932386D01*
X90296814Y-105993152D01*
X90269657Y-106026632D01*
X90244220Y-106033990D01*
X90218481Y-106016391D01*
X90207109Y-106001856D01*
X90184364Y-105949410D01*
X90188122Y-105900322D01*
X90215884Y-105859227D01*
X90265152Y-105830758D01*
X90304257Y-105821631D01*
X90344247Y-105818007D01*
X90344247Y-105730372D01*
X90300249Y-105731285D01*
X90233384Y-105738196D01*
X90184695Y-105751884D01*
X90148849Y-105774096D01*
X90120513Y-105806574D01*
X90111355Y-105820733D01*
X90087507Y-105885053D01*
X90086006Y-105955473D01*
X90104966Y-106023595D01*
X90104966Y-106023595D01*
G37*
X90104966Y-106023595D02*
X90142497Y-106081021D01*
X90176096Y-106108719D01*
X90237064Y-106130662D01*
X90285308Y-106132405D01*
X90349816Y-106128457D01*
X90414934Y-105979686D01*
X90448202Y-105907349D01*
X90474964Y-105860084D01*
X90498144Y-105835507D01*
X90520667Y-105831237D01*
X90545455Y-105844889D01*
X90561886Y-105859943D01*
X90588235Y-105903746D01*
X90590081Y-105951389D01*
X90569546Y-105995145D01*
X90528752Y-106027289D01*
X90514347Y-106033038D01*
X90469356Y-106060576D01*
X90450182Y-106092258D01*
X90433779Y-106135714D01*
X90495966Y-106135714D01*
X90538283Y-106131872D01*
X90573969Y-106116823D01*
X90614943Y-106085280D01*
X90620267Y-106080592D01*
X90656720Y-106045506D01*
X90676283Y-106015347D01*
X90685283Y-105977615D01*
X90688230Y-105946335D01*
X90688965Y-105890385D01*
X90679660Y-105850555D01*
X90665846Y-105825708D01*
X90635467Y-105786656D01*
X90602613Y-105759625D01*
X90561294Y-105742517D01*
X90505521Y-105733238D01*
X90429305Y-105729693D01*
X90390622Y-105729410D01*
X90344247Y-105730372D01*
X90344247Y-105818007D01*
X90369126Y-105819023D01*
X90373200Y-105821556D01*
X90367665Y-105838274D01*
X90353017Y-105874249D01*
X90332190Y-105922331D01*
X90327714Y-105932386D01*
X90296814Y-105993152D01*
X90269657Y-106026632D01*
X90244220Y-106033990D01*
X90218481Y-106016391D01*
X90207109Y-106001856D01*
X90184364Y-105949410D01*
X90188122Y-105900322D01*
X90215884Y-105859227D01*
X90265152Y-105830758D01*
X90304257Y-105821631D01*
X90344247Y-105818007D01*
X90344247Y-105730372D01*
X90300249Y-105731285D01*
X90233384Y-105738196D01*
X90184695Y-105751884D01*
X90148849Y-105774096D01*
X90120513Y-105806574D01*
X90111355Y-105820733D01*
X90087507Y-105885053D01*
X90086006Y-105955473D01*
X90104966Y-106023595D01*
G36*
X90096752Y-105522600D02*
X90104334Y-105539948D01*
X90137128Y-105581356D01*
X90184547Y-105616765D01*
X90235151Y-105638664D01*
X90260098Y-105642229D01*
X90294927Y-105630279D01*
X90313357Y-105604067D01*
X90324516Y-105575964D01*
X90326572Y-105563095D01*
X90311649Y-105556829D01*
X90279175Y-105544456D01*
X90264502Y-105539028D01*
X90213744Y-105508590D01*
X90188427Y-105464520D01*
X90189206Y-105408010D01*
X90190203Y-105403825D01*
X90204507Y-105373655D01*
X90232393Y-105351476D01*
X90277287Y-105336327D01*
X90342615Y-105327250D01*
X90431804Y-105323286D01*
X90479261Y-105322914D01*
X90554071Y-105322730D01*
X90605069Y-105321522D01*
X90637471Y-105318309D01*
X90656495Y-105312109D01*
X90667356Y-105301940D01*
X90675272Y-105286819D01*
X90675670Y-105285946D01*
X90687981Y-105256828D01*
X90692514Y-105242403D01*
X90678809Y-105240186D01*
X90640925Y-105238289D01*
X90583715Y-105236847D01*
X90512027Y-105235998D01*
X90459565Y-105235829D01*
X90358047Y-105236692D01*
X90281032Y-105240070D01*
X90224023Y-105247142D01*
X90182526Y-105259088D01*
X90152043Y-105277090D01*
X90128080Y-105302327D01*
X90111355Y-105327247D01*
X90089097Y-105387171D01*
X90084076Y-105456911D01*
X90096752Y-105522600D01*
X90096752Y-105522600D01*
G37*
X90096752Y-105522600D02*
X90104334Y-105539948D01*
X90137128Y-105581356D01*
X90184547Y-105616765D01*
X90235151Y-105638664D01*
X90260098Y-105642229D01*
X90294927Y-105630279D01*
X90313357Y-105604067D01*
X90324516Y-105575964D01*
X90326572Y-105563095D01*
X90311649Y-105556829D01*
X90279175Y-105544456D01*
X90264502Y-105539028D01*
X90213744Y-105508590D01*
X90188427Y-105464520D01*
X90189206Y-105408010D01*
X90190203Y-105403825D01*
X90204507Y-105373655D01*
X90232393Y-105351476D01*
X90277287Y-105336327D01*
X90342615Y-105327250D01*
X90431804Y-105323286D01*
X90479261Y-105322914D01*
X90554071Y-105322730D01*
X90605069Y-105321522D01*
X90637471Y-105318309D01*
X90656495Y-105312109D01*
X90667356Y-105301940D01*
X90675272Y-105286819D01*
X90675670Y-105285946D01*
X90687981Y-105256828D01*
X90692514Y-105242403D01*
X90678809Y-105240186D01*
X90640925Y-105238289D01*
X90583715Y-105236847D01*
X90512027Y-105235998D01*
X90459565Y-105235829D01*
X90358047Y-105236692D01*
X90281032Y-105240070D01*
X90224023Y-105247142D01*
X90182526Y-105259088D01*
X90152043Y-105277090D01*
X90128080Y-105302327D01*
X90111355Y-105327247D01*
X90089097Y-105387171D01*
X90084076Y-105456911D01*
X90096752Y-105522600D01*
G36*
X90094335Y-105014876D02*
X90113344Y-105056667D01*
X90136378Y-105089469D01*
X90162133Y-105113503D01*
X90195358Y-105130097D01*
X90240800Y-105140577D01*
X90303207Y-105146271D01*
X90387327Y-105148507D01*
X90442721Y-105148743D01*
X90658826Y-105148743D01*
X90675670Y-105111774D01*
X90687981Y-105082656D01*
X90692514Y-105068231D01*
X90679025Y-105065472D01*
X90642653Y-105063282D01*
X90589542Y-105061942D01*
X90547372Y-105061657D01*
X90486447Y-105060434D01*
X90438115Y-105057136D01*
X90408518Y-105052321D01*
X90402229Y-105048496D01*
X90408652Y-105022783D01*
X90425125Y-104982418D01*
X90447458Y-104935679D01*
X90471457Y-104890845D01*
X90492930Y-104856193D01*
X90507685Y-104840002D01*
X90507845Y-104839938D01*
X90535152Y-104841330D01*
X90561219Y-104853818D01*
X90582392Y-104875743D01*
X90589474Y-104907743D01*
X90588649Y-104935092D01*
X90588042Y-104973826D01*
X90597116Y-104994158D01*
X90621092Y-105006369D01*
X90625613Y-105007909D01*
X90659806Y-105013203D01*
X90680568Y-104999047D01*
X90690462Y-104962148D01*
X90692292Y-104922289D01*
X90678727Y-104850562D01*
X90659355Y-104813432D01*
X90613845Y-104767576D01*
X90557983Y-104743256D01*
X90498957Y-104741073D01*
X90443953Y-104761629D01*
X90409486Y-104792549D01*
X90390189Y-104823420D01*
X90365759Y-104871942D01*
X90340985Y-104928485D01*
X90337199Y-104937910D01*
X90309791Y-105000019D01*
X90285634Y-105035822D01*
X90261619Y-105047337D01*
X90234635Y-105036580D01*
X90213543Y-105018114D01*
X90187572Y-104974469D01*
X90185624Y-104926446D01*
X90205637Y-104882406D01*
X90245551Y-104850709D01*
X90255848Y-104846549D01*
X90293724Y-104822327D01*
X90321842Y-104786965D01*
X90344917Y-104742343D01*
X90279485Y-104742343D01*
X90239506Y-104744969D01*
X90207997Y-104756230D01*
X90174378Y-104781199D01*
X90148484Y-104805169D01*
X90111817Y-104842441D01*
X90092121Y-104871401D01*
X90084220Y-104902505D01*
X90082914Y-104937713D01*
X90094335Y-105014876D01*
X90094335Y-105014876D01*
G37*
X90094335Y-105014876D02*
X90113344Y-105056667D01*
X90136378Y-105089469D01*
X90162133Y-105113503D01*
X90195358Y-105130097D01*
X90240800Y-105140577D01*
X90303207Y-105146271D01*
X90387327Y-105148507D01*
X90442721Y-105148743D01*
X90658826Y-105148743D01*
X90675670Y-105111774D01*
X90687981Y-105082656D01*
X90692514Y-105068231D01*
X90679025Y-105065472D01*
X90642653Y-105063282D01*
X90589542Y-105061942D01*
X90547372Y-105061657D01*
X90486447Y-105060434D01*
X90438115Y-105057136D01*
X90408518Y-105052321D01*
X90402229Y-105048496D01*
X90408652Y-105022783D01*
X90425125Y-104982418D01*
X90447458Y-104935679D01*
X90471457Y-104890845D01*
X90492930Y-104856193D01*
X90507685Y-104840002D01*
X90507845Y-104839938D01*
X90535152Y-104841330D01*
X90561219Y-104853818D01*
X90582392Y-104875743D01*
X90589474Y-104907743D01*
X90588649Y-104935092D01*
X90588042Y-104973826D01*
X90597116Y-104994158D01*
X90621092Y-105006369D01*
X90625613Y-105007909D01*
X90659806Y-105013203D01*
X90680568Y-104999047D01*
X90690462Y-104962148D01*
X90692292Y-104922289D01*
X90678727Y-104850562D01*
X90659355Y-104813432D01*
X90613845Y-104767576D01*
X90557983Y-104743256D01*
X90498957Y-104741073D01*
X90443953Y-104761629D01*
X90409486Y-104792549D01*
X90390189Y-104823420D01*
X90365759Y-104871942D01*
X90340985Y-104928485D01*
X90337199Y-104937910D01*
X90309791Y-105000019D01*
X90285634Y-105035822D01*
X90261619Y-105047337D01*
X90234635Y-105036580D01*
X90213543Y-105018114D01*
X90187572Y-104974469D01*
X90185624Y-104926446D01*
X90205637Y-104882406D01*
X90245551Y-104850709D01*
X90255848Y-104846549D01*
X90293724Y-104822327D01*
X90321842Y-104786965D01*
X90344917Y-104742343D01*
X90279485Y-104742343D01*
X90239506Y-104744969D01*
X90207997Y-104756230D01*
X90174378Y-104781199D01*
X90148484Y-104805169D01*
X90111817Y-104842441D01*
X90092121Y-104871401D01*
X90084220Y-104902505D01*
X90082914Y-104937713D01*
X90094335Y-105014876D01*
G36*
X90096663Y-104649833D02*
X90134850Y-104652048D01*
X90192886Y-104653784D01*
X90266180Y-104654899D01*
X90343055Y-104655257D01*
X90603196Y-104655257D01*
X90649127Y-104609326D01*
X90677429Y-104577675D01*
X90688893Y-104549890D01*
X90688168Y-104511915D01*
X90686321Y-104496840D01*
X90680948Y-104449726D01*
X90677869Y-104410756D01*
X90677585Y-104401257D01*
X90679445Y-104369233D01*
X90684114Y-104323432D01*
X90686321Y-104305674D01*
X90689735Y-104262057D01*
X90682320Y-104232745D01*
X90659427Y-104203680D01*
X90649127Y-104193188D01*
X90603196Y-104147257D01*
X90116602Y-104147257D01*
X90099758Y-104184226D01*
X90087282Y-104216059D01*
X90082914Y-104234683D01*
X90096718Y-104239458D01*
X90135286Y-104243921D01*
X90194356Y-104247775D01*
X90269663Y-104250722D01*
X90333286Y-104252143D01*
X90583657Y-104256114D01*
X90588556Y-104290759D01*
X90585131Y-104322268D01*
X90574041Y-104337708D01*
X90553308Y-104342023D01*
X90509145Y-104345708D01*
X90447146Y-104348469D01*
X90372909Y-104350012D01*
X90334706Y-104350235D01*
X90114783Y-104350457D01*
X90098849Y-104396166D01*
X90088015Y-104428518D01*
X90082962Y-104446115D01*
X90082914Y-104446623D01*
X90096648Y-104448388D01*
X90134730Y-104450329D01*
X90192482Y-104452282D01*
X90265227Y-104454084D01*
X90333286Y-104455343D01*
X90583657Y-104459314D01*
X90583657Y-104546400D01*
X90355240Y-104550396D01*
X90126822Y-104554392D01*
X90104868Y-104596847D01*
X90089793Y-104628192D01*
X90082951Y-104646744D01*
X90082914Y-104647279D01*
X90096663Y-104649833D01*
X90096663Y-104649833D01*
G37*
X90096663Y-104649833D02*
X90134850Y-104652048D01*
X90192886Y-104653784D01*
X90266180Y-104654899D01*
X90343055Y-104655257D01*
X90603196Y-104655257D01*
X90649127Y-104609326D01*
X90677429Y-104577675D01*
X90688893Y-104549890D01*
X90688168Y-104511915D01*
X90686321Y-104496840D01*
X90680948Y-104449726D01*
X90677869Y-104410756D01*
X90677585Y-104401257D01*
X90679445Y-104369233D01*
X90684114Y-104323432D01*
X90686321Y-104305674D01*
X90689735Y-104262057D01*
X90682320Y-104232745D01*
X90659427Y-104203680D01*
X90649127Y-104193188D01*
X90603196Y-104147257D01*
X90116602Y-104147257D01*
X90099758Y-104184226D01*
X90087282Y-104216059D01*
X90082914Y-104234683D01*
X90096718Y-104239458D01*
X90135286Y-104243921D01*
X90194356Y-104247775D01*
X90269663Y-104250722D01*
X90333286Y-104252143D01*
X90583657Y-104256114D01*
X90588556Y-104290759D01*
X90585131Y-104322268D01*
X90574041Y-104337708D01*
X90553308Y-104342023D01*
X90509145Y-104345708D01*
X90447146Y-104348469D01*
X90372909Y-104350012D01*
X90334706Y-104350235D01*
X90114783Y-104350457D01*
X90098849Y-104396166D01*
X90088015Y-104428518D01*
X90082962Y-104446115D01*
X90082914Y-104446623D01*
X90096648Y-104448388D01*
X90134730Y-104450329D01*
X90192482Y-104452282D01*
X90265227Y-104454084D01*
X90333286Y-104455343D01*
X90583657Y-104459314D01*
X90583657Y-104546400D01*
X90355240Y-104550396D01*
X90126822Y-104554392D01*
X90104868Y-104596847D01*
X90089793Y-104628192D01*
X90082951Y-104646744D01*
X90082914Y-104647279D01*
X90096663Y-104649833D01*
G36*
X90203358Y-104060117D02*
X90311837Y-104059933D01*
X90395287Y-104059219D01*
X90457704Y-104057675D01*
X90503085Y-104055001D01*
X90535429Y-104050894D01*
X90558733Y-104045055D01*
X90576995Y-104037182D01*
X90587418Y-104031221D01*
X90643945Y-103981855D01*
X90679377Y-103919264D01*
X90692090Y-103850013D01*
X90680463Y-103780668D01*
X90659568Y-103739375D01*
X90623422Y-103696025D01*
X90579276Y-103666481D01*
X90521462Y-103648655D01*
X90444313Y-103640463D01*
X90387714Y-103639302D01*
X90383647Y-103639458D01*
X90383647Y-103740857D01*
X90448550Y-103741476D01*
X90491514Y-103744314D01*
X90519622Y-103750840D01*
X90539953Y-103762523D01*
X90555288Y-103776483D01*
X90584890Y-103823365D01*
X90587419Y-103873701D01*
X90562705Y-103921276D01*
X90559356Y-103924979D01*
X90541935Y-103940783D01*
X90521209Y-103950693D01*
X90490362Y-103956058D01*
X90442577Y-103958228D01*
X90389748Y-103958571D01*
X90323381Y-103957827D01*
X90279106Y-103954748D01*
X90250009Y-103948061D01*
X90229173Y-103936496D01*
X90218107Y-103927013D01*
X90190198Y-103882960D01*
X90186843Y-103832224D01*
X90208159Y-103783796D01*
X90216073Y-103774450D01*
X90233647Y-103758540D01*
X90254587Y-103748610D01*
X90285782Y-103743278D01*
X90334122Y-103741163D01*
X90383647Y-103740857D01*
X90383647Y-103639458D01*
X90296568Y-103642810D01*
X90228086Y-103654726D01*
X90176600Y-103677135D01*
X90136443Y-103712124D01*
X90115861Y-103739375D01*
X90093625Y-103788907D01*
X90083304Y-103846316D01*
X90086067Y-103899682D01*
X90097212Y-103929543D01*
X90100383Y-103941261D01*
X90088557Y-103949037D01*
X90056866Y-103954465D01*
X90008593Y-103958571D01*
X89954829Y-103963067D01*
X89922482Y-103969313D01*
X89903985Y-103980676D01*
X89891770Y-104000528D01*
X89886362Y-104013000D01*
X89866601Y-104060171D01*
X90203358Y-104060117D01*
X90203358Y-104060117D01*
G37*
X90203358Y-104060117D02*
X90311837Y-104059933D01*
X90395287Y-104059219D01*
X90457704Y-104057675D01*
X90503085Y-104055001D01*
X90535429Y-104050894D01*
X90558733Y-104045055D01*
X90576995Y-104037182D01*
X90587418Y-104031221D01*
X90643945Y-103981855D01*
X90679377Y-103919264D01*
X90692090Y-103850013D01*
X90680463Y-103780668D01*
X90659568Y-103739375D01*
X90623422Y-103696025D01*
X90579276Y-103666481D01*
X90521462Y-103648655D01*
X90444313Y-103640463D01*
X90387714Y-103639302D01*
X90383647Y-103639458D01*
X90383647Y-103740857D01*
X90448550Y-103741476D01*
X90491514Y-103744314D01*
X90519622Y-103750840D01*
X90539953Y-103762523D01*
X90555288Y-103776483D01*
X90584890Y-103823365D01*
X90587419Y-103873701D01*
X90562705Y-103921276D01*
X90559356Y-103924979D01*
X90541935Y-103940783D01*
X90521209Y-103950693D01*
X90490362Y-103956058D01*
X90442577Y-103958228D01*
X90389748Y-103958571D01*
X90323381Y-103957827D01*
X90279106Y-103954748D01*
X90250009Y-103948061D01*
X90229173Y-103936496D01*
X90218107Y-103927013D01*
X90190198Y-103882960D01*
X90186843Y-103832224D01*
X90208159Y-103783796D01*
X90216073Y-103774450D01*
X90233647Y-103758540D01*
X90254587Y-103748610D01*
X90285782Y-103743278D01*
X90334122Y-103741163D01*
X90383647Y-103740857D01*
X90383647Y-103639458D01*
X90296568Y-103642810D01*
X90228086Y-103654726D01*
X90176600Y-103677135D01*
X90136443Y-103712124D01*
X90115861Y-103739375D01*
X90093625Y-103788907D01*
X90083304Y-103846316D01*
X90086067Y-103899682D01*
X90097212Y-103929543D01*
X90100383Y-103941261D01*
X90088557Y-103949037D01*
X90056866Y-103954465D01*
X90008593Y-103958571D01*
X89954829Y-103963067D01*
X89922482Y-103969313D01*
X89903985Y-103980676D01*
X89891770Y-104000528D01*
X89886362Y-104013000D01*
X89866601Y-104060171D01*
X90203358Y-104060117D01*
G36*
X90087755Y-103399926D02*
X90112084Y-103465858D01*
X90155117Y-103519273D01*
X90185409Y-103540164D01*
X90240994Y-103562939D01*
X90281186Y-103562466D01*
X90308217Y-103538562D01*
X90312813Y-103529717D01*
X90327144Y-103491530D01*
X90323472Y-103472028D01*
X90299407Y-103465422D01*
X90286114Y-103465086D01*
X90237210Y-103452992D01*
X90202999Y-103421471D01*
X90186476Y-103377659D01*
X90190634Y-103328695D01*
X90212227Y-103288894D01*
X90224544Y-103275450D01*
X90239487Y-103265921D01*
X90262075Y-103259485D01*
X90297328Y-103255317D01*
X90350266Y-103252597D01*
X90425907Y-103250502D01*
X90449857Y-103249960D01*
X90531790Y-103247981D01*
X90589455Y-103245731D01*
X90627608Y-103242357D01*
X90651004Y-103237006D01*
X90664398Y-103228824D01*
X90672545Y-103216959D01*
X90676144Y-103209362D01*
X90688452Y-103177102D01*
X90692514Y-103158111D01*
X90678948Y-103151836D01*
X90637934Y-103148006D01*
X90568999Y-103146600D01*
X90471669Y-103147598D01*
X90456657Y-103147908D01*
X90367859Y-103150101D01*
X90303019Y-103152693D01*
X90257067Y-103156382D01*
X90224935Y-103161864D01*
X90201553Y-103169835D01*
X90181852Y-103180993D01*
X90173410Y-103186830D01*
X90136057Y-103220296D01*
X90107003Y-103257727D01*
X90104467Y-103262309D01*
X90084443Y-103329426D01*
X90087755Y-103399926D01*
X90087755Y-103399926D01*
G37*
X90087755Y-103399926D02*
X90112084Y-103465858D01*
X90155117Y-103519273D01*
X90185409Y-103540164D01*
X90240994Y-103562939D01*
X90281186Y-103562466D01*
X90308217Y-103538562D01*
X90312813Y-103529717D01*
X90327144Y-103491530D01*
X90323472Y-103472028D01*
X90299407Y-103465422D01*
X90286114Y-103465086D01*
X90237210Y-103452992D01*
X90202999Y-103421471D01*
X90186476Y-103377659D01*
X90190634Y-103328695D01*
X90212227Y-103288894D01*
X90224544Y-103275450D01*
X90239487Y-103265921D01*
X90262075Y-103259485D01*
X90297328Y-103255317D01*
X90350266Y-103252597D01*
X90425907Y-103250502D01*
X90449857Y-103249960D01*
X90531790Y-103247981D01*
X90589455Y-103245731D01*
X90627608Y-103242357D01*
X90651004Y-103237006D01*
X90664398Y-103228824D01*
X90672545Y-103216959D01*
X90676144Y-103209362D01*
X90688452Y-103177102D01*
X90692514Y-103158111D01*
X90678948Y-103151836D01*
X90637934Y-103148006D01*
X90568999Y-103146600D01*
X90471669Y-103147598D01*
X90456657Y-103147908D01*
X90367859Y-103150101D01*
X90303019Y-103152693D01*
X90257067Y-103156382D01*
X90224935Y-103161864D01*
X90201553Y-103169835D01*
X90181852Y-103180993D01*
X90173410Y-103186830D01*
X90136057Y-103220296D01*
X90107003Y-103257727D01*
X90104467Y-103262309D01*
X90084443Y-103329426D01*
X90087755Y-103399926D01*
G36*
X90088968Y-102909744D02*
X90110087Y-102966616D01*
X90110493Y-102967267D01*
X90136380Y-103002440D01*
X90166633Y-103028407D01*
X90206058Y-103046670D01*
X90259462Y-103058732D01*
X90331651Y-103066096D01*
X90427432Y-103070264D01*
X90441078Y-103070629D01*
X90646842Y-103075876D01*
X90669678Y-103031716D01*
X90685110Y-102999763D01*
X90692423Y-102980470D01*
X90692514Y-102979578D01*
X90679022Y-102976239D01*
X90642626Y-102973587D01*
X90589452Y-102971956D01*
X90546393Y-102971600D01*
X90476641Y-102971592D01*
X90432837Y-102968403D01*
X90411944Y-102957288D01*
X90410925Y-102933501D01*
X90426741Y-102892296D01*
X90455815Y-102830086D01*
X90479963Y-102784341D01*
X90500913Y-102760813D01*
X90523747Y-102753896D01*
X90524877Y-102753886D01*
X90564212Y-102765299D01*
X90585462Y-102799092D01*
X90588539Y-102850809D01*
X90588006Y-102888061D01*
X90598735Y-102907703D01*
X90624505Y-102919952D01*
X90657337Y-102927002D01*
X90675966Y-102916842D01*
X90678632Y-102913017D01*
X90689340Y-102877001D01*
X90690856Y-102826566D01*
X90683759Y-102774626D01*
X90670788Y-102737822D01*
X90627585Y-102686938D01*
X90567446Y-102658014D01*
X90520462Y-102652286D01*
X90478082Y-102656657D01*
X90443488Y-102672475D01*
X90412763Y-102703797D01*
X90381990Y-102754678D01*
X90347252Y-102829176D01*
X90345288Y-102833714D01*
X90314287Y-102900821D01*
X90288862Y-102942232D01*
X90266014Y-102959981D01*
X90242745Y-102956107D01*
X90216056Y-102932643D01*
X90209914Y-102925627D01*
X90186100Y-102878630D01*
X90187103Y-102829933D01*
X90210451Y-102787522D01*
X90253675Y-102759384D01*
X90262160Y-102756769D01*
X90303308Y-102731308D01*
X90323128Y-102699001D01*
X90342770Y-102652286D01*
X90291950Y-102652286D01*
X90218082Y-102666496D01*
X90150327Y-102708675D01*
X90127661Y-102730624D01*
X90098569Y-102780517D01*
X90085400Y-102843967D01*
X90088968Y-102909744D01*
X90088968Y-102909744D01*
G37*
X90088968Y-102909744D02*
X90110087Y-102966616D01*
X90110493Y-102967267D01*
X90136380Y-103002440D01*
X90166633Y-103028407D01*
X90206058Y-103046670D01*
X90259462Y-103058732D01*
X90331651Y-103066096D01*
X90427432Y-103070264D01*
X90441078Y-103070629D01*
X90646842Y-103075876D01*
X90669678Y-103031716D01*
X90685110Y-102999763D01*
X90692423Y-102980470D01*
X90692514Y-102979578D01*
X90679022Y-102976239D01*
X90642626Y-102973587D01*
X90589452Y-102971956D01*
X90546393Y-102971600D01*
X90476641Y-102971592D01*
X90432837Y-102968403D01*
X90411944Y-102957288D01*
X90410925Y-102933501D01*
X90426741Y-102892296D01*
X90455815Y-102830086D01*
X90479963Y-102784341D01*
X90500913Y-102760813D01*
X90523747Y-102753896D01*
X90524877Y-102753886D01*
X90564212Y-102765299D01*
X90585462Y-102799092D01*
X90588539Y-102850809D01*
X90588006Y-102888061D01*
X90598735Y-102907703D01*
X90624505Y-102919952D01*
X90657337Y-102927002D01*
X90675966Y-102916842D01*
X90678632Y-102913017D01*
X90689340Y-102877001D01*
X90690856Y-102826566D01*
X90683759Y-102774626D01*
X90670788Y-102737822D01*
X90627585Y-102686938D01*
X90567446Y-102658014D01*
X90520462Y-102652286D01*
X90478082Y-102656657D01*
X90443488Y-102672475D01*
X90412763Y-102703797D01*
X90381990Y-102754678D01*
X90347252Y-102829176D01*
X90345288Y-102833714D01*
X90314287Y-102900821D01*
X90288862Y-102942232D01*
X90266014Y-102959981D01*
X90242745Y-102956107D01*
X90216056Y-102932643D01*
X90209914Y-102925627D01*
X90186100Y-102878630D01*
X90187103Y-102829933D01*
X90210451Y-102787522D01*
X90253675Y-102759384D01*
X90262160Y-102756769D01*
X90303308Y-102731308D01*
X90323128Y-102699001D01*
X90342770Y-102652286D01*
X90291950Y-102652286D01*
X90218082Y-102666496D01*
X90150327Y-102708675D01*
X90127661Y-102730624D01*
X90098569Y-102780517D01*
X90085400Y-102843967D01*
X90088968Y-102909744D01*
G36*
X89989289Y-102245886D02*
X90048613Y-102250139D01*
X90083572Y-102255025D01*
X90098820Y-102261795D01*
X90099015Y-102271702D01*
X90097195Y-102274914D01*
X90084015Y-102317644D01*
X90084785Y-102373227D01*
X90098333Y-102429737D01*
X90115861Y-102465082D01*
X90143861Y-102501321D01*
X90175549Y-102527813D01*
X90215813Y-102545999D01*
X90269543Y-102557322D01*
X90341626Y-102563222D01*
X90436951Y-102565143D01*
X90455237Y-102565177D01*
X90660646Y-102565200D01*
X90676580Y-102519491D01*
X90687420Y-102487027D01*
X90692468Y-102469215D01*
X90692514Y-102468691D01*
X90678828Y-102466937D01*
X90641076Y-102465444D01*
X90584224Y-102464326D01*
X90513234Y-102463697D01*
X90470073Y-102463600D01*
X90384973Y-102463398D01*
X90323981Y-102462358D01*
X90282177Y-102459831D01*
X90254642Y-102455164D01*
X90236456Y-102447707D01*
X90222698Y-102436811D01*
X90216073Y-102430007D01*
X90189375Y-102383272D01*
X90187375Y-102332272D01*
X90209955Y-102286001D01*
X90218107Y-102277444D01*
X90233436Y-102264893D01*
X90251618Y-102256188D01*
X90277909Y-102250631D01*
X90317562Y-102247526D01*
X90375832Y-102246176D01*
X90456173Y-102245886D01*
X90660646Y-102245886D01*
X90676580Y-102200177D01*
X90687420Y-102167713D01*
X90692468Y-102149901D01*
X90692514Y-102149377D01*
X90678623Y-102148037D01*
X90639439Y-102146828D01*
X90578700Y-102145801D01*
X90500141Y-102145002D01*
X90407498Y-102144481D01*
X90304509Y-102144286D01*
X89907342Y-102144286D01*
X89887444Y-102191457D01*
X89867547Y-102238629D01*
X89989289Y-102245886D01*
X89989289Y-102245886D01*
G37*
X89989289Y-102245886D02*
X90048613Y-102250139D01*
X90083572Y-102255025D01*
X90098820Y-102261795D01*
X90099015Y-102271702D01*
X90097195Y-102274914D01*
X90084015Y-102317644D01*
X90084785Y-102373227D01*
X90098333Y-102429737D01*
X90115861Y-102465082D01*
X90143861Y-102501321D01*
X90175549Y-102527813D01*
X90215813Y-102545999D01*
X90269543Y-102557322D01*
X90341626Y-102563222D01*
X90436951Y-102565143D01*
X90455237Y-102565177D01*
X90660646Y-102565200D01*
X90676580Y-102519491D01*
X90687420Y-102487027D01*
X90692468Y-102469215D01*
X90692514Y-102468691D01*
X90678828Y-102466937D01*
X90641076Y-102465444D01*
X90584224Y-102464326D01*
X90513234Y-102463697D01*
X90470073Y-102463600D01*
X90384973Y-102463398D01*
X90323981Y-102462358D01*
X90282177Y-102459831D01*
X90254642Y-102455164D01*
X90236456Y-102447707D01*
X90222698Y-102436811D01*
X90216073Y-102430007D01*
X90189375Y-102383272D01*
X90187375Y-102332272D01*
X90209955Y-102286001D01*
X90218107Y-102277444D01*
X90233436Y-102264893D01*
X90251618Y-102256188D01*
X90277909Y-102250631D01*
X90317562Y-102247526D01*
X90375832Y-102246176D01*
X90456173Y-102245886D01*
X90660646Y-102245886D01*
X90676580Y-102200177D01*
X90687420Y-102167713D01*
X90692468Y-102149901D01*
X90692514Y-102149377D01*
X90678623Y-102148037D01*
X90639439Y-102146828D01*
X90578700Y-102145801D01*
X90500141Y-102145002D01*
X90407498Y-102144481D01*
X90304509Y-102144286D01*
X89907342Y-102144286D01*
X89887444Y-102191457D01*
X89867547Y-102238629D01*
X89989289Y-102245886D01*
G36*
X90069239Y-101038303D02*
X90107735Y-101095527D01*
X90163335Y-101139749D01*
X90234086Y-101166167D01*
X90286162Y-101171510D01*
X90307893Y-101170903D01*
X90324531Y-101165822D01*
X90339437Y-101151855D01*
X90355973Y-101124589D01*
X90377498Y-101079612D01*
X90407374Y-101012511D01*
X90407524Y-101012171D01*
X90435813Y-100950407D01*
X90460933Y-100899759D01*
X90480179Y-100865404D01*
X90490848Y-100852518D01*
X90490934Y-100852514D01*
X90514166Y-100863872D01*
X90539774Y-100890431D01*
X90558221Y-100920923D01*
X90561886Y-100936370D01*
X90549212Y-100978515D01*
X90517471Y-101014808D01*
X90482572Y-101032517D01*
X90456845Y-101049552D01*
X90427546Y-101082922D01*
X90402235Y-101122149D01*
X90388471Y-101156756D01*
X90387714Y-101163993D01*
X90400160Y-101172139D01*
X90431972Y-101172630D01*
X90474866Y-101166643D01*
X90520558Y-101155357D01*
X90560761Y-101139950D01*
X90562322Y-101139171D01*
X90627062Y-101092804D01*
X90671097Y-101032711D01*
X90692711Y-100964465D01*
X90690185Y-100893638D01*
X90661804Y-100825804D01*
X90659808Y-100822788D01*
X90611448Y-100769427D01*
X90548352Y-100734340D01*
X90465387Y-100714922D01*
X90442078Y-100712316D01*
X90332055Y-100707701D01*
X90280748Y-100713233D01*
X90280748Y-100852514D01*
X90312753Y-100854324D01*
X90322093Y-100864222D01*
X90315105Y-100888898D01*
X90298587Y-100927795D01*
X90277881Y-100971275D01*
X90277333Y-100972356D01*
X90257949Y-101009209D01*
X90245013Y-101024000D01*
X90231451Y-101020353D01*
X90213632Y-101004995D01*
X90187845Y-100965923D01*
X90185950Y-100923846D01*
X90204717Y-100886103D01*
X90240915Y-100860034D01*
X90280748Y-100852514D01*
X90280748Y-100713233D01*
X90244027Y-100717194D01*
X90174212Y-100741550D01*
X90125302Y-100775456D01*
X90075878Y-100836653D01*
X90051359Y-100904063D01*
X90049797Y-100972880D01*
X90069239Y-101038303D01*
X90069239Y-101038303D01*
G37*
X90069239Y-101038303D02*
X90107735Y-101095527D01*
X90163335Y-101139749D01*
X90234086Y-101166167D01*
X90286162Y-101171510D01*
X90307893Y-101170903D01*
X90324531Y-101165822D01*
X90339437Y-101151855D01*
X90355973Y-101124589D01*
X90377498Y-101079612D01*
X90407374Y-101012511D01*
X90407524Y-101012171D01*
X90435813Y-100950407D01*
X90460933Y-100899759D01*
X90480179Y-100865404D01*
X90490848Y-100852518D01*
X90490934Y-100852514D01*
X90514166Y-100863872D01*
X90539774Y-100890431D01*
X90558221Y-100920923D01*
X90561886Y-100936370D01*
X90549212Y-100978515D01*
X90517471Y-101014808D01*
X90482572Y-101032517D01*
X90456845Y-101049552D01*
X90427546Y-101082922D01*
X90402235Y-101122149D01*
X90388471Y-101156756D01*
X90387714Y-101163993D01*
X90400160Y-101172139D01*
X90431972Y-101172630D01*
X90474866Y-101166643D01*
X90520558Y-101155357D01*
X90560761Y-101139950D01*
X90562322Y-101139171D01*
X90627062Y-101092804D01*
X90671097Y-101032711D01*
X90692711Y-100964465D01*
X90690185Y-100893638D01*
X90661804Y-100825804D01*
X90659808Y-100822788D01*
X90611448Y-100769427D01*
X90548352Y-100734340D01*
X90465387Y-100714922D01*
X90442078Y-100712316D01*
X90332055Y-100707701D01*
X90280748Y-100713233D01*
X90280748Y-100852514D01*
X90312753Y-100854324D01*
X90322093Y-100864222D01*
X90315105Y-100888898D01*
X90298587Y-100927795D01*
X90277881Y-100971275D01*
X90277333Y-100972356D01*
X90257949Y-101009209D01*
X90245013Y-101024000D01*
X90231451Y-101020353D01*
X90213632Y-101004995D01*
X90187845Y-100965923D01*
X90185950Y-100923846D01*
X90204717Y-100886103D01*
X90240915Y-100860034D01*
X90280748Y-100852514D01*
X90280748Y-100713233D01*
X90244027Y-100717194D01*
X90174212Y-100741550D01*
X90125302Y-100775456D01*
X90075878Y-100836653D01*
X90051359Y-100904063D01*
X90049797Y-100972880D01*
X90069239Y-101038303D01*
G36*
X90059962Y-99911115D02*
X90095733Y-99979145D01*
X90153301Y-100029351D01*
X90190312Y-100047185D01*
X90245882Y-100061063D01*
X90316096Y-100068167D01*
X90392727Y-100068840D01*
X90467552Y-100063427D01*
X90532342Y-100052270D01*
X90578873Y-100035714D01*
X90586887Y-100030626D01*
X90646707Y-99970355D01*
X90682535Y-99898769D01*
X90693020Y-99821092D01*
X90676810Y-99742548D01*
X90667092Y-99720689D01*
X90637143Y-99678122D01*
X90597433Y-99640763D01*
X90592397Y-99637232D01*
X90568124Y-99622881D01*
X90542178Y-99613394D01*
X90508022Y-99607790D01*
X90459119Y-99605086D01*
X90388935Y-99604299D01*
X90373200Y-99604286D01*
X90368192Y-99604322D01*
X90368192Y-99749429D01*
X90434430Y-99750273D01*
X90478386Y-99753596D01*
X90506779Y-99760583D01*
X90526325Y-99772416D01*
X90532857Y-99778457D01*
X90557680Y-99813186D01*
X90556548Y-99846903D01*
X90535016Y-99880995D01*
X90512029Y-99901329D01*
X90478478Y-99913371D01*
X90425569Y-99920134D01*
X90419399Y-99920598D01*
X90323513Y-99921752D01*
X90252299Y-99909688D01*
X90206194Y-99884570D01*
X90185635Y-99846560D01*
X90184514Y-99832992D01*
X90190152Y-99797364D01*
X90209686Y-99772994D01*
X90247042Y-99758093D01*
X90306150Y-99750875D01*
X90368192Y-99749429D01*
X90368192Y-99604322D01*
X90298413Y-99604826D01*
X90246159Y-99607096D01*
X90209949Y-99612068D01*
X90183299Y-99620713D01*
X90159722Y-99634005D01*
X90155338Y-99636943D01*
X90096249Y-99686313D01*
X90061947Y-99740109D01*
X90048331Y-99805602D01*
X90047665Y-99827842D01*
X90059962Y-99911115D01*
X90059962Y-99911115D01*
G37*
X90059962Y-99911115D02*
X90095733Y-99979145D01*
X90153301Y-100029351D01*
X90190312Y-100047185D01*
X90245882Y-100061063D01*
X90316096Y-100068167D01*
X90392727Y-100068840D01*
X90467552Y-100063427D01*
X90532342Y-100052270D01*
X90578873Y-100035714D01*
X90586887Y-100030626D01*
X90646707Y-99970355D01*
X90682535Y-99898769D01*
X90693020Y-99821092D01*
X90676810Y-99742548D01*
X90667092Y-99720689D01*
X90637143Y-99678122D01*
X90597433Y-99640763D01*
X90592397Y-99637232D01*
X90568124Y-99622881D01*
X90542178Y-99613394D01*
X90508022Y-99607790D01*
X90459119Y-99605086D01*
X90388935Y-99604299D01*
X90373200Y-99604286D01*
X90368192Y-99604322D01*
X90368192Y-99749429D01*
X90434430Y-99750273D01*
X90478386Y-99753596D01*
X90506779Y-99760583D01*
X90526325Y-99772416D01*
X90532857Y-99778457D01*
X90557680Y-99813186D01*
X90556548Y-99846903D01*
X90535016Y-99880995D01*
X90512029Y-99901329D01*
X90478478Y-99913371D01*
X90425569Y-99920134D01*
X90419399Y-99920598D01*
X90323513Y-99921752D01*
X90252299Y-99909688D01*
X90206194Y-99884570D01*
X90185635Y-99846560D01*
X90184514Y-99832992D01*
X90190152Y-99797364D01*
X90209686Y-99772994D01*
X90247042Y-99758093D01*
X90306150Y-99750875D01*
X90368192Y-99749429D01*
X90368192Y-99604322D01*
X90298413Y-99604826D01*
X90246159Y-99607096D01*
X90209949Y-99612068D01*
X90183299Y-99620713D01*
X90159722Y-99634005D01*
X90155338Y-99636943D01*
X90096249Y-99686313D01*
X90061947Y-99740109D01*
X90048331Y-99805602D01*
X90047665Y-99827842D01*
X90059962Y-99911115D01*
G36*
X90065780Y-101586093D02*
X90092723Y-101632672D01*
X90119466Y-101665057D01*
X90147484Y-101688742D01*
X90181748Y-101705059D01*
X90227227Y-101715339D01*
X90288892Y-101720914D01*
X90371711Y-101723116D01*
X90431246Y-101723371D01*
X90650391Y-101723371D01*
X90678044Y-101661686D01*
X90705697Y-101600000D01*
X90465670Y-101592743D01*
X90376028Y-101589744D01*
X90310962Y-101586598D01*
X90266026Y-101582701D01*
X90236770Y-101577447D01*
X90218748Y-101570231D01*
X90207511Y-101560450D01*
X90205079Y-101557312D01*
X90186083Y-101509761D01*
X90193600Y-101461697D01*
X90213543Y-101433086D01*
X90227675Y-101421447D01*
X90246220Y-101413391D01*
X90274334Y-101408271D01*
X90317173Y-101405441D01*
X90379895Y-101404256D01*
X90445261Y-101404057D01*
X90527268Y-101404018D01*
X90585316Y-101402614D01*
X90624465Y-101397914D01*
X90649780Y-101387987D01*
X90666323Y-101370903D01*
X90679156Y-101344732D01*
X90692491Y-101309775D01*
X90707007Y-101271596D01*
X90449389Y-101276141D01*
X90356519Y-101277971D01*
X90287889Y-101280112D01*
X90238711Y-101283181D01*
X90204198Y-101287794D01*
X90179562Y-101294568D01*
X90160016Y-101304119D01*
X90142770Y-101315634D01*
X90087680Y-101371190D01*
X90055822Y-101438980D01*
X90048191Y-101512713D01*
X90065780Y-101586093D01*
X90065780Y-101586093D01*
G37*
X90065780Y-101586093D02*
X90092723Y-101632672D01*
X90119466Y-101665057D01*
X90147484Y-101688742D01*
X90181748Y-101705059D01*
X90227227Y-101715339D01*
X90288892Y-101720914D01*
X90371711Y-101723116D01*
X90431246Y-101723371D01*
X90650391Y-101723371D01*
X90678044Y-101661686D01*
X90705697Y-101600000D01*
X90465670Y-101592743D01*
X90376028Y-101589744D01*
X90310962Y-101586598D01*
X90266026Y-101582701D01*
X90236770Y-101577447D01*
X90218748Y-101570231D01*
X90207511Y-101560450D01*
X90205079Y-101557312D01*
X90186083Y-101509761D01*
X90193600Y-101461697D01*
X90213543Y-101433086D01*
X90227675Y-101421447D01*
X90246220Y-101413391D01*
X90274334Y-101408271D01*
X90317173Y-101405441D01*
X90379895Y-101404256D01*
X90445261Y-101404057D01*
X90527268Y-101404018D01*
X90585316Y-101402614D01*
X90624465Y-101397914D01*
X90649780Y-101387987D01*
X90666323Y-101370903D01*
X90679156Y-101344732D01*
X90692491Y-101309775D01*
X90707007Y-101271596D01*
X90449389Y-101276141D01*
X90356519Y-101277971D01*
X90287889Y-101280112D01*
X90238711Y-101283181D01*
X90204198Y-101287794D01*
X90179562Y-101294568D01*
X90160016Y-101304119D01*
X90142770Y-101315634D01*
X90087680Y-101371190D01*
X90055822Y-101438980D01*
X90048191Y-101512713D01*
X90065780Y-101586093D01*
G36*
X90057918Y-100469744D02*
X90085568Y-100525201D01*
X90136480Y-100574148D01*
X90155338Y-100587629D01*
X90180015Y-100602314D01*
X90206816Y-100611842D01*
X90242587Y-100617293D01*
X90294169Y-100619747D01*
X90362267Y-100620286D01*
X90455588Y-100617852D01*
X90525657Y-100609394D01*
X90577931Y-100593174D01*
X90617869Y-100567454D01*
X90650929Y-100530497D01*
X90652886Y-100527782D01*
X90672908Y-100491360D01*
X90682815Y-100447502D01*
X90685257Y-100391724D01*
X90685257Y-100301048D01*
X90773283Y-100301010D01*
X90822308Y-100300166D01*
X90851065Y-100295024D01*
X90868311Y-100281587D01*
X90882808Y-100255858D01*
X90885769Y-100249679D01*
X90899648Y-100220764D01*
X90908414Y-100198376D01*
X90909171Y-100181729D01*
X90899023Y-100170036D01*
X90875073Y-100162510D01*
X90834426Y-100158366D01*
X90774186Y-100156815D01*
X90691455Y-100157071D01*
X90583339Y-100158349D01*
X90551000Y-100158748D01*
X90439524Y-100160185D01*
X90366603Y-100161472D01*
X90366603Y-100300971D01*
X90428499Y-100301755D01*
X90468997Y-100305240D01*
X90495708Y-100313124D01*
X90516244Y-100327105D01*
X90526260Y-100336597D01*
X90555567Y-100375404D01*
X90557952Y-100409763D01*
X90533750Y-100445216D01*
X90532857Y-100446114D01*
X90514153Y-100460539D01*
X90488732Y-100469313D01*
X90449584Y-100473739D01*
X90389697Y-100475118D01*
X90376430Y-100475143D01*
X90293901Y-100471812D01*
X90236691Y-100460969D01*
X90201766Y-100441340D01*
X90186094Y-100411650D01*
X90184514Y-100394491D01*
X90191926Y-100353766D01*
X90216330Y-100325832D01*
X90260980Y-100309017D01*
X90329130Y-100301650D01*
X90366603Y-100300971D01*
X90366603Y-100161472D01*
X90353245Y-100161708D01*
X90288333Y-100163677D01*
X90240958Y-100166450D01*
X90207290Y-100170388D01*
X90183498Y-100175849D01*
X90165753Y-100183192D01*
X90150224Y-100192777D01*
X90144381Y-100196887D01*
X90089185Y-100251405D01*
X90057890Y-100320336D01*
X90049165Y-100400072D01*
X90057918Y-100469744D01*
X90057918Y-100469744D01*
G37*
X90057918Y-100469744D02*
X90085568Y-100525201D01*
X90136480Y-100574148D01*
X90155338Y-100587629D01*
X90180015Y-100602314D01*
X90206816Y-100611842D01*
X90242587Y-100617293D01*
X90294169Y-100619747D01*
X90362267Y-100620286D01*
X90455588Y-100617852D01*
X90525657Y-100609394D01*
X90577931Y-100593174D01*
X90617869Y-100567454D01*
X90650929Y-100530497D01*
X90652886Y-100527782D01*
X90672908Y-100491360D01*
X90682815Y-100447502D01*
X90685257Y-100391724D01*
X90685257Y-100301048D01*
X90773283Y-100301010D01*
X90822308Y-100300166D01*
X90851065Y-100295024D01*
X90868311Y-100281587D01*
X90882808Y-100255858D01*
X90885769Y-100249679D01*
X90899648Y-100220764D01*
X90908414Y-100198376D01*
X90909171Y-100181729D01*
X90899023Y-100170036D01*
X90875073Y-100162510D01*
X90834426Y-100158366D01*
X90774186Y-100156815D01*
X90691455Y-100157071D01*
X90583339Y-100158349D01*
X90551000Y-100158748D01*
X90439524Y-100160185D01*
X90366603Y-100161472D01*
X90366603Y-100300971D01*
X90428499Y-100301755D01*
X90468997Y-100305240D01*
X90495708Y-100313124D01*
X90516244Y-100327105D01*
X90526260Y-100336597D01*
X90555567Y-100375404D01*
X90557952Y-100409763D01*
X90533750Y-100445216D01*
X90532857Y-100446114D01*
X90514153Y-100460539D01*
X90488732Y-100469313D01*
X90449584Y-100473739D01*
X90389697Y-100475118D01*
X90376430Y-100475143D01*
X90293901Y-100471812D01*
X90236691Y-100460969D01*
X90201766Y-100441340D01*
X90186094Y-100411650D01*
X90184514Y-100394491D01*
X90191926Y-100353766D01*
X90216330Y-100325832D01*
X90260980Y-100309017D01*
X90329130Y-100301650D01*
X90366603Y-100300971D01*
X90366603Y-100161472D01*
X90353245Y-100161708D01*
X90288333Y-100163677D01*
X90240958Y-100166450D01*
X90207290Y-100170388D01*
X90183498Y-100175849D01*
X90165753Y-100183192D01*
X90150224Y-100192777D01*
X90144381Y-100196887D01*
X90089185Y-100251405D01*
X90057890Y-100320336D01*
X90049165Y-100400072D01*
X90057918Y-100469744D01*
G04 #@! TO.C,M1*
D11*
X64206380Y-110442476D02*
X63206380Y-110442476D01*
X63920666Y-110775809D01*
X63206380Y-111109142D01*
X64206380Y-111109142D01*
X64206380Y-112109142D02*
X64206380Y-111537714D01*
X64206380Y-111823428D02*
X63206380Y-111823428D01*
X63349238Y-111728190D01*
X63444476Y-111632952D01*
X63492095Y-111537714D01*
G04 #@! TO.C,SW1*
X77331333Y-112776761D02*
X77188476Y-112824380D01*
X76950380Y-112824380D01*
X76855142Y-112776761D01*
X76807523Y-112729142D01*
X76759904Y-112633904D01*
X76759904Y-112538666D01*
X76807523Y-112443428D01*
X76855142Y-112395809D01*
X76950380Y-112348190D01*
X77140857Y-112300571D01*
X77236095Y-112252952D01*
X77283714Y-112205333D01*
X77331333Y-112110095D01*
X77331333Y-112014857D01*
X77283714Y-111919619D01*
X77236095Y-111872000D01*
X77140857Y-111824380D01*
X76902761Y-111824380D01*
X76759904Y-111872000D01*
X76426571Y-111824380D02*
X76188476Y-112824380D01*
X75998000Y-112110095D01*
X75807523Y-112824380D01*
X75569428Y-111824380D01*
X74664666Y-112824380D02*
X75236095Y-112824380D01*
X74950380Y-112824380D02*
X74950380Y-111824380D01*
X75045619Y-111967238D01*
X75140857Y-112062476D01*
X75236095Y-112110095D01*
G04 #@! TD*
M02*
