G04 #@! TF.GenerationSoftware,KiCad,Pcbnew,(5.0.1)-4*
G04 #@! TF.CreationDate,2018-12-26T16:50:05+01:00*
G04 #@! TF.ProjectId,EdtrackerDiy,4564747261636B65724469792E6B6963,rev?*
G04 #@! TF.SameCoordinates,Original*
G04 #@! TF.FileFunction,Legend,Top*
G04 #@! TF.FilePolarity,Positive*
%FSLAX46Y46*%
G04 Gerber Fmt 4.6, Leading zero omitted, Abs format (unit mm)*
G04 Created by KiCad (PCBNEW (5.0.1)-4) date 26/12/2018 16:50:05*
%MOMM*%
%LPD*%
G01*
G04 APERTURE LIST*
%ADD10C,0.010000*%
%ADD11C,0.127000*%
G04 APERTURE END LIST*
D10*
G04 #@! TO.C,REF\002A\002A*
G36*
X73734571Y-102095043D02*
X73758809Y-101998768D01*
X73801641Y-101912184D01*
X73861419Y-101837373D01*
X73936494Y-101776418D01*
X74025220Y-101731399D01*
X74121530Y-101705136D01*
X74218795Y-101699286D01*
X74312654Y-101714140D01*
X74400511Y-101747840D01*
X74479770Y-101798528D01*
X74547836Y-101864345D01*
X74602112Y-101943434D01*
X74640002Y-102033934D01*
X74652426Y-102085200D01*
X74659947Y-102129698D01*
X74662919Y-102163999D01*
X74661094Y-102196960D01*
X74654225Y-102237434D01*
X74647250Y-102270531D01*
X74615741Y-102363947D01*
X74564617Y-102447619D01*
X74495429Y-102519665D01*
X74409728Y-102578200D01*
X74382489Y-102592148D01*
X74346122Y-102608586D01*
X74315582Y-102618894D01*
X74283450Y-102624460D01*
X74242307Y-102626669D01*
X74196222Y-102626948D01*
X74111865Y-102622861D01*
X74042586Y-102609446D01*
X73981961Y-102584256D01*
X73923567Y-102544846D01*
X73879302Y-102506298D01*
X73813484Y-102434406D01*
X73768053Y-102359313D01*
X73740850Y-102276562D01*
X73730576Y-102198928D01*
X73734571Y-102095043D01*
X73734571Y-102095043D01*
G37*
X73734571Y-102095043D02*
X73758809Y-101998768D01*
X73801641Y-101912184D01*
X73861419Y-101837373D01*
X73936494Y-101776418D01*
X74025220Y-101731399D01*
X74121530Y-101705136D01*
X74218795Y-101699286D01*
X74312654Y-101714140D01*
X74400511Y-101747840D01*
X74479770Y-101798528D01*
X74547836Y-101864345D01*
X74602112Y-101943434D01*
X74640002Y-102033934D01*
X74652426Y-102085200D01*
X74659947Y-102129698D01*
X74662919Y-102163999D01*
X74661094Y-102196960D01*
X74654225Y-102237434D01*
X74647250Y-102270531D01*
X74615741Y-102363947D01*
X74564617Y-102447619D01*
X74495429Y-102519665D01*
X74409728Y-102578200D01*
X74382489Y-102592148D01*
X74346122Y-102608586D01*
X74315582Y-102618894D01*
X74283450Y-102624460D01*
X74242307Y-102626669D01*
X74196222Y-102626948D01*
X74111865Y-102622861D01*
X74042586Y-102609446D01*
X73981961Y-102584256D01*
X73923567Y-102544846D01*
X73879302Y-102506298D01*
X73813484Y-102434406D01*
X73768053Y-102359313D01*
X73740850Y-102276562D01*
X73730576Y-102198928D01*
X73734571Y-102095043D01*
G36*
X76180245Y-93635493D02*
X76414662Y-93635474D01*
X76627603Y-93635448D01*
X76820168Y-93635375D01*
X76993459Y-93635218D01*
X77148576Y-93634936D01*
X77286620Y-93634491D01*
X77408692Y-93633844D01*
X77515894Y-93632955D01*
X77609326Y-93631787D01*
X77690090Y-93630299D01*
X77759286Y-93628454D01*
X77818015Y-93626211D01*
X77867379Y-93623531D01*
X77908478Y-93620377D01*
X77942413Y-93616708D01*
X77970286Y-93612487D01*
X77993198Y-93607673D01*
X78012249Y-93602227D01*
X78028540Y-93596112D01*
X78043173Y-93589288D01*
X78057249Y-93581715D01*
X78071868Y-93573355D01*
X78080974Y-93568161D01*
X78141689Y-93533896D01*
X78141689Y-94392045D01*
X78045733Y-94392045D01*
X78002370Y-94392776D01*
X77969205Y-94394728D01*
X77951424Y-94397537D01*
X77949778Y-94398779D01*
X77956662Y-94410201D01*
X77974505Y-94432916D01*
X77993879Y-94455615D01*
X78034614Y-94510200D01*
X78075617Y-94579679D01*
X78113123Y-94656730D01*
X78143364Y-94734035D01*
X78153012Y-94764887D01*
X78167578Y-94833384D01*
X78177539Y-94916236D01*
X78182583Y-95005629D01*
X78182396Y-95093752D01*
X78176666Y-95172793D01*
X78170858Y-95210489D01*
X78132797Y-95348586D01*
X78075073Y-95475887D01*
X77998211Y-95591708D01*
X77902739Y-95695363D01*
X77789179Y-95786167D01*
X77678381Y-95852969D01*
X77561625Y-95907836D01*
X77442276Y-95949837D01*
X77316283Y-95979833D01*
X77179594Y-95998689D01*
X77028158Y-96007268D01*
X76950711Y-96007994D01*
X76893934Y-96005900D01*
X76893934Y-95176783D01*
X76987002Y-95176576D01*
X77074692Y-95173663D01*
X77151772Y-95168000D01*
X77213009Y-95159545D01*
X77225350Y-95156962D01*
X77332633Y-95125160D01*
X77419658Y-95083502D01*
X77486642Y-95031637D01*
X77533805Y-94969219D01*
X77561365Y-94895900D01*
X77569541Y-94811331D01*
X77558551Y-94715165D01*
X77542829Y-94651689D01*
X77524639Y-94602546D01*
X77498791Y-94548417D01*
X77475089Y-94507756D01*
X77428721Y-94437200D01*
X76278530Y-94437200D01*
X76234962Y-94504608D01*
X76194040Y-94583133D01*
X76167389Y-94667319D01*
X76155465Y-94752443D01*
X76158722Y-94833784D01*
X76177615Y-94906620D01*
X76193184Y-94938574D01*
X76236181Y-94996499D01*
X76292953Y-95045456D01*
X76365575Y-95086610D01*
X76456121Y-95121126D01*
X76566666Y-95150167D01*
X76572533Y-95151448D01*
X76634788Y-95161619D01*
X76712594Y-95169261D01*
X76800720Y-95174330D01*
X76893934Y-95176783D01*
X76893934Y-96005900D01*
X76737895Y-96000143D01*
X76542059Y-95978198D01*
X76363332Y-95942214D01*
X76201845Y-95892241D01*
X76057726Y-95828332D01*
X75931106Y-95750538D01*
X75822115Y-95658911D01*
X75730883Y-95553503D01*
X75699932Y-95508338D01*
X75643785Y-95407389D01*
X75604174Y-95304099D01*
X75580014Y-95194011D01*
X75570219Y-95072670D01*
X75571265Y-94980164D01*
X75582231Y-94850510D01*
X75604046Y-94737916D01*
X75637714Y-94639125D01*
X75684236Y-94550879D01*
X75718448Y-94502014D01*
X75740362Y-94472647D01*
X75755333Y-94450957D01*
X75759733Y-94442747D01*
X75748904Y-94441132D01*
X75718251Y-94439841D01*
X75670526Y-94438862D01*
X75608479Y-94438183D01*
X75534862Y-94437790D01*
X75452427Y-94437670D01*
X75363925Y-94437812D01*
X75272107Y-94438203D01*
X75179724Y-94438829D01*
X75089528Y-94439680D01*
X75004271Y-94440740D01*
X74926703Y-94441999D01*
X74859576Y-94443444D01*
X74805641Y-94445062D01*
X74767650Y-94446839D01*
X74760667Y-94447331D01*
X74690251Y-94454908D01*
X74635102Y-94466469D01*
X74587981Y-94484208D01*
X74541647Y-94510318D01*
X74532067Y-94516585D01*
X74495378Y-94541017D01*
X74495378Y-93635689D01*
X76180245Y-93635493D01*
X76180245Y-93635493D01*
G37*
X76180245Y-93635493D02*
X76414662Y-93635474D01*
X76627603Y-93635448D01*
X76820168Y-93635375D01*
X76993459Y-93635218D01*
X77148576Y-93634936D01*
X77286620Y-93634491D01*
X77408692Y-93633844D01*
X77515894Y-93632955D01*
X77609326Y-93631787D01*
X77690090Y-93630299D01*
X77759286Y-93628454D01*
X77818015Y-93626211D01*
X77867379Y-93623531D01*
X77908478Y-93620377D01*
X77942413Y-93616708D01*
X77970286Y-93612487D01*
X77993198Y-93607673D01*
X78012249Y-93602227D01*
X78028540Y-93596112D01*
X78043173Y-93589288D01*
X78057249Y-93581715D01*
X78071868Y-93573355D01*
X78080974Y-93568161D01*
X78141689Y-93533896D01*
X78141689Y-94392045D01*
X78045733Y-94392045D01*
X78002370Y-94392776D01*
X77969205Y-94394728D01*
X77951424Y-94397537D01*
X77949778Y-94398779D01*
X77956662Y-94410201D01*
X77974505Y-94432916D01*
X77993879Y-94455615D01*
X78034614Y-94510200D01*
X78075617Y-94579679D01*
X78113123Y-94656730D01*
X78143364Y-94734035D01*
X78153012Y-94764887D01*
X78167578Y-94833384D01*
X78177539Y-94916236D01*
X78182583Y-95005629D01*
X78182396Y-95093752D01*
X78176666Y-95172793D01*
X78170858Y-95210489D01*
X78132797Y-95348586D01*
X78075073Y-95475887D01*
X77998211Y-95591708D01*
X77902739Y-95695363D01*
X77789179Y-95786167D01*
X77678381Y-95852969D01*
X77561625Y-95907836D01*
X77442276Y-95949837D01*
X77316283Y-95979833D01*
X77179594Y-95998689D01*
X77028158Y-96007268D01*
X76950711Y-96007994D01*
X76893934Y-96005900D01*
X76893934Y-95176783D01*
X76987002Y-95176576D01*
X77074692Y-95173663D01*
X77151772Y-95168000D01*
X77213009Y-95159545D01*
X77225350Y-95156962D01*
X77332633Y-95125160D01*
X77419658Y-95083502D01*
X77486642Y-95031637D01*
X77533805Y-94969219D01*
X77561365Y-94895900D01*
X77569541Y-94811331D01*
X77558551Y-94715165D01*
X77542829Y-94651689D01*
X77524639Y-94602546D01*
X77498791Y-94548417D01*
X77475089Y-94507756D01*
X77428721Y-94437200D01*
X76278530Y-94437200D01*
X76234962Y-94504608D01*
X76194040Y-94583133D01*
X76167389Y-94667319D01*
X76155465Y-94752443D01*
X76158722Y-94833784D01*
X76177615Y-94906620D01*
X76193184Y-94938574D01*
X76236181Y-94996499D01*
X76292953Y-95045456D01*
X76365575Y-95086610D01*
X76456121Y-95121126D01*
X76566666Y-95150167D01*
X76572533Y-95151448D01*
X76634788Y-95161619D01*
X76712594Y-95169261D01*
X76800720Y-95174330D01*
X76893934Y-95176783D01*
X76893934Y-96005900D01*
X76737895Y-96000143D01*
X76542059Y-95978198D01*
X76363332Y-95942214D01*
X76201845Y-95892241D01*
X76057726Y-95828332D01*
X75931106Y-95750538D01*
X75822115Y-95658911D01*
X75730883Y-95553503D01*
X75699932Y-95508338D01*
X75643785Y-95407389D01*
X75604174Y-95304099D01*
X75580014Y-95194011D01*
X75570219Y-95072670D01*
X75571265Y-94980164D01*
X75582231Y-94850510D01*
X75604046Y-94737916D01*
X75637714Y-94639125D01*
X75684236Y-94550879D01*
X75718448Y-94502014D01*
X75740362Y-94472647D01*
X75755333Y-94450957D01*
X75759733Y-94442747D01*
X75748904Y-94441132D01*
X75718251Y-94439841D01*
X75670526Y-94438862D01*
X75608479Y-94438183D01*
X75534862Y-94437790D01*
X75452427Y-94437670D01*
X75363925Y-94437812D01*
X75272107Y-94438203D01*
X75179724Y-94438829D01*
X75089528Y-94439680D01*
X75004271Y-94440740D01*
X74926703Y-94441999D01*
X74859576Y-94443444D01*
X74805641Y-94445062D01*
X74767650Y-94446839D01*
X74760667Y-94447331D01*
X74690251Y-94454908D01*
X74635102Y-94466469D01*
X74587981Y-94484208D01*
X74541647Y-94510318D01*
X74532067Y-94516585D01*
X74495378Y-94541017D01*
X74495378Y-93635689D01*
X76180245Y-93635493D01*
G36*
X75574552Y-97148426D02*
X75594567Y-96996508D01*
X75628202Y-96861244D01*
X75675725Y-96741761D01*
X75737405Y-96637185D01*
X75800965Y-96559576D01*
X75875099Y-96490735D01*
X75954871Y-96436994D01*
X76047091Y-96394090D01*
X76090161Y-96378616D01*
X76129142Y-96365756D01*
X76165289Y-96354554D01*
X76200434Y-96344880D01*
X76236410Y-96336604D01*
X76275050Y-96329597D01*
X76318185Y-96323728D01*
X76367649Y-96318869D01*
X76425273Y-96314890D01*
X76492891Y-96311660D01*
X76572334Y-96309051D01*
X76665436Y-96306933D01*
X76774027Y-96305176D01*
X76899942Y-96303651D01*
X77045012Y-96302228D01*
X77187778Y-96300975D01*
X77343968Y-96299649D01*
X77479239Y-96298444D01*
X77595246Y-96297234D01*
X77693645Y-96295894D01*
X77776093Y-96294300D01*
X77844246Y-96292325D01*
X77899760Y-96289844D01*
X77944292Y-96286731D01*
X77979498Y-96282862D01*
X78007034Y-96278111D01*
X78028556Y-96272352D01*
X78045722Y-96265461D01*
X78060186Y-96257311D01*
X78073606Y-96247777D01*
X78087638Y-96236734D01*
X78093071Y-96232434D01*
X78115910Y-96216614D01*
X78131463Y-96209578D01*
X78131922Y-96209556D01*
X78134121Y-96220433D01*
X78136147Y-96251418D01*
X78137942Y-96300043D01*
X78139451Y-96363837D01*
X78140616Y-96440331D01*
X78141380Y-96527056D01*
X78141686Y-96621543D01*
X78141689Y-96632450D01*
X78141689Y-97055343D01*
X78045622Y-97058605D01*
X77949556Y-97061867D01*
X78000543Y-97123956D01*
X78068057Y-97221286D01*
X78122749Y-97331187D01*
X78152978Y-97417651D01*
X78167666Y-97486722D01*
X78177659Y-97570075D01*
X78182646Y-97659841D01*
X78182313Y-97748155D01*
X78176351Y-97827149D01*
X78170638Y-97863378D01*
X78132776Y-98003397D01*
X78077932Y-98129822D01*
X78006924Y-98241740D01*
X77920568Y-98338238D01*
X77819679Y-98418400D01*
X77705076Y-98481313D01*
X77578984Y-98525688D01*
X77522401Y-98538022D01*
X77460202Y-98545632D01*
X77385363Y-98549261D01*
X77351467Y-98549755D01*
X77348282Y-98549690D01*
X77348282Y-97789752D01*
X77423333Y-97780459D01*
X77487160Y-97752272D01*
X77542798Y-97703803D01*
X77547211Y-97698746D01*
X77582037Y-97650452D01*
X77604620Y-97598743D01*
X77616540Y-97538011D01*
X77619383Y-97462648D01*
X77618978Y-97444541D01*
X77616325Y-97390722D01*
X77610909Y-97350692D01*
X77600745Y-97315676D01*
X77583850Y-97276897D01*
X77578672Y-97266255D01*
X77542844Y-97205604D01*
X77500212Y-97158785D01*
X77484973Y-97146048D01*
X77428462Y-97101378D01*
X77232586Y-97101378D01*
X77153939Y-97101914D01*
X77095988Y-97103604D01*
X77056875Y-97106572D01*
X77034741Y-97110943D01*
X77028274Y-97115028D01*
X77025111Y-97130953D01*
X77022488Y-97164736D01*
X77020655Y-97211660D01*
X77019857Y-97267007D01*
X77019842Y-97275894D01*
X77025096Y-97396670D01*
X77041263Y-97499340D01*
X77068961Y-97585894D01*
X77108808Y-97658319D01*
X77155758Y-97713249D01*
X77213645Y-97757796D01*
X77276693Y-97782520D01*
X77348282Y-97789752D01*
X77348282Y-98549690D01*
X77257712Y-98547822D01*
X77178812Y-98539478D01*
X77107590Y-98523232D01*
X77036864Y-98497595D01*
X76984493Y-98473599D01*
X76889196Y-98414980D01*
X76801170Y-98336883D01*
X76722017Y-98241685D01*
X76653340Y-98131762D01*
X76596741Y-98009490D01*
X76553821Y-97877245D01*
X76538882Y-97812578D01*
X76516777Y-97676396D01*
X76502194Y-97527951D01*
X76495813Y-97376495D01*
X76497445Y-97249936D01*
X76504224Y-97088050D01*
X76445245Y-97095470D01*
X76346092Y-97114762D01*
X76265372Y-97145896D01*
X76202466Y-97189731D01*
X76156756Y-97247129D01*
X76127622Y-97318952D01*
X76114447Y-97406059D01*
X76116611Y-97509314D01*
X76120612Y-97547289D01*
X76145780Y-97688480D01*
X76186814Y-97825293D01*
X76224815Y-97919822D01*
X76244190Y-97964982D01*
X76259760Y-98003415D01*
X76269405Y-98029766D01*
X76271452Y-98037454D01*
X76262374Y-98047198D01*
X76233405Y-98063917D01*
X76184217Y-98087768D01*
X76114484Y-98118907D01*
X76023879Y-98157493D01*
X76008089Y-98164090D01*
X75935772Y-98194147D01*
X75870425Y-98221126D01*
X75814906Y-98243864D01*
X75772072Y-98261194D01*
X75744781Y-98271952D01*
X75735942Y-98275059D01*
X75731187Y-98265060D01*
X75725910Y-98238783D01*
X75722231Y-98210511D01*
X75717474Y-98180354D01*
X75708028Y-98132567D01*
X75694820Y-98071388D01*
X75678776Y-98001054D01*
X75660820Y-97925806D01*
X75653797Y-97897245D01*
X75628209Y-97792184D01*
X75608147Y-97704520D01*
X75592969Y-97629932D01*
X75582035Y-97564097D01*
X75574704Y-97502693D01*
X75570335Y-97441398D01*
X75568287Y-97375890D01*
X75567889Y-97317872D01*
X75574552Y-97148426D01*
X75574552Y-97148426D01*
G37*
X75574552Y-97148426D02*
X75594567Y-96996508D01*
X75628202Y-96861244D01*
X75675725Y-96741761D01*
X75737405Y-96637185D01*
X75800965Y-96559576D01*
X75875099Y-96490735D01*
X75954871Y-96436994D01*
X76047091Y-96394090D01*
X76090161Y-96378616D01*
X76129142Y-96365756D01*
X76165289Y-96354554D01*
X76200434Y-96344880D01*
X76236410Y-96336604D01*
X76275050Y-96329597D01*
X76318185Y-96323728D01*
X76367649Y-96318869D01*
X76425273Y-96314890D01*
X76492891Y-96311660D01*
X76572334Y-96309051D01*
X76665436Y-96306933D01*
X76774027Y-96305176D01*
X76899942Y-96303651D01*
X77045012Y-96302228D01*
X77187778Y-96300975D01*
X77343968Y-96299649D01*
X77479239Y-96298444D01*
X77595246Y-96297234D01*
X77693645Y-96295894D01*
X77776093Y-96294300D01*
X77844246Y-96292325D01*
X77899760Y-96289844D01*
X77944292Y-96286731D01*
X77979498Y-96282862D01*
X78007034Y-96278111D01*
X78028556Y-96272352D01*
X78045722Y-96265461D01*
X78060186Y-96257311D01*
X78073606Y-96247777D01*
X78087638Y-96236734D01*
X78093071Y-96232434D01*
X78115910Y-96216614D01*
X78131463Y-96209578D01*
X78131922Y-96209556D01*
X78134121Y-96220433D01*
X78136147Y-96251418D01*
X78137942Y-96300043D01*
X78139451Y-96363837D01*
X78140616Y-96440331D01*
X78141380Y-96527056D01*
X78141686Y-96621543D01*
X78141689Y-96632450D01*
X78141689Y-97055343D01*
X78045622Y-97058605D01*
X77949556Y-97061867D01*
X78000543Y-97123956D01*
X78068057Y-97221286D01*
X78122749Y-97331187D01*
X78152978Y-97417651D01*
X78167666Y-97486722D01*
X78177659Y-97570075D01*
X78182646Y-97659841D01*
X78182313Y-97748155D01*
X78176351Y-97827149D01*
X78170638Y-97863378D01*
X78132776Y-98003397D01*
X78077932Y-98129822D01*
X78006924Y-98241740D01*
X77920568Y-98338238D01*
X77819679Y-98418400D01*
X77705076Y-98481313D01*
X77578984Y-98525688D01*
X77522401Y-98538022D01*
X77460202Y-98545632D01*
X77385363Y-98549261D01*
X77351467Y-98549755D01*
X77348282Y-98549690D01*
X77348282Y-97789752D01*
X77423333Y-97780459D01*
X77487160Y-97752272D01*
X77542798Y-97703803D01*
X77547211Y-97698746D01*
X77582037Y-97650452D01*
X77604620Y-97598743D01*
X77616540Y-97538011D01*
X77619383Y-97462648D01*
X77618978Y-97444541D01*
X77616325Y-97390722D01*
X77610909Y-97350692D01*
X77600745Y-97315676D01*
X77583850Y-97276897D01*
X77578672Y-97266255D01*
X77542844Y-97205604D01*
X77500212Y-97158785D01*
X77484973Y-97146048D01*
X77428462Y-97101378D01*
X77232586Y-97101378D01*
X77153939Y-97101914D01*
X77095988Y-97103604D01*
X77056875Y-97106572D01*
X77034741Y-97110943D01*
X77028274Y-97115028D01*
X77025111Y-97130953D01*
X77022488Y-97164736D01*
X77020655Y-97211660D01*
X77019857Y-97267007D01*
X77019842Y-97275894D01*
X77025096Y-97396670D01*
X77041263Y-97499340D01*
X77068961Y-97585894D01*
X77108808Y-97658319D01*
X77155758Y-97713249D01*
X77213645Y-97757796D01*
X77276693Y-97782520D01*
X77348282Y-97789752D01*
X77348282Y-98549690D01*
X77257712Y-98547822D01*
X77178812Y-98539478D01*
X77107590Y-98523232D01*
X77036864Y-98497595D01*
X76984493Y-98473599D01*
X76889196Y-98414980D01*
X76801170Y-98336883D01*
X76722017Y-98241685D01*
X76653340Y-98131762D01*
X76596741Y-98009490D01*
X76553821Y-97877245D01*
X76538882Y-97812578D01*
X76516777Y-97676396D01*
X76502194Y-97527951D01*
X76495813Y-97376495D01*
X76497445Y-97249936D01*
X76504224Y-97088050D01*
X76445245Y-97095470D01*
X76346092Y-97114762D01*
X76265372Y-97145896D01*
X76202466Y-97189731D01*
X76156756Y-97247129D01*
X76127622Y-97318952D01*
X76114447Y-97406059D01*
X76116611Y-97509314D01*
X76120612Y-97547289D01*
X76145780Y-97688480D01*
X76186814Y-97825293D01*
X76224815Y-97919822D01*
X76244190Y-97964982D01*
X76259760Y-98003415D01*
X76269405Y-98029766D01*
X76271452Y-98037454D01*
X76262374Y-98047198D01*
X76233405Y-98063917D01*
X76184217Y-98087768D01*
X76114484Y-98118907D01*
X76023879Y-98157493D01*
X76008089Y-98164090D01*
X75935772Y-98194147D01*
X75870425Y-98221126D01*
X75814906Y-98243864D01*
X75772072Y-98261194D01*
X75744781Y-98271952D01*
X75735942Y-98275059D01*
X75731187Y-98265060D01*
X75725910Y-98238783D01*
X75722231Y-98210511D01*
X75717474Y-98180354D01*
X75708028Y-98132567D01*
X75694820Y-98071388D01*
X75678776Y-98001054D01*
X75660820Y-97925806D01*
X75653797Y-97897245D01*
X75628209Y-97792184D01*
X75608147Y-97704520D01*
X75592969Y-97629932D01*
X75582035Y-97564097D01*
X75574704Y-97502693D01*
X75570335Y-97441398D01*
X75568287Y-97375890D01*
X75567889Y-97317872D01*
X75574552Y-97148426D01*
G36*
X74657071Y-99493571D02*
X74678245Y-99333430D01*
X74718385Y-99169490D01*
X74777889Y-98999687D01*
X74857154Y-98821957D01*
X74862699Y-98810690D01*
X74890725Y-98752995D01*
X74914802Y-98701448D01*
X74933249Y-98659809D01*
X74944386Y-98631838D01*
X74946933Y-98622267D01*
X74951941Y-98603050D01*
X74956147Y-98598439D01*
X74966580Y-98603542D01*
X74992868Y-98619582D01*
X75032257Y-98644712D01*
X75081991Y-98677086D01*
X75139315Y-98714857D01*
X75201476Y-98756178D01*
X75265718Y-98799202D01*
X75329285Y-98842083D01*
X75389425Y-98882974D01*
X75443380Y-98920029D01*
X75488397Y-98951400D01*
X75521721Y-98975241D01*
X75540597Y-98989706D01*
X75542787Y-98991691D01*
X75538138Y-99001809D01*
X75520962Y-99024150D01*
X75494440Y-99054720D01*
X75479964Y-99070464D01*
X75404682Y-99166953D01*
X75349241Y-99273664D01*
X75314141Y-99389168D01*
X75299880Y-99512038D01*
X75301051Y-99581439D01*
X75318212Y-99702577D01*
X75354094Y-99811795D01*
X75408959Y-99909418D01*
X75483070Y-99995772D01*
X75576688Y-100071185D01*
X75690076Y-100135982D01*
X75776667Y-100173399D01*
X75912366Y-100217252D01*
X76059850Y-100249572D01*
X76215314Y-100270443D01*
X76374956Y-100279949D01*
X76534973Y-100278173D01*
X76691561Y-100265197D01*
X76840918Y-100241106D01*
X76979240Y-100205982D01*
X77102724Y-100159908D01*
X77136978Y-100143627D01*
X77251064Y-100075380D01*
X77347557Y-99994921D01*
X77425670Y-99903430D01*
X77484617Y-99802089D01*
X77523612Y-99692080D01*
X77541868Y-99574585D01*
X77543211Y-99533117D01*
X77532290Y-99411559D01*
X77499474Y-99291122D01*
X77445439Y-99173334D01*
X77370865Y-99059723D01*
X77292539Y-98968315D01*
X77248008Y-98921785D01*
X77545271Y-98740517D01*
X77619433Y-98695420D01*
X77687646Y-98654181D01*
X77747459Y-98618265D01*
X77796420Y-98589134D01*
X77832079Y-98568250D01*
X77851984Y-98557076D01*
X77855079Y-98555625D01*
X77864718Y-98563854D01*
X77881999Y-98589433D01*
X77905283Y-98629127D01*
X77932934Y-98679703D01*
X77963315Y-98737926D01*
X77994790Y-98800563D01*
X78025722Y-98864379D01*
X78054473Y-98926140D01*
X78079408Y-98982612D01*
X78098889Y-99030562D01*
X78107318Y-99054014D01*
X78145133Y-99187779D01*
X78170136Y-99325673D01*
X78183140Y-99473378D01*
X78185468Y-99600167D01*
X78184373Y-99668122D01*
X78182275Y-99733723D01*
X78179434Y-99791153D01*
X78176106Y-99834597D01*
X78174422Y-99848702D01*
X78145587Y-99987716D01*
X78100468Y-100129243D01*
X78041750Y-100266725D01*
X77972120Y-100393606D01*
X77919441Y-100471111D01*
X77811239Y-100598519D01*
X77684671Y-100716822D01*
X77542866Y-100823828D01*
X77388951Y-100917348D01*
X77226053Y-100995190D01*
X77108756Y-101039044D01*
X76925128Y-101089292D01*
X76730581Y-101122791D01*
X76529325Y-101139551D01*
X76325568Y-101139584D01*
X76123521Y-101122899D01*
X75927392Y-101089507D01*
X75741391Y-101039420D01*
X75729803Y-101035603D01*
X75567750Y-100972719D01*
X75419832Y-100895972D01*
X75281865Y-100802758D01*
X75149661Y-100690473D01*
X75104399Y-100646608D01*
X74980457Y-100510466D01*
X74877915Y-100370509D01*
X74795656Y-100224589D01*
X74732564Y-100070558D01*
X74687523Y-99906268D01*
X74670033Y-99810711D01*
X74654466Y-99651977D01*
X74657071Y-99493571D01*
X74657071Y-99493571D01*
G37*
X74657071Y-99493571D02*
X74678245Y-99333430D01*
X74718385Y-99169490D01*
X74777889Y-98999687D01*
X74857154Y-98821957D01*
X74862699Y-98810690D01*
X74890725Y-98752995D01*
X74914802Y-98701448D01*
X74933249Y-98659809D01*
X74944386Y-98631838D01*
X74946933Y-98622267D01*
X74951941Y-98603050D01*
X74956147Y-98598439D01*
X74966580Y-98603542D01*
X74992868Y-98619582D01*
X75032257Y-98644712D01*
X75081991Y-98677086D01*
X75139315Y-98714857D01*
X75201476Y-98756178D01*
X75265718Y-98799202D01*
X75329285Y-98842083D01*
X75389425Y-98882974D01*
X75443380Y-98920029D01*
X75488397Y-98951400D01*
X75521721Y-98975241D01*
X75540597Y-98989706D01*
X75542787Y-98991691D01*
X75538138Y-99001809D01*
X75520962Y-99024150D01*
X75494440Y-99054720D01*
X75479964Y-99070464D01*
X75404682Y-99166953D01*
X75349241Y-99273664D01*
X75314141Y-99389168D01*
X75299880Y-99512038D01*
X75301051Y-99581439D01*
X75318212Y-99702577D01*
X75354094Y-99811795D01*
X75408959Y-99909418D01*
X75483070Y-99995772D01*
X75576688Y-100071185D01*
X75690076Y-100135982D01*
X75776667Y-100173399D01*
X75912366Y-100217252D01*
X76059850Y-100249572D01*
X76215314Y-100270443D01*
X76374956Y-100279949D01*
X76534973Y-100278173D01*
X76691561Y-100265197D01*
X76840918Y-100241106D01*
X76979240Y-100205982D01*
X77102724Y-100159908D01*
X77136978Y-100143627D01*
X77251064Y-100075380D01*
X77347557Y-99994921D01*
X77425670Y-99903430D01*
X77484617Y-99802089D01*
X77523612Y-99692080D01*
X77541868Y-99574585D01*
X77543211Y-99533117D01*
X77532290Y-99411559D01*
X77499474Y-99291122D01*
X77445439Y-99173334D01*
X77370865Y-99059723D01*
X77292539Y-98968315D01*
X77248008Y-98921785D01*
X77545271Y-98740517D01*
X77619433Y-98695420D01*
X77687646Y-98654181D01*
X77747459Y-98618265D01*
X77796420Y-98589134D01*
X77832079Y-98568250D01*
X77851984Y-98557076D01*
X77855079Y-98555625D01*
X77864718Y-98563854D01*
X77881999Y-98589433D01*
X77905283Y-98629127D01*
X77932934Y-98679703D01*
X77963315Y-98737926D01*
X77994790Y-98800563D01*
X78025722Y-98864379D01*
X78054473Y-98926140D01*
X78079408Y-98982612D01*
X78098889Y-99030562D01*
X78107318Y-99054014D01*
X78145133Y-99187779D01*
X78170136Y-99325673D01*
X78183140Y-99473378D01*
X78185468Y-99600167D01*
X78184373Y-99668122D01*
X78182275Y-99733723D01*
X78179434Y-99791153D01*
X78176106Y-99834597D01*
X78174422Y-99848702D01*
X78145587Y-99987716D01*
X78100468Y-100129243D01*
X78041750Y-100266725D01*
X77972120Y-100393606D01*
X77919441Y-100471111D01*
X77811239Y-100598519D01*
X77684671Y-100716822D01*
X77542866Y-100823828D01*
X77388951Y-100917348D01*
X77226053Y-100995190D01*
X77108756Y-101039044D01*
X76925128Y-101089292D01*
X76730581Y-101122791D01*
X76529325Y-101139551D01*
X76325568Y-101139584D01*
X76123521Y-101122899D01*
X75927392Y-101089507D01*
X75741391Y-101039420D01*
X75729803Y-101035603D01*
X75567750Y-100972719D01*
X75419832Y-100895972D01*
X75281865Y-100802758D01*
X75149661Y-100690473D01*
X75104399Y-100646608D01*
X74980457Y-100510466D01*
X74877915Y-100370509D01*
X74795656Y-100224589D01*
X74732564Y-100070558D01*
X74687523Y-99906268D01*
X74670033Y-99810711D01*
X74654466Y-99651977D01*
X74657071Y-99493571D01*
G36*
X74197054Y-102768400D02*
X74310993Y-102757535D01*
X74418616Y-102725918D01*
X74517615Y-102675015D01*
X74605684Y-102606293D01*
X74680516Y-102521219D01*
X74738384Y-102424232D01*
X74778005Y-102317964D01*
X74796573Y-102210950D01*
X74795434Y-102105300D01*
X74775930Y-102003125D01*
X74739406Y-101906534D01*
X74687205Y-101817638D01*
X74620673Y-101738546D01*
X74541152Y-101671369D01*
X74449987Y-101618217D01*
X74348523Y-101581199D01*
X74238102Y-101562427D01*
X74188206Y-101560489D01*
X74100267Y-101560489D01*
X74100267Y-101508560D01*
X74103111Y-101472253D01*
X74114911Y-101445355D01*
X74138649Y-101418249D01*
X74177031Y-101379867D01*
X76368602Y-101379867D01*
X76630739Y-101379876D01*
X76871241Y-101379908D01*
X77091048Y-101379972D01*
X77291101Y-101380076D01*
X77472344Y-101380227D01*
X77635716Y-101380434D01*
X77782160Y-101380706D01*
X77912617Y-101381050D01*
X78028029Y-101381474D01*
X78129338Y-101381987D01*
X78217484Y-101382597D01*
X78293410Y-101383312D01*
X78358057Y-101384140D01*
X78412367Y-101385089D01*
X78457280Y-101386167D01*
X78493740Y-101387383D01*
X78522687Y-101388745D01*
X78545063Y-101390261D01*
X78561809Y-101391938D01*
X78573868Y-101393786D01*
X78582180Y-101395813D01*
X78587687Y-101398025D01*
X78589537Y-101399108D01*
X78596549Y-101403271D01*
X78602996Y-101406805D01*
X78608900Y-101410635D01*
X78614286Y-101415682D01*
X78619178Y-101422871D01*
X78623598Y-101433123D01*
X78627572Y-101447364D01*
X78631121Y-101466514D01*
X78634270Y-101491499D01*
X78637042Y-101523240D01*
X78639461Y-101562662D01*
X78641551Y-101610686D01*
X78643335Y-101668237D01*
X78644837Y-101736237D01*
X78646080Y-101815610D01*
X78647089Y-101907279D01*
X78647885Y-102012166D01*
X78648494Y-102131196D01*
X78648939Y-102265290D01*
X78649243Y-102415373D01*
X78649430Y-102582367D01*
X78649524Y-102767196D01*
X78649548Y-102970783D01*
X78649525Y-103194050D01*
X78649480Y-103437922D01*
X78649437Y-103703321D01*
X78649432Y-103741704D01*
X78649389Y-104008682D01*
X78649318Y-104254002D01*
X78649213Y-104478583D01*
X78649066Y-104683345D01*
X78648869Y-104869206D01*
X78648616Y-105037088D01*
X78648300Y-105187908D01*
X78647913Y-105322587D01*
X78647447Y-105442044D01*
X78646897Y-105547199D01*
X78646253Y-105638971D01*
X78645511Y-105718279D01*
X78644661Y-105786043D01*
X78643697Y-105843182D01*
X78642611Y-105890617D01*
X78641397Y-105929266D01*
X78640047Y-105960049D01*
X78638555Y-105983885D01*
X78636911Y-106001694D01*
X78635111Y-106014395D01*
X78633145Y-106022908D01*
X78631477Y-106027266D01*
X78627906Y-106035728D01*
X78625270Y-106043497D01*
X78622634Y-106050602D01*
X78619062Y-106057073D01*
X78613621Y-106062939D01*
X78605375Y-106068229D01*
X78593390Y-106072974D01*
X78576731Y-106077202D01*
X78554463Y-106080943D01*
X78525652Y-106084227D01*
X78489363Y-106087083D01*
X78444661Y-106089540D01*
X78390611Y-106091629D01*
X78326279Y-106093378D01*
X78250730Y-106094817D01*
X78163030Y-106095976D01*
X78062243Y-106096883D01*
X77947434Y-106097569D01*
X77817670Y-106098063D01*
X77672015Y-106098395D01*
X77509535Y-106098593D01*
X77329295Y-106098687D01*
X77130360Y-106098708D01*
X76911796Y-106098685D01*
X76672668Y-106098646D01*
X76412040Y-106098622D01*
X76369889Y-106098622D01*
X76106992Y-106098636D01*
X75865732Y-106098661D01*
X75645165Y-106098671D01*
X75444352Y-106098642D01*
X75262349Y-106098548D01*
X75098216Y-106098362D01*
X74951011Y-106098059D01*
X74819792Y-106097614D01*
X74709867Y-106097034D01*
X74709867Y-105794197D01*
X74767711Y-105754407D01*
X74783479Y-105743236D01*
X74797441Y-105733166D01*
X74810784Y-105724138D01*
X74824693Y-105716097D01*
X74840356Y-105708986D01*
X74858958Y-105702747D01*
X74881686Y-105697325D01*
X74909727Y-105692662D01*
X74944267Y-105688701D01*
X74986492Y-105685385D01*
X75037589Y-105682659D01*
X75098744Y-105680464D01*
X75171144Y-105678745D01*
X75255975Y-105677444D01*
X75354422Y-105676505D01*
X75467674Y-105675870D01*
X75596916Y-105675484D01*
X75743334Y-105675288D01*
X75908116Y-105675227D01*
X76092447Y-105675243D01*
X76297513Y-105675280D01*
X76420133Y-105675289D01*
X76637082Y-105675265D01*
X76832642Y-105675231D01*
X77007999Y-105675243D01*
X77164341Y-105675358D01*
X77302857Y-105675630D01*
X77424734Y-105676118D01*
X77531160Y-105676876D01*
X77623322Y-105677962D01*
X77702409Y-105679431D01*
X77769608Y-105681340D01*
X77826107Y-105683744D01*
X77873093Y-105686701D01*
X77911755Y-105690266D01*
X77943280Y-105694495D01*
X77968855Y-105699446D01*
X77989670Y-105705173D01*
X78006911Y-105711733D01*
X78021765Y-105719183D01*
X78035422Y-105727579D01*
X78049069Y-105736976D01*
X78063893Y-105747432D01*
X78072783Y-105753523D01*
X78130400Y-105792296D01*
X78130400Y-105260732D01*
X78130365Y-105137483D01*
X78130215Y-105034987D01*
X78129878Y-104951420D01*
X78129286Y-104884956D01*
X78128367Y-104833771D01*
X78127051Y-104796041D01*
X78125269Y-104769940D01*
X78122951Y-104753644D01*
X78120026Y-104745328D01*
X78116424Y-104743168D01*
X78112075Y-104745339D01*
X78110645Y-104746535D01*
X78073573Y-104771685D01*
X78020772Y-104797583D01*
X77958770Y-104821192D01*
X77932357Y-104829461D01*
X77914416Y-104834078D01*
X77893355Y-104837979D01*
X77867089Y-104841248D01*
X77833532Y-104843966D01*
X77790599Y-104846215D01*
X77736204Y-104848077D01*
X77668262Y-104849636D01*
X77584688Y-104850972D01*
X77483395Y-104852169D01*
X77362300Y-104853308D01*
X77317600Y-104853685D01*
X77192449Y-104854702D01*
X77088082Y-104855460D01*
X77002707Y-104855903D01*
X76934533Y-104855970D01*
X76881765Y-104855605D01*
X76842614Y-104854748D01*
X76815285Y-104853341D01*
X76797986Y-104851325D01*
X76788926Y-104848643D01*
X76786312Y-104845236D01*
X76788351Y-104841044D01*
X76792667Y-104836571D01*
X76805602Y-104826216D01*
X76834676Y-104804158D01*
X76877759Y-104771957D01*
X76932718Y-104731174D01*
X76997423Y-104683370D01*
X77069742Y-104630105D01*
X77147544Y-104572940D01*
X77228698Y-104513437D01*
X77311072Y-104453155D01*
X77392536Y-104393655D01*
X77470957Y-104336498D01*
X77544204Y-104283245D01*
X77610147Y-104235457D01*
X77666654Y-104194693D01*
X77711593Y-104162516D01*
X77742834Y-104140485D01*
X77749466Y-104135917D01*
X77786369Y-104112996D01*
X77834359Y-104086188D01*
X77883897Y-104060789D01*
X77890577Y-104057568D01*
X77938772Y-104035890D01*
X77976334Y-104023304D01*
X78012160Y-104017574D01*
X78054200Y-104016456D01*
X78130400Y-104017090D01*
X78130400Y-102862651D01*
X78036669Y-102953815D01*
X77986775Y-103000612D01*
X77930295Y-103050899D01*
X77876026Y-103096944D01*
X77850673Y-103117369D01*
X77811128Y-103147807D01*
X77757916Y-103187862D01*
X77692667Y-103236361D01*
X77617011Y-103292135D01*
X77532577Y-103354011D01*
X77440994Y-103420819D01*
X77343892Y-103491387D01*
X77242901Y-103564545D01*
X77139650Y-103639121D01*
X77035768Y-103713944D01*
X76932885Y-103787843D01*
X76832631Y-103859646D01*
X76736636Y-103928184D01*
X76646527Y-103992284D01*
X76563936Y-104050775D01*
X76490492Y-104102486D01*
X76427824Y-104146247D01*
X76377561Y-104180885D01*
X76341334Y-104205230D01*
X76320771Y-104218111D01*
X76316668Y-104219869D01*
X76305342Y-104211910D01*
X76278162Y-104191115D01*
X76236829Y-104158847D01*
X76183044Y-104116470D01*
X76118506Y-104065347D01*
X76044918Y-104006841D01*
X75963978Y-103942314D01*
X75877388Y-103873131D01*
X75786848Y-103800653D01*
X75694060Y-103726246D01*
X75619702Y-103666517D01*
X75619702Y-102655511D01*
X75632659Y-102649602D01*
X75654908Y-102635272D01*
X75656391Y-102634225D01*
X75686544Y-102615438D01*
X75723375Y-102595791D01*
X75731511Y-102591892D01*
X75739940Y-102588356D01*
X75750059Y-102585230D01*
X75763260Y-102582486D01*
X75780938Y-102580092D01*
X75804484Y-102578019D01*
X75835293Y-102576235D01*
X75874757Y-102574712D01*
X75924269Y-102573419D01*
X75985223Y-102572326D01*
X76059011Y-102571403D01*
X76147028Y-102570619D01*
X76250665Y-102569945D01*
X76371316Y-102569350D01*
X76510374Y-102568805D01*
X76669232Y-102568279D01*
X76848089Y-102567745D01*
X77033207Y-102567206D01*
X77197145Y-102566772D01*
X77341303Y-102566509D01*
X77467079Y-102566484D01*
X77575871Y-102566765D01*
X77669077Y-102567419D01*
X77748097Y-102568514D01*
X77814328Y-102570118D01*
X77869170Y-102572297D01*
X77914021Y-102575119D01*
X77950278Y-102578651D01*
X77979341Y-102582961D01*
X78002609Y-102588117D01*
X78021479Y-102594185D01*
X78037351Y-102601233D01*
X78051622Y-102609329D01*
X78065691Y-102618540D01*
X78078158Y-102627040D01*
X78104452Y-102644176D01*
X78122037Y-102654322D01*
X78125257Y-102655511D01*
X78126334Y-102644604D01*
X78127335Y-102613411D01*
X78128235Y-102564223D01*
X78129010Y-102499333D01*
X78129637Y-102421030D01*
X78130091Y-102331607D01*
X78130349Y-102233356D01*
X78130400Y-102164445D01*
X78130180Y-102059452D01*
X78129548Y-101962610D01*
X78128549Y-101876107D01*
X78127227Y-101802132D01*
X78125626Y-101742874D01*
X78123791Y-101700520D01*
X78121765Y-101677260D01*
X78120493Y-101673378D01*
X78105591Y-101681076D01*
X78097560Y-101689074D01*
X78080434Y-101702246D01*
X78050183Y-101719485D01*
X78025622Y-101731407D01*
X77966711Y-101758045D01*
X76789845Y-101761120D01*
X75612978Y-101764195D01*
X75612978Y-102209853D01*
X75613142Y-102307670D01*
X75613611Y-102398064D01*
X75614347Y-102478630D01*
X75615316Y-102546962D01*
X75616480Y-102600656D01*
X75617803Y-102637305D01*
X75619249Y-102654504D01*
X75619702Y-102655511D01*
X75619702Y-103666517D01*
X75600722Y-103651270D01*
X75508537Y-103577090D01*
X75419204Y-103505069D01*
X75334424Y-103436569D01*
X75255898Y-103372955D01*
X75185326Y-103315588D01*
X75124409Y-103265833D01*
X75074847Y-103225052D01*
X75054178Y-103207888D01*
X74953516Y-103121596D01*
X74870259Y-103044997D01*
X74802438Y-102976183D01*
X74748089Y-102913248D01*
X74740722Y-102903867D01*
X74710117Y-102864356D01*
X74709867Y-103996116D01*
X74757844Y-103990827D01*
X74815188Y-103994130D01*
X74883463Y-104015661D01*
X74963212Y-104055635D01*
X75035495Y-104100943D01*
X75058140Y-104117161D01*
X75095696Y-104145214D01*
X75146021Y-104183430D01*
X75206973Y-104230137D01*
X75276411Y-104283661D01*
X75352194Y-104342331D01*
X75432180Y-104404475D01*
X75514228Y-104468421D01*
X75596196Y-104532495D01*
X75675943Y-104595027D01*
X75751327Y-104654343D01*
X75820207Y-104708771D01*
X75880442Y-104756639D01*
X75929889Y-104796275D01*
X75966408Y-104826006D01*
X75987858Y-104844161D01*
X75991156Y-104847220D01*
X75983149Y-104850079D01*
X75952855Y-104852293D01*
X75900556Y-104853857D01*
X75826531Y-104854767D01*
X75731063Y-104855020D01*
X75614434Y-104854613D01*
X75494445Y-104853704D01*
X75362333Y-104852382D01*
X75250594Y-104850857D01*
X75157025Y-104848881D01*
X75079419Y-104846206D01*
X75015574Y-104842582D01*
X74963283Y-104837761D01*
X74920344Y-104831494D01*
X74884551Y-104823532D01*
X74853700Y-104813627D01*
X74825586Y-104801531D01*
X74798005Y-104786993D01*
X74772966Y-104772311D01*
X74709867Y-104734314D01*
X74709867Y-105794197D01*
X74709867Y-106097034D01*
X74703617Y-106097001D01*
X74601544Y-106096195D01*
X74512633Y-106095170D01*
X74435941Y-106093900D01*
X74370527Y-106092360D01*
X74315449Y-106090524D01*
X74269765Y-106088367D01*
X74232534Y-106085863D01*
X74202813Y-106082987D01*
X74179662Y-106079713D01*
X74162139Y-106076015D01*
X74149301Y-106071869D01*
X74140208Y-106067247D01*
X74133918Y-106062126D01*
X74129488Y-106056478D01*
X74125978Y-106050279D01*
X74122445Y-106043504D01*
X74118876Y-106037508D01*
X74116300Y-106032275D01*
X74113972Y-106024099D01*
X74111878Y-106011886D01*
X74110007Y-105994541D01*
X74108347Y-105970969D01*
X74106884Y-105940077D01*
X74105608Y-105900768D01*
X74104504Y-105851950D01*
X74103561Y-105792527D01*
X74102767Y-105721404D01*
X74102109Y-105637488D01*
X74101575Y-105539683D01*
X74101153Y-105426894D01*
X74100829Y-105298029D01*
X74100592Y-105151991D01*
X74100430Y-104987686D01*
X74100330Y-104804020D01*
X74100280Y-104599897D01*
X74100267Y-104388753D01*
X74100267Y-102768400D01*
X74197054Y-102768400D01*
X74197054Y-102768400D01*
G37*
X74197054Y-102768400D02*
X74310993Y-102757535D01*
X74418616Y-102725918D01*
X74517615Y-102675015D01*
X74605684Y-102606293D01*
X74680516Y-102521219D01*
X74738384Y-102424232D01*
X74778005Y-102317964D01*
X74796573Y-102210950D01*
X74795434Y-102105300D01*
X74775930Y-102003125D01*
X74739406Y-101906534D01*
X74687205Y-101817638D01*
X74620673Y-101738546D01*
X74541152Y-101671369D01*
X74449987Y-101618217D01*
X74348523Y-101581199D01*
X74238102Y-101562427D01*
X74188206Y-101560489D01*
X74100267Y-101560489D01*
X74100267Y-101508560D01*
X74103111Y-101472253D01*
X74114911Y-101445355D01*
X74138649Y-101418249D01*
X74177031Y-101379867D01*
X76368602Y-101379867D01*
X76630739Y-101379876D01*
X76871241Y-101379908D01*
X77091048Y-101379972D01*
X77291101Y-101380076D01*
X77472344Y-101380227D01*
X77635716Y-101380434D01*
X77782160Y-101380706D01*
X77912617Y-101381050D01*
X78028029Y-101381474D01*
X78129338Y-101381987D01*
X78217484Y-101382597D01*
X78293410Y-101383312D01*
X78358057Y-101384140D01*
X78412367Y-101385089D01*
X78457280Y-101386167D01*
X78493740Y-101387383D01*
X78522687Y-101388745D01*
X78545063Y-101390261D01*
X78561809Y-101391938D01*
X78573868Y-101393786D01*
X78582180Y-101395813D01*
X78587687Y-101398025D01*
X78589537Y-101399108D01*
X78596549Y-101403271D01*
X78602996Y-101406805D01*
X78608900Y-101410635D01*
X78614286Y-101415682D01*
X78619178Y-101422871D01*
X78623598Y-101433123D01*
X78627572Y-101447364D01*
X78631121Y-101466514D01*
X78634270Y-101491499D01*
X78637042Y-101523240D01*
X78639461Y-101562662D01*
X78641551Y-101610686D01*
X78643335Y-101668237D01*
X78644837Y-101736237D01*
X78646080Y-101815610D01*
X78647089Y-101907279D01*
X78647885Y-102012166D01*
X78648494Y-102131196D01*
X78648939Y-102265290D01*
X78649243Y-102415373D01*
X78649430Y-102582367D01*
X78649524Y-102767196D01*
X78649548Y-102970783D01*
X78649525Y-103194050D01*
X78649480Y-103437922D01*
X78649437Y-103703321D01*
X78649432Y-103741704D01*
X78649389Y-104008682D01*
X78649318Y-104254002D01*
X78649213Y-104478583D01*
X78649066Y-104683345D01*
X78648869Y-104869206D01*
X78648616Y-105037088D01*
X78648300Y-105187908D01*
X78647913Y-105322587D01*
X78647447Y-105442044D01*
X78646897Y-105547199D01*
X78646253Y-105638971D01*
X78645511Y-105718279D01*
X78644661Y-105786043D01*
X78643697Y-105843182D01*
X78642611Y-105890617D01*
X78641397Y-105929266D01*
X78640047Y-105960049D01*
X78638555Y-105983885D01*
X78636911Y-106001694D01*
X78635111Y-106014395D01*
X78633145Y-106022908D01*
X78631477Y-106027266D01*
X78627906Y-106035728D01*
X78625270Y-106043497D01*
X78622634Y-106050602D01*
X78619062Y-106057073D01*
X78613621Y-106062939D01*
X78605375Y-106068229D01*
X78593390Y-106072974D01*
X78576731Y-106077202D01*
X78554463Y-106080943D01*
X78525652Y-106084227D01*
X78489363Y-106087083D01*
X78444661Y-106089540D01*
X78390611Y-106091629D01*
X78326279Y-106093378D01*
X78250730Y-106094817D01*
X78163030Y-106095976D01*
X78062243Y-106096883D01*
X77947434Y-106097569D01*
X77817670Y-106098063D01*
X77672015Y-106098395D01*
X77509535Y-106098593D01*
X77329295Y-106098687D01*
X77130360Y-106098708D01*
X76911796Y-106098685D01*
X76672668Y-106098646D01*
X76412040Y-106098622D01*
X76369889Y-106098622D01*
X76106992Y-106098636D01*
X75865732Y-106098661D01*
X75645165Y-106098671D01*
X75444352Y-106098642D01*
X75262349Y-106098548D01*
X75098216Y-106098362D01*
X74951011Y-106098059D01*
X74819792Y-106097614D01*
X74709867Y-106097034D01*
X74709867Y-105794197D01*
X74767711Y-105754407D01*
X74783479Y-105743236D01*
X74797441Y-105733166D01*
X74810784Y-105724138D01*
X74824693Y-105716097D01*
X74840356Y-105708986D01*
X74858958Y-105702747D01*
X74881686Y-105697325D01*
X74909727Y-105692662D01*
X74944267Y-105688701D01*
X74986492Y-105685385D01*
X75037589Y-105682659D01*
X75098744Y-105680464D01*
X75171144Y-105678745D01*
X75255975Y-105677444D01*
X75354422Y-105676505D01*
X75467674Y-105675870D01*
X75596916Y-105675484D01*
X75743334Y-105675288D01*
X75908116Y-105675227D01*
X76092447Y-105675243D01*
X76297513Y-105675280D01*
X76420133Y-105675289D01*
X76637082Y-105675265D01*
X76832642Y-105675231D01*
X77007999Y-105675243D01*
X77164341Y-105675358D01*
X77302857Y-105675630D01*
X77424734Y-105676118D01*
X77531160Y-105676876D01*
X77623322Y-105677962D01*
X77702409Y-105679431D01*
X77769608Y-105681340D01*
X77826107Y-105683744D01*
X77873093Y-105686701D01*
X77911755Y-105690266D01*
X77943280Y-105694495D01*
X77968855Y-105699446D01*
X77989670Y-105705173D01*
X78006911Y-105711733D01*
X78021765Y-105719183D01*
X78035422Y-105727579D01*
X78049069Y-105736976D01*
X78063893Y-105747432D01*
X78072783Y-105753523D01*
X78130400Y-105792296D01*
X78130400Y-105260732D01*
X78130365Y-105137483D01*
X78130215Y-105034987D01*
X78129878Y-104951420D01*
X78129286Y-104884956D01*
X78128367Y-104833771D01*
X78127051Y-104796041D01*
X78125269Y-104769940D01*
X78122951Y-104753644D01*
X78120026Y-104745328D01*
X78116424Y-104743168D01*
X78112075Y-104745339D01*
X78110645Y-104746535D01*
X78073573Y-104771685D01*
X78020772Y-104797583D01*
X77958770Y-104821192D01*
X77932357Y-104829461D01*
X77914416Y-104834078D01*
X77893355Y-104837979D01*
X77867089Y-104841248D01*
X77833532Y-104843966D01*
X77790599Y-104846215D01*
X77736204Y-104848077D01*
X77668262Y-104849636D01*
X77584688Y-104850972D01*
X77483395Y-104852169D01*
X77362300Y-104853308D01*
X77317600Y-104853685D01*
X77192449Y-104854702D01*
X77088082Y-104855460D01*
X77002707Y-104855903D01*
X76934533Y-104855970D01*
X76881765Y-104855605D01*
X76842614Y-104854748D01*
X76815285Y-104853341D01*
X76797986Y-104851325D01*
X76788926Y-104848643D01*
X76786312Y-104845236D01*
X76788351Y-104841044D01*
X76792667Y-104836571D01*
X76805602Y-104826216D01*
X76834676Y-104804158D01*
X76877759Y-104771957D01*
X76932718Y-104731174D01*
X76997423Y-104683370D01*
X77069742Y-104630105D01*
X77147544Y-104572940D01*
X77228698Y-104513437D01*
X77311072Y-104453155D01*
X77392536Y-104393655D01*
X77470957Y-104336498D01*
X77544204Y-104283245D01*
X77610147Y-104235457D01*
X77666654Y-104194693D01*
X77711593Y-104162516D01*
X77742834Y-104140485D01*
X77749466Y-104135917D01*
X77786369Y-104112996D01*
X77834359Y-104086188D01*
X77883897Y-104060789D01*
X77890577Y-104057568D01*
X77938772Y-104035890D01*
X77976334Y-104023304D01*
X78012160Y-104017574D01*
X78054200Y-104016456D01*
X78130400Y-104017090D01*
X78130400Y-102862651D01*
X78036669Y-102953815D01*
X77986775Y-103000612D01*
X77930295Y-103050899D01*
X77876026Y-103096944D01*
X77850673Y-103117369D01*
X77811128Y-103147807D01*
X77757916Y-103187862D01*
X77692667Y-103236361D01*
X77617011Y-103292135D01*
X77532577Y-103354011D01*
X77440994Y-103420819D01*
X77343892Y-103491387D01*
X77242901Y-103564545D01*
X77139650Y-103639121D01*
X77035768Y-103713944D01*
X76932885Y-103787843D01*
X76832631Y-103859646D01*
X76736636Y-103928184D01*
X76646527Y-103992284D01*
X76563936Y-104050775D01*
X76490492Y-104102486D01*
X76427824Y-104146247D01*
X76377561Y-104180885D01*
X76341334Y-104205230D01*
X76320771Y-104218111D01*
X76316668Y-104219869D01*
X76305342Y-104211910D01*
X76278162Y-104191115D01*
X76236829Y-104158847D01*
X76183044Y-104116470D01*
X76118506Y-104065347D01*
X76044918Y-104006841D01*
X75963978Y-103942314D01*
X75877388Y-103873131D01*
X75786848Y-103800653D01*
X75694060Y-103726246D01*
X75619702Y-103666517D01*
X75619702Y-102655511D01*
X75632659Y-102649602D01*
X75654908Y-102635272D01*
X75656391Y-102634225D01*
X75686544Y-102615438D01*
X75723375Y-102595791D01*
X75731511Y-102591892D01*
X75739940Y-102588356D01*
X75750059Y-102585230D01*
X75763260Y-102582486D01*
X75780938Y-102580092D01*
X75804484Y-102578019D01*
X75835293Y-102576235D01*
X75874757Y-102574712D01*
X75924269Y-102573419D01*
X75985223Y-102572326D01*
X76059011Y-102571403D01*
X76147028Y-102570619D01*
X76250665Y-102569945D01*
X76371316Y-102569350D01*
X76510374Y-102568805D01*
X76669232Y-102568279D01*
X76848089Y-102567745D01*
X77033207Y-102567206D01*
X77197145Y-102566772D01*
X77341303Y-102566509D01*
X77467079Y-102566484D01*
X77575871Y-102566765D01*
X77669077Y-102567419D01*
X77748097Y-102568514D01*
X77814328Y-102570118D01*
X77869170Y-102572297D01*
X77914021Y-102575119D01*
X77950278Y-102578651D01*
X77979341Y-102582961D01*
X78002609Y-102588117D01*
X78021479Y-102594185D01*
X78037351Y-102601233D01*
X78051622Y-102609329D01*
X78065691Y-102618540D01*
X78078158Y-102627040D01*
X78104452Y-102644176D01*
X78122037Y-102654322D01*
X78125257Y-102655511D01*
X78126334Y-102644604D01*
X78127335Y-102613411D01*
X78128235Y-102564223D01*
X78129010Y-102499333D01*
X78129637Y-102421030D01*
X78130091Y-102331607D01*
X78130349Y-102233356D01*
X78130400Y-102164445D01*
X78130180Y-102059452D01*
X78129548Y-101962610D01*
X78128549Y-101876107D01*
X78127227Y-101802132D01*
X78125626Y-101742874D01*
X78123791Y-101700520D01*
X78121765Y-101677260D01*
X78120493Y-101673378D01*
X78105591Y-101681076D01*
X78097560Y-101689074D01*
X78080434Y-101702246D01*
X78050183Y-101719485D01*
X78025622Y-101731407D01*
X77966711Y-101758045D01*
X76789845Y-101761120D01*
X75612978Y-101764195D01*
X75612978Y-102209853D01*
X75613142Y-102307670D01*
X75613611Y-102398064D01*
X75614347Y-102478630D01*
X75615316Y-102546962D01*
X75616480Y-102600656D01*
X75617803Y-102637305D01*
X75619249Y-102654504D01*
X75619702Y-102655511D01*
X75619702Y-103666517D01*
X75600722Y-103651270D01*
X75508537Y-103577090D01*
X75419204Y-103505069D01*
X75334424Y-103436569D01*
X75255898Y-103372955D01*
X75185326Y-103315588D01*
X75124409Y-103265833D01*
X75074847Y-103225052D01*
X75054178Y-103207888D01*
X74953516Y-103121596D01*
X74870259Y-103044997D01*
X74802438Y-102976183D01*
X74748089Y-102913248D01*
X74740722Y-102903867D01*
X74710117Y-102864356D01*
X74709867Y-103996116D01*
X74757844Y-103990827D01*
X74815188Y-103994130D01*
X74883463Y-104015661D01*
X74963212Y-104055635D01*
X75035495Y-104100943D01*
X75058140Y-104117161D01*
X75095696Y-104145214D01*
X75146021Y-104183430D01*
X75206973Y-104230137D01*
X75276411Y-104283661D01*
X75352194Y-104342331D01*
X75432180Y-104404475D01*
X75514228Y-104468421D01*
X75596196Y-104532495D01*
X75675943Y-104595027D01*
X75751327Y-104654343D01*
X75820207Y-104708771D01*
X75880442Y-104756639D01*
X75929889Y-104796275D01*
X75966408Y-104826006D01*
X75987858Y-104844161D01*
X75991156Y-104847220D01*
X75983149Y-104850079D01*
X75952855Y-104852293D01*
X75900556Y-104853857D01*
X75826531Y-104854767D01*
X75731063Y-104855020D01*
X75614434Y-104854613D01*
X75494445Y-104853704D01*
X75362333Y-104852382D01*
X75250594Y-104850857D01*
X75157025Y-104848881D01*
X75079419Y-104846206D01*
X75015574Y-104842582D01*
X74963283Y-104837761D01*
X74920344Y-104831494D01*
X74884551Y-104823532D01*
X74853700Y-104813627D01*
X74825586Y-104801531D01*
X74798005Y-104786993D01*
X74772966Y-104772311D01*
X74709867Y-104734314D01*
X74709867Y-105794197D01*
X74709867Y-106097034D01*
X74703617Y-106097001D01*
X74601544Y-106096195D01*
X74512633Y-106095170D01*
X74435941Y-106093900D01*
X74370527Y-106092360D01*
X74315449Y-106090524D01*
X74269765Y-106088367D01*
X74232534Y-106085863D01*
X74202813Y-106082987D01*
X74179662Y-106079713D01*
X74162139Y-106076015D01*
X74149301Y-106071869D01*
X74140208Y-106067247D01*
X74133918Y-106062126D01*
X74129488Y-106056478D01*
X74125978Y-106050279D01*
X74122445Y-106043504D01*
X74118876Y-106037508D01*
X74116300Y-106032275D01*
X74113972Y-106024099D01*
X74111878Y-106011886D01*
X74110007Y-105994541D01*
X74108347Y-105970969D01*
X74106884Y-105940077D01*
X74105608Y-105900768D01*
X74104504Y-105851950D01*
X74103561Y-105792527D01*
X74102767Y-105721404D01*
X74102109Y-105637488D01*
X74101575Y-105539683D01*
X74101153Y-105426894D01*
X74100829Y-105298029D01*
X74100592Y-105151991D01*
X74100430Y-104987686D01*
X74100330Y-104804020D01*
X74100280Y-104599897D01*
X74100267Y-104388753D01*
X74100267Y-102768400D01*
X74197054Y-102768400D01*
G36*
X78982533Y-93593177D02*
X79004776Y-93561798D01*
X79032485Y-93534089D01*
X79341920Y-93534089D01*
X79433799Y-93534162D01*
X79505840Y-93534505D01*
X79560780Y-93535308D01*
X79601360Y-93536759D01*
X79630317Y-93539048D01*
X79650391Y-93542364D01*
X79664321Y-93546895D01*
X79674845Y-93552831D01*
X79681100Y-93557486D01*
X79705673Y-93588217D01*
X79708341Y-93623504D01*
X79693271Y-93655755D01*
X79684374Y-93666412D01*
X79672557Y-93673536D01*
X79653526Y-93677833D01*
X79622992Y-93680009D01*
X79576662Y-93680772D01*
X79540871Y-93680845D01*
X79406045Y-93680845D01*
X79406045Y-94177556D01*
X79528700Y-94177556D01*
X79584787Y-94178069D01*
X79623333Y-94180124D01*
X79649361Y-94184492D01*
X79667897Y-94191944D01*
X79681100Y-94200953D01*
X79705604Y-94231856D01*
X79708506Y-94266804D01*
X79691089Y-94300262D01*
X79681959Y-94309396D01*
X79669855Y-94315848D01*
X79651001Y-94320103D01*
X79621620Y-94322648D01*
X79577937Y-94323971D01*
X79516175Y-94324557D01*
X79502000Y-94324625D01*
X79385631Y-94325109D01*
X79289727Y-94325359D01*
X79212177Y-94325277D01*
X79150869Y-94324769D01*
X79103690Y-94323738D01*
X79068530Y-94322087D01*
X79043276Y-94319721D01*
X79025817Y-94316543D01*
X79014041Y-94312456D01*
X79005835Y-94307366D01*
X78999645Y-94301734D01*
X78979844Y-94269872D01*
X78982533Y-94236643D01*
X79004776Y-94205265D01*
X79019126Y-94192567D01*
X79034978Y-94184474D01*
X79057554Y-94179958D01*
X79092078Y-94177994D01*
X79143776Y-94177556D01*
X79259289Y-94177556D01*
X79259289Y-93680845D01*
X79140756Y-93680845D01*
X79086148Y-93680338D01*
X79049275Y-93678302D01*
X79025307Y-93673965D01*
X79009415Y-93666553D01*
X78999645Y-93658267D01*
X78979844Y-93626406D01*
X78982533Y-93593177D01*
X78982533Y-93593177D01*
G37*
X78982533Y-93593177D02*
X79004776Y-93561798D01*
X79032485Y-93534089D01*
X79341920Y-93534089D01*
X79433799Y-93534162D01*
X79505840Y-93534505D01*
X79560780Y-93535308D01*
X79601360Y-93536759D01*
X79630317Y-93539048D01*
X79650391Y-93542364D01*
X79664321Y-93546895D01*
X79674845Y-93552831D01*
X79681100Y-93557486D01*
X79705673Y-93588217D01*
X79708341Y-93623504D01*
X79693271Y-93655755D01*
X79684374Y-93666412D01*
X79672557Y-93673536D01*
X79653526Y-93677833D01*
X79622992Y-93680009D01*
X79576662Y-93680772D01*
X79540871Y-93680845D01*
X79406045Y-93680845D01*
X79406045Y-94177556D01*
X79528700Y-94177556D01*
X79584787Y-94178069D01*
X79623333Y-94180124D01*
X79649361Y-94184492D01*
X79667897Y-94191944D01*
X79681100Y-94200953D01*
X79705604Y-94231856D01*
X79708506Y-94266804D01*
X79691089Y-94300262D01*
X79681959Y-94309396D01*
X79669855Y-94315848D01*
X79651001Y-94320103D01*
X79621620Y-94322648D01*
X79577937Y-94323971D01*
X79516175Y-94324557D01*
X79502000Y-94324625D01*
X79385631Y-94325109D01*
X79289727Y-94325359D01*
X79212177Y-94325277D01*
X79150869Y-94324769D01*
X79103690Y-94323738D01*
X79068530Y-94322087D01*
X79043276Y-94319721D01*
X79025817Y-94316543D01*
X79014041Y-94312456D01*
X79005835Y-94307366D01*
X78999645Y-94301734D01*
X78979844Y-94269872D01*
X78982533Y-94236643D01*
X79004776Y-94205265D01*
X79019126Y-94192567D01*
X79034978Y-94184474D01*
X79057554Y-94179958D01*
X79092078Y-94177994D01*
X79143776Y-94177556D01*
X79259289Y-94177556D01*
X79259289Y-93680845D01*
X79140756Y-93680845D01*
X79086148Y-93680338D01*
X79049275Y-93678302D01*
X79025307Y-93673965D01*
X79009415Y-93666553D01*
X78999645Y-93658267D01*
X78979844Y-93626406D01*
X78982533Y-93593177D01*
G36*
X78977163Y-94858935D02*
X78977542Y-94780228D01*
X78978333Y-94719137D01*
X78979670Y-94673183D01*
X78981683Y-94639886D01*
X78984506Y-94616764D01*
X78988269Y-94601338D01*
X78993105Y-94591129D01*
X78996822Y-94586187D01*
X79029358Y-94560543D01*
X79063138Y-94557441D01*
X79093826Y-94573289D01*
X79106089Y-94583652D01*
X79114450Y-94594804D01*
X79119657Y-94610965D01*
X79122457Y-94636358D01*
X79123596Y-94675202D01*
X79123821Y-94731720D01*
X79123822Y-94742820D01*
X79123822Y-94888756D01*
X79394756Y-94888756D01*
X79480154Y-94888852D01*
X79545864Y-94889289D01*
X79594774Y-94890288D01*
X79629773Y-94892072D01*
X79653749Y-94894863D01*
X79669593Y-94898883D01*
X79680191Y-94904355D01*
X79688267Y-94911334D01*
X79708112Y-94944266D01*
X79706548Y-94978646D01*
X79683906Y-95009824D01*
X79681100Y-95012114D01*
X79670492Y-95019571D01*
X79658081Y-95025253D01*
X79640850Y-95029399D01*
X79615784Y-95032250D01*
X79579867Y-95034046D01*
X79530083Y-95035028D01*
X79463417Y-95035436D01*
X79387589Y-95035511D01*
X79123822Y-95035511D01*
X79123822Y-95174873D01*
X79123418Y-95234678D01*
X79121840Y-95276082D01*
X79118547Y-95303252D01*
X79112992Y-95320354D01*
X79104631Y-95331557D01*
X79103178Y-95332917D01*
X79069939Y-95349275D01*
X79032362Y-95347828D01*
X78999645Y-95329022D01*
X78993298Y-95321750D01*
X78988266Y-95312373D01*
X78984396Y-95298391D01*
X78981537Y-95277304D01*
X78979535Y-95246611D01*
X78978239Y-95203811D01*
X78977498Y-95146405D01*
X78977158Y-95071890D01*
X78977068Y-94977767D01*
X78977067Y-94957740D01*
X78977163Y-94858935D01*
X78977163Y-94858935D01*
G37*
X78977163Y-94858935D02*
X78977542Y-94780228D01*
X78978333Y-94719137D01*
X78979670Y-94673183D01*
X78981683Y-94639886D01*
X78984506Y-94616764D01*
X78988269Y-94601338D01*
X78993105Y-94591129D01*
X78996822Y-94586187D01*
X79029358Y-94560543D01*
X79063138Y-94557441D01*
X79093826Y-94573289D01*
X79106089Y-94583652D01*
X79114450Y-94594804D01*
X79119657Y-94610965D01*
X79122457Y-94636358D01*
X79123596Y-94675202D01*
X79123821Y-94731720D01*
X79123822Y-94742820D01*
X79123822Y-94888756D01*
X79394756Y-94888756D01*
X79480154Y-94888852D01*
X79545864Y-94889289D01*
X79594774Y-94890288D01*
X79629773Y-94892072D01*
X79653749Y-94894863D01*
X79669593Y-94898883D01*
X79680191Y-94904355D01*
X79688267Y-94911334D01*
X79708112Y-94944266D01*
X79706548Y-94978646D01*
X79683906Y-95009824D01*
X79681100Y-95012114D01*
X79670492Y-95019571D01*
X79658081Y-95025253D01*
X79640850Y-95029399D01*
X79615784Y-95032250D01*
X79579867Y-95034046D01*
X79530083Y-95035028D01*
X79463417Y-95035436D01*
X79387589Y-95035511D01*
X79123822Y-95035511D01*
X79123822Y-95174873D01*
X79123418Y-95234678D01*
X79121840Y-95276082D01*
X79118547Y-95303252D01*
X79112992Y-95320354D01*
X79104631Y-95331557D01*
X79103178Y-95332917D01*
X79069939Y-95349275D01*
X79032362Y-95347828D01*
X78999645Y-95329022D01*
X78993298Y-95321750D01*
X78988266Y-95312373D01*
X78984396Y-95298391D01*
X78981537Y-95277304D01*
X78979535Y-95246611D01*
X78978239Y-95203811D01*
X78977498Y-95146405D01*
X78977158Y-95071890D01*
X78977068Y-94977767D01*
X78977067Y-94957740D01*
X78977163Y-94858935D01*
G36*
X78983877Y-95633386D02*
X78998647Y-95609673D01*
X79020227Y-95583022D01*
X79341773Y-95583022D01*
X79435830Y-95583107D01*
X79509932Y-95583471D01*
X79566704Y-95584276D01*
X79608768Y-95585687D01*
X79638748Y-95587867D01*
X79659267Y-95590979D01*
X79672949Y-95595186D01*
X79682416Y-95600652D01*
X79687082Y-95604528D01*
X79707575Y-95635966D01*
X79706739Y-95671767D01*
X79689264Y-95703127D01*
X79667684Y-95729778D01*
X79020227Y-95729778D01*
X78998647Y-95703127D01*
X78982949Y-95677406D01*
X78977067Y-95656400D01*
X78983877Y-95633386D01*
X78983877Y-95633386D01*
G37*
X78983877Y-95633386D02*
X78998647Y-95609673D01*
X79020227Y-95583022D01*
X79341773Y-95583022D01*
X79435830Y-95583107D01*
X79509932Y-95583471D01*
X79566704Y-95584276D01*
X79608768Y-95585687D01*
X79638748Y-95587867D01*
X79659267Y-95590979D01*
X79672949Y-95595186D01*
X79682416Y-95600652D01*
X79687082Y-95604528D01*
X79707575Y-95635966D01*
X79706739Y-95671767D01*
X79689264Y-95703127D01*
X79667684Y-95729778D01*
X79020227Y-95729778D01*
X78998647Y-95703127D01*
X78982949Y-95677406D01*
X78977067Y-95656400D01*
X78983877Y-95633386D01*
G36*
X78979034Y-96077335D02*
X78986035Y-96057745D01*
X78986377Y-96056990D01*
X79006678Y-96030387D01*
X79027561Y-96015730D01*
X79037352Y-96012862D01*
X79050361Y-96013004D01*
X79068895Y-96017039D01*
X79095257Y-96025854D01*
X79131752Y-96040331D01*
X79180687Y-96061355D01*
X79244365Y-96089812D01*
X79325093Y-96126585D01*
X79369216Y-96146825D01*
X79447985Y-96183375D01*
X79520423Y-96217685D01*
X79583880Y-96248448D01*
X79635708Y-96274352D01*
X79673259Y-96294090D01*
X79693884Y-96306350D01*
X79696733Y-96308776D01*
X79709302Y-96339817D01*
X79707619Y-96374879D01*
X79692332Y-96403000D01*
X79691089Y-96404146D01*
X79674154Y-96415332D01*
X79641170Y-96434096D01*
X79596380Y-96458125D01*
X79544032Y-96485103D01*
X79524742Y-96494799D01*
X79378150Y-96567986D01*
X79537393Y-96647760D01*
X79592415Y-96676233D01*
X79640132Y-96702650D01*
X79676893Y-96724852D01*
X79699044Y-96740681D01*
X79703741Y-96746046D01*
X79710102Y-96787743D01*
X79696733Y-96822151D01*
X79682446Y-96832272D01*
X79650692Y-96849786D01*
X79604597Y-96873265D01*
X79547285Y-96901280D01*
X79481880Y-96932401D01*
X79411507Y-96965201D01*
X79339291Y-96998250D01*
X79268355Y-97030119D01*
X79201825Y-97059381D01*
X79142826Y-97084605D01*
X79094481Y-97104364D01*
X79059915Y-97117228D01*
X79042253Y-97121769D01*
X79041613Y-97121723D01*
X79019388Y-97110674D01*
X78996753Y-97088590D01*
X78995768Y-97087290D01*
X78980425Y-97060147D01*
X78980574Y-97035042D01*
X78983466Y-97025632D01*
X78989718Y-97014166D01*
X79002014Y-97001990D01*
X79022908Y-96987643D01*
X79054949Y-96969664D01*
X79100688Y-96946593D01*
X79162677Y-96916970D01*
X79219898Y-96890255D01*
X79286226Y-96859520D01*
X79345874Y-96831979D01*
X79395725Y-96809062D01*
X79432664Y-96792202D01*
X79453573Y-96782827D01*
X79456845Y-96781460D01*
X79451497Y-96775311D01*
X79429109Y-96761178D01*
X79392946Y-96740943D01*
X79346277Y-96716485D01*
X79327022Y-96706752D01*
X79262004Y-96673783D01*
X79214654Y-96648357D01*
X79182219Y-96628388D01*
X79161946Y-96611790D01*
X79151082Y-96596476D01*
X79146875Y-96580360D01*
X79146400Y-96569857D01*
X79148042Y-96551330D01*
X79154831Y-96535096D01*
X79169566Y-96518965D01*
X79195044Y-96500749D01*
X79234061Y-96478261D01*
X79289414Y-96449311D01*
X79320903Y-96433338D01*
X79371087Y-96407430D01*
X79412704Y-96384833D01*
X79442242Y-96367542D01*
X79456189Y-96357550D01*
X79456770Y-96356191D01*
X79445793Y-96349739D01*
X79417290Y-96335292D01*
X79374244Y-96314297D01*
X79319638Y-96288203D01*
X79256454Y-96258454D01*
X79225071Y-96243820D01*
X79144078Y-96205750D01*
X79081756Y-96175095D01*
X79036071Y-96150263D01*
X79004989Y-96129663D01*
X78986478Y-96111702D01*
X78978504Y-96094790D01*
X78979034Y-96077335D01*
X78979034Y-96077335D01*
G37*
X78979034Y-96077335D02*
X78986035Y-96057745D01*
X78986377Y-96056990D01*
X79006678Y-96030387D01*
X79027561Y-96015730D01*
X79037352Y-96012862D01*
X79050361Y-96013004D01*
X79068895Y-96017039D01*
X79095257Y-96025854D01*
X79131752Y-96040331D01*
X79180687Y-96061355D01*
X79244365Y-96089812D01*
X79325093Y-96126585D01*
X79369216Y-96146825D01*
X79447985Y-96183375D01*
X79520423Y-96217685D01*
X79583880Y-96248448D01*
X79635708Y-96274352D01*
X79673259Y-96294090D01*
X79693884Y-96306350D01*
X79696733Y-96308776D01*
X79709302Y-96339817D01*
X79707619Y-96374879D01*
X79692332Y-96403000D01*
X79691089Y-96404146D01*
X79674154Y-96415332D01*
X79641170Y-96434096D01*
X79596380Y-96458125D01*
X79544032Y-96485103D01*
X79524742Y-96494799D01*
X79378150Y-96567986D01*
X79537393Y-96647760D01*
X79592415Y-96676233D01*
X79640132Y-96702650D01*
X79676893Y-96724852D01*
X79699044Y-96740681D01*
X79703741Y-96746046D01*
X79710102Y-96787743D01*
X79696733Y-96822151D01*
X79682446Y-96832272D01*
X79650692Y-96849786D01*
X79604597Y-96873265D01*
X79547285Y-96901280D01*
X79481880Y-96932401D01*
X79411507Y-96965201D01*
X79339291Y-96998250D01*
X79268355Y-97030119D01*
X79201825Y-97059381D01*
X79142826Y-97084605D01*
X79094481Y-97104364D01*
X79059915Y-97117228D01*
X79042253Y-97121769D01*
X79041613Y-97121723D01*
X79019388Y-97110674D01*
X78996753Y-97088590D01*
X78995768Y-97087290D01*
X78980425Y-97060147D01*
X78980574Y-97035042D01*
X78983466Y-97025632D01*
X78989718Y-97014166D01*
X79002014Y-97001990D01*
X79022908Y-96987643D01*
X79054949Y-96969664D01*
X79100688Y-96946593D01*
X79162677Y-96916970D01*
X79219898Y-96890255D01*
X79286226Y-96859520D01*
X79345874Y-96831979D01*
X79395725Y-96809062D01*
X79432664Y-96792202D01*
X79453573Y-96782827D01*
X79456845Y-96781460D01*
X79451497Y-96775311D01*
X79429109Y-96761178D01*
X79392946Y-96740943D01*
X79346277Y-96716485D01*
X79327022Y-96706752D01*
X79262004Y-96673783D01*
X79214654Y-96648357D01*
X79182219Y-96628388D01*
X79161946Y-96611790D01*
X79151082Y-96596476D01*
X79146875Y-96580360D01*
X79146400Y-96569857D01*
X79148042Y-96551330D01*
X79154831Y-96535096D01*
X79169566Y-96518965D01*
X79195044Y-96500749D01*
X79234061Y-96478261D01*
X79289414Y-96449311D01*
X79320903Y-96433338D01*
X79371087Y-96407430D01*
X79412704Y-96384833D01*
X79442242Y-96367542D01*
X79456189Y-96357550D01*
X79456770Y-96356191D01*
X79445793Y-96349739D01*
X79417290Y-96335292D01*
X79374244Y-96314297D01*
X79319638Y-96288203D01*
X79256454Y-96258454D01*
X79225071Y-96243820D01*
X79144078Y-96205750D01*
X79081756Y-96175095D01*
X79036071Y-96150263D01*
X79004989Y-96129663D01*
X78986478Y-96111702D01*
X78978504Y-96094790D01*
X78979034Y-96077335D01*
G36*
X78977275Y-98803691D02*
X78981636Y-98674712D01*
X78994861Y-98565009D01*
X79017741Y-98472774D01*
X79051070Y-98396198D01*
X79095638Y-98333473D01*
X79152236Y-98282788D01*
X79221658Y-98242337D01*
X79223351Y-98241541D01*
X79285483Y-98217399D01*
X79340509Y-98208797D01*
X79395887Y-98215769D01*
X79459073Y-98238346D01*
X79468689Y-98242628D01*
X79524966Y-98271828D01*
X79568451Y-98304644D01*
X79605417Y-98346998D01*
X79642135Y-98404810D01*
X79644052Y-98408169D01*
X79668227Y-98458496D01*
X79686282Y-98515379D01*
X79698839Y-98582473D01*
X79706522Y-98663435D01*
X79709953Y-98761918D01*
X79710251Y-98796714D01*
X79710845Y-98962406D01*
X79681100Y-98985803D01*
X79671319Y-98992743D01*
X79659897Y-98998158D01*
X79644095Y-99002235D01*
X79621175Y-99005163D01*
X79588396Y-99007133D01*
X79564089Y-99007775D01*
X79564089Y-98851156D01*
X79564089Y-98757274D01*
X79562483Y-98702336D01*
X79558255Y-98645940D01*
X79552292Y-98599655D01*
X79551790Y-98596861D01*
X79529736Y-98514652D01*
X79496600Y-98450886D01*
X79450847Y-98403548D01*
X79390939Y-98370618D01*
X79375061Y-98364892D01*
X79350333Y-98359279D01*
X79325902Y-98361709D01*
X79293400Y-98373533D01*
X79277434Y-98380660D01*
X79235006Y-98404000D01*
X79205240Y-98432120D01*
X79184511Y-98463060D01*
X79157537Y-98525034D01*
X79137998Y-98604349D01*
X79126746Y-98696747D01*
X79124270Y-98763667D01*
X79123822Y-98851156D01*
X79564089Y-98851156D01*
X79564089Y-99007775D01*
X79543021Y-99008332D01*
X79482311Y-99008950D01*
X79403526Y-99009175D01*
X79341920Y-99009200D01*
X79032485Y-99009200D01*
X79004776Y-98981491D01*
X78993544Y-98969194D01*
X78985853Y-98955897D01*
X78981040Y-98937328D01*
X78978446Y-98909214D01*
X78977410Y-98867283D01*
X78977270Y-98807263D01*
X78977275Y-98803691D01*
X78977275Y-98803691D01*
G37*
X78977275Y-98803691D02*
X78981636Y-98674712D01*
X78994861Y-98565009D01*
X79017741Y-98472774D01*
X79051070Y-98396198D01*
X79095638Y-98333473D01*
X79152236Y-98282788D01*
X79221658Y-98242337D01*
X79223351Y-98241541D01*
X79285483Y-98217399D01*
X79340509Y-98208797D01*
X79395887Y-98215769D01*
X79459073Y-98238346D01*
X79468689Y-98242628D01*
X79524966Y-98271828D01*
X79568451Y-98304644D01*
X79605417Y-98346998D01*
X79642135Y-98404810D01*
X79644052Y-98408169D01*
X79668227Y-98458496D01*
X79686282Y-98515379D01*
X79698839Y-98582473D01*
X79706522Y-98663435D01*
X79709953Y-98761918D01*
X79710251Y-98796714D01*
X79710845Y-98962406D01*
X79681100Y-98985803D01*
X79671319Y-98992743D01*
X79659897Y-98998158D01*
X79644095Y-99002235D01*
X79621175Y-99005163D01*
X79588396Y-99007133D01*
X79564089Y-99007775D01*
X79564089Y-98851156D01*
X79564089Y-98757274D01*
X79562483Y-98702336D01*
X79558255Y-98645940D01*
X79552292Y-98599655D01*
X79551790Y-98596861D01*
X79529736Y-98514652D01*
X79496600Y-98450886D01*
X79450847Y-98403548D01*
X79390939Y-98370618D01*
X79375061Y-98364892D01*
X79350333Y-98359279D01*
X79325902Y-98361709D01*
X79293400Y-98373533D01*
X79277434Y-98380660D01*
X79235006Y-98404000D01*
X79205240Y-98432120D01*
X79184511Y-98463060D01*
X79157537Y-98525034D01*
X79137998Y-98604349D01*
X79126746Y-98696747D01*
X79124270Y-98763667D01*
X79123822Y-98851156D01*
X79564089Y-98851156D01*
X79564089Y-99007775D01*
X79543021Y-99008332D01*
X79482311Y-99008950D01*
X79403526Y-99009175D01*
X79341920Y-99009200D01*
X79032485Y-99009200D01*
X79004776Y-98981491D01*
X78993544Y-98969194D01*
X78985853Y-98955897D01*
X78981040Y-98937328D01*
X78978446Y-98909214D01*
X78977410Y-98867283D01*
X78977270Y-98807263D01*
X78977275Y-98803691D01*
G36*
X78977260Y-99591657D02*
X78978174Y-99515299D01*
X78980311Y-99456783D01*
X78984175Y-99413745D01*
X78990267Y-99383817D01*
X78999090Y-99364632D01*
X79011146Y-99353824D01*
X79026939Y-99349027D01*
X79046970Y-99347873D01*
X79049335Y-99347867D01*
X79071992Y-99348869D01*
X79089503Y-99353604D01*
X79102574Y-99364667D01*
X79111913Y-99384652D01*
X79118227Y-99416154D01*
X79122222Y-99461768D01*
X79124606Y-99524087D01*
X79126086Y-99605707D01*
X79126414Y-99630723D01*
X79129467Y-99872800D01*
X79194378Y-99876186D01*
X79259289Y-99879571D01*
X79259289Y-99711424D01*
X79259531Y-99645734D01*
X79260556Y-99598828D01*
X79262811Y-99566917D01*
X79266742Y-99546209D01*
X79272798Y-99532916D01*
X79281424Y-99523245D01*
X79281493Y-99523183D01*
X79315112Y-99505644D01*
X79351448Y-99506278D01*
X79382423Y-99524686D01*
X79385607Y-99528329D01*
X79393812Y-99541259D01*
X79399521Y-99558976D01*
X79403162Y-99585430D01*
X79405167Y-99624568D01*
X79405964Y-99680338D01*
X79406045Y-99716006D01*
X79406045Y-99878445D01*
X79564089Y-99878445D01*
X79564089Y-99631839D01*
X79564231Y-99550420D01*
X79564814Y-99488590D01*
X79566068Y-99443363D01*
X79568227Y-99411752D01*
X79571523Y-99390769D01*
X79576189Y-99377427D01*
X79582457Y-99368739D01*
X79584733Y-99366550D01*
X79616280Y-99350386D01*
X79652168Y-99349203D01*
X79683285Y-99362464D01*
X79693271Y-99372957D01*
X79698769Y-99383871D01*
X79703022Y-99400783D01*
X79706180Y-99426367D01*
X79708392Y-99463299D01*
X79709806Y-99514254D01*
X79710572Y-99581906D01*
X79710838Y-99668931D01*
X79710845Y-99688606D01*
X79710787Y-99777089D01*
X79710467Y-99845773D01*
X79709667Y-99897436D01*
X79708167Y-99934855D01*
X79705749Y-99960810D01*
X79702194Y-99978078D01*
X79697282Y-99989438D01*
X79690795Y-99997668D01*
X79686138Y-100002183D01*
X79677889Y-100008979D01*
X79667669Y-100014288D01*
X79652800Y-100018294D01*
X79630602Y-100021179D01*
X79598393Y-100023126D01*
X79553496Y-100024319D01*
X79493228Y-100024939D01*
X79414911Y-100025171D01*
X79348994Y-100025200D01*
X79256628Y-100025129D01*
X79184117Y-100024792D01*
X79128737Y-100024002D01*
X79087765Y-100022574D01*
X79058478Y-100020321D01*
X79038153Y-100017057D01*
X79024066Y-100012596D01*
X79013495Y-100006752D01*
X79006811Y-100001803D01*
X78977067Y-99978406D01*
X78977067Y-99688226D01*
X78977260Y-99591657D01*
X78977260Y-99591657D01*
G37*
X78977260Y-99591657D02*
X78978174Y-99515299D01*
X78980311Y-99456783D01*
X78984175Y-99413745D01*
X78990267Y-99383817D01*
X78999090Y-99364632D01*
X79011146Y-99353824D01*
X79026939Y-99349027D01*
X79046970Y-99347873D01*
X79049335Y-99347867D01*
X79071992Y-99348869D01*
X79089503Y-99353604D01*
X79102574Y-99364667D01*
X79111913Y-99384652D01*
X79118227Y-99416154D01*
X79122222Y-99461768D01*
X79124606Y-99524087D01*
X79126086Y-99605707D01*
X79126414Y-99630723D01*
X79129467Y-99872800D01*
X79194378Y-99876186D01*
X79259289Y-99879571D01*
X79259289Y-99711424D01*
X79259531Y-99645734D01*
X79260556Y-99598828D01*
X79262811Y-99566917D01*
X79266742Y-99546209D01*
X79272798Y-99532916D01*
X79281424Y-99523245D01*
X79281493Y-99523183D01*
X79315112Y-99505644D01*
X79351448Y-99506278D01*
X79382423Y-99524686D01*
X79385607Y-99528329D01*
X79393812Y-99541259D01*
X79399521Y-99558976D01*
X79403162Y-99585430D01*
X79405167Y-99624568D01*
X79405964Y-99680338D01*
X79406045Y-99716006D01*
X79406045Y-99878445D01*
X79564089Y-99878445D01*
X79564089Y-99631839D01*
X79564231Y-99550420D01*
X79564814Y-99488590D01*
X79566068Y-99443363D01*
X79568227Y-99411752D01*
X79571523Y-99390769D01*
X79576189Y-99377427D01*
X79582457Y-99368739D01*
X79584733Y-99366550D01*
X79616280Y-99350386D01*
X79652168Y-99349203D01*
X79683285Y-99362464D01*
X79693271Y-99372957D01*
X79698769Y-99383871D01*
X79703022Y-99400783D01*
X79706180Y-99426367D01*
X79708392Y-99463299D01*
X79709806Y-99514254D01*
X79710572Y-99581906D01*
X79710838Y-99668931D01*
X79710845Y-99688606D01*
X79710787Y-99777089D01*
X79710467Y-99845773D01*
X79709667Y-99897436D01*
X79708167Y-99934855D01*
X79705749Y-99960810D01*
X79702194Y-99978078D01*
X79697282Y-99989438D01*
X79690795Y-99997668D01*
X79686138Y-100002183D01*
X79677889Y-100008979D01*
X79667669Y-100014288D01*
X79652800Y-100018294D01*
X79630602Y-100021179D01*
X79598393Y-100023126D01*
X79553496Y-100024319D01*
X79493228Y-100024939D01*
X79414911Y-100025171D01*
X79348994Y-100025200D01*
X79256628Y-100025129D01*
X79184117Y-100024792D01*
X79128737Y-100024002D01*
X79087765Y-100022574D01*
X79058478Y-100020321D01*
X79038153Y-100017057D01*
X79024066Y-100012596D01*
X79013495Y-100006752D01*
X79006811Y-100001803D01*
X78977067Y-99978406D01*
X78977067Y-99688226D01*
X78977260Y-99591657D01*
G36*
X78981448Y-101122114D02*
X78995273Y-101098548D01*
X79017881Y-101067735D01*
X79050338Y-101028078D01*
X79093708Y-100977980D01*
X79149058Y-100915843D01*
X79217451Y-100840072D01*
X79296084Y-100753334D01*
X79459878Y-100572711D01*
X79240029Y-100567067D01*
X79164351Y-100565029D01*
X79107994Y-100563063D01*
X79067706Y-100560734D01*
X79040235Y-100557606D01*
X79022329Y-100553245D01*
X79010737Y-100547216D01*
X79002208Y-100539084D01*
X78998623Y-100534772D01*
X78979670Y-100500241D01*
X78982441Y-100467383D01*
X78998633Y-100441318D01*
X79020199Y-100414667D01*
X79335151Y-100411352D01*
X79427779Y-100410435D01*
X79500544Y-100409968D01*
X79556161Y-100410113D01*
X79597342Y-100411032D01*
X79626803Y-100412887D01*
X79647255Y-100415839D01*
X79661413Y-100420050D01*
X79671991Y-100425682D01*
X79680474Y-100431927D01*
X79696207Y-100445439D01*
X79706636Y-100458883D01*
X79710639Y-100474124D01*
X79707094Y-100493026D01*
X79694879Y-100517455D01*
X79672871Y-100549273D01*
X79639949Y-100590348D01*
X79594991Y-100642542D01*
X79536875Y-100707722D01*
X79470099Y-100781556D01*
X79229458Y-101046845D01*
X79448589Y-101052489D01*
X79524128Y-101054531D01*
X79580354Y-101056502D01*
X79620524Y-101058839D01*
X79647896Y-101061981D01*
X79665728Y-101066364D01*
X79677279Y-101072424D01*
X79685807Y-101080600D01*
X79689282Y-101084784D01*
X79708372Y-101121765D01*
X79705493Y-101156708D01*
X79681100Y-101187136D01*
X79671286Y-101194097D01*
X79659826Y-101199523D01*
X79643968Y-101203603D01*
X79620963Y-101206529D01*
X79588062Y-101208492D01*
X79542516Y-101209683D01*
X79481573Y-101210292D01*
X79402486Y-101210511D01*
X79343956Y-101210534D01*
X79252407Y-101210460D01*
X79180687Y-101210113D01*
X79126045Y-101209301D01*
X79085732Y-101207833D01*
X79056998Y-101205519D01*
X79037093Y-101202167D01*
X79023268Y-101197588D01*
X79012772Y-101191589D01*
X79006811Y-101187136D01*
X78992691Y-101175850D01*
X78982029Y-101165301D01*
X78975892Y-101153893D01*
X78975343Y-101140030D01*
X78981448Y-101122114D01*
X78981448Y-101122114D01*
G37*
X78981448Y-101122114D02*
X78995273Y-101098548D01*
X79017881Y-101067735D01*
X79050338Y-101028078D01*
X79093708Y-100977980D01*
X79149058Y-100915843D01*
X79217451Y-100840072D01*
X79296084Y-100753334D01*
X79459878Y-100572711D01*
X79240029Y-100567067D01*
X79164351Y-100565029D01*
X79107994Y-100563063D01*
X79067706Y-100560734D01*
X79040235Y-100557606D01*
X79022329Y-100553245D01*
X79010737Y-100547216D01*
X79002208Y-100539084D01*
X78998623Y-100534772D01*
X78979670Y-100500241D01*
X78982441Y-100467383D01*
X78998633Y-100441318D01*
X79020199Y-100414667D01*
X79335151Y-100411352D01*
X79427779Y-100410435D01*
X79500544Y-100409968D01*
X79556161Y-100410113D01*
X79597342Y-100411032D01*
X79626803Y-100412887D01*
X79647255Y-100415839D01*
X79661413Y-100420050D01*
X79671991Y-100425682D01*
X79680474Y-100431927D01*
X79696207Y-100445439D01*
X79706636Y-100458883D01*
X79710639Y-100474124D01*
X79707094Y-100493026D01*
X79694879Y-100517455D01*
X79672871Y-100549273D01*
X79639949Y-100590348D01*
X79594991Y-100642542D01*
X79536875Y-100707722D01*
X79470099Y-100781556D01*
X79229458Y-101046845D01*
X79448589Y-101052489D01*
X79524128Y-101054531D01*
X79580354Y-101056502D01*
X79620524Y-101058839D01*
X79647896Y-101061981D01*
X79665728Y-101066364D01*
X79677279Y-101072424D01*
X79685807Y-101080600D01*
X79689282Y-101084784D01*
X79708372Y-101121765D01*
X79705493Y-101156708D01*
X79681100Y-101187136D01*
X79671286Y-101194097D01*
X79659826Y-101199523D01*
X79643968Y-101203603D01*
X79620963Y-101206529D01*
X79588062Y-101208492D01*
X79542516Y-101209683D01*
X79481573Y-101210292D01*
X79402486Y-101210511D01*
X79343956Y-101210534D01*
X79252407Y-101210460D01*
X79180687Y-101210113D01*
X79126045Y-101209301D01*
X79085732Y-101207833D01*
X79056998Y-101205519D01*
X79037093Y-101202167D01*
X79023268Y-101197588D01*
X79012772Y-101191589D01*
X79006811Y-101187136D01*
X78992691Y-101175850D01*
X78982029Y-101165301D01*
X78975892Y-101153893D01*
X78975343Y-101140030D01*
X78981448Y-101122114D01*
G36*
X78982599Y-101772081D02*
X78994095Y-101703565D01*
X79011967Y-101650943D01*
X79035499Y-101616708D01*
X79048924Y-101607379D01*
X79080148Y-101597893D01*
X79108395Y-101604277D01*
X79135182Y-101624430D01*
X79147713Y-101655745D01*
X79146696Y-101701183D01*
X79139906Y-101736326D01*
X79126971Y-101814419D01*
X79125742Y-101894226D01*
X79136241Y-101983555D01*
X79140690Y-102008229D01*
X79164108Y-102091291D01*
X79198945Y-102156273D01*
X79244604Y-102202461D01*
X79300494Y-102229145D01*
X79329388Y-102234663D01*
X79388012Y-102231051D01*
X79439879Y-102207729D01*
X79483978Y-102166824D01*
X79519299Y-102110459D01*
X79544829Y-102040760D01*
X79559559Y-101959852D01*
X79562478Y-101869860D01*
X79552575Y-101772910D01*
X79551641Y-101767436D01*
X79544459Y-101728875D01*
X79537521Y-101707494D01*
X79527227Y-101698227D01*
X79509976Y-101696006D01*
X79500841Y-101695956D01*
X79462489Y-101695956D01*
X79462489Y-101764431D01*
X79458347Y-101824900D01*
X79445147Y-101866165D01*
X79421730Y-101890175D01*
X79386936Y-101898877D01*
X79382394Y-101898983D01*
X79352654Y-101893892D01*
X79331419Y-101876433D01*
X79317366Y-101843939D01*
X79309173Y-101793743D01*
X79306161Y-101745123D01*
X79304433Y-101674456D01*
X79307070Y-101623198D01*
X79316800Y-101588239D01*
X79336353Y-101566470D01*
X79368456Y-101554780D01*
X79415838Y-101550060D01*
X79478071Y-101549200D01*
X79547535Y-101550609D01*
X79594786Y-101554848D01*
X79620012Y-101561936D01*
X79621988Y-101563311D01*
X79653508Y-101602228D01*
X79678470Y-101659286D01*
X79696340Y-101730869D01*
X79706586Y-101813358D01*
X79708673Y-101903139D01*
X79702068Y-101996592D01*
X79693956Y-102051556D01*
X79669554Y-102137766D01*
X79629662Y-102217892D01*
X79577887Y-102284977D01*
X79567539Y-102295173D01*
X79524035Y-102328302D01*
X79470118Y-102358194D01*
X79413592Y-102381357D01*
X79362259Y-102394298D01*
X79342544Y-102395858D01*
X79301419Y-102389218D01*
X79250252Y-102371568D01*
X79196394Y-102346297D01*
X79147195Y-102316789D01*
X79114334Y-102290719D01*
X79065452Y-102229765D01*
X79026545Y-102150969D01*
X78998494Y-102057157D01*
X78982179Y-101951150D01*
X78978192Y-101854000D01*
X78982599Y-101772081D01*
X78982599Y-101772081D01*
G37*
X78982599Y-101772081D02*
X78994095Y-101703565D01*
X79011967Y-101650943D01*
X79035499Y-101616708D01*
X79048924Y-101607379D01*
X79080148Y-101597893D01*
X79108395Y-101604277D01*
X79135182Y-101624430D01*
X79147713Y-101655745D01*
X79146696Y-101701183D01*
X79139906Y-101736326D01*
X79126971Y-101814419D01*
X79125742Y-101894226D01*
X79136241Y-101983555D01*
X79140690Y-102008229D01*
X79164108Y-102091291D01*
X79198945Y-102156273D01*
X79244604Y-102202461D01*
X79300494Y-102229145D01*
X79329388Y-102234663D01*
X79388012Y-102231051D01*
X79439879Y-102207729D01*
X79483978Y-102166824D01*
X79519299Y-102110459D01*
X79544829Y-102040760D01*
X79559559Y-101959852D01*
X79562478Y-101869860D01*
X79552575Y-101772910D01*
X79551641Y-101767436D01*
X79544459Y-101728875D01*
X79537521Y-101707494D01*
X79527227Y-101698227D01*
X79509976Y-101696006D01*
X79500841Y-101695956D01*
X79462489Y-101695956D01*
X79462489Y-101764431D01*
X79458347Y-101824900D01*
X79445147Y-101866165D01*
X79421730Y-101890175D01*
X79386936Y-101898877D01*
X79382394Y-101898983D01*
X79352654Y-101893892D01*
X79331419Y-101876433D01*
X79317366Y-101843939D01*
X79309173Y-101793743D01*
X79306161Y-101745123D01*
X79304433Y-101674456D01*
X79307070Y-101623198D01*
X79316800Y-101588239D01*
X79336353Y-101566470D01*
X79368456Y-101554780D01*
X79415838Y-101550060D01*
X79478071Y-101549200D01*
X79547535Y-101550609D01*
X79594786Y-101554848D01*
X79620012Y-101561936D01*
X79621988Y-101563311D01*
X79653508Y-101602228D01*
X79678470Y-101659286D01*
X79696340Y-101730869D01*
X79706586Y-101813358D01*
X79708673Y-101903139D01*
X79702068Y-101996592D01*
X79693956Y-102051556D01*
X79669554Y-102137766D01*
X79629662Y-102217892D01*
X79577887Y-102284977D01*
X79567539Y-102295173D01*
X79524035Y-102328302D01*
X79470118Y-102358194D01*
X79413592Y-102381357D01*
X79362259Y-102394298D01*
X79342544Y-102395858D01*
X79301419Y-102389218D01*
X79250252Y-102371568D01*
X79196394Y-102346297D01*
X79147195Y-102316789D01*
X79114334Y-102290719D01*
X79065452Y-102229765D01*
X79026545Y-102150969D01*
X78998494Y-102057157D01*
X78982179Y-101951150D01*
X78978192Y-101854000D01*
X78982599Y-101772081D01*
G36*
X78999645Y-102745822D02*
X79007218Y-102739242D01*
X79016987Y-102734079D01*
X79031571Y-102730164D01*
X79053585Y-102727324D01*
X79085648Y-102725387D01*
X79130375Y-102724183D01*
X79190385Y-102723539D01*
X79268294Y-102723284D01*
X79343956Y-102723245D01*
X79437802Y-102723314D01*
X79511689Y-102723638D01*
X79568232Y-102724386D01*
X79610049Y-102725732D01*
X79639757Y-102727846D01*
X79659973Y-102730900D01*
X79673314Y-102735066D01*
X79682398Y-102740516D01*
X79688267Y-102745822D01*
X79707947Y-102778826D01*
X79706181Y-102813991D01*
X79684717Y-102845455D01*
X79676337Y-102852684D01*
X79666614Y-102858334D01*
X79652861Y-102862599D01*
X79632389Y-102865673D01*
X79602512Y-102867752D01*
X79560541Y-102869030D01*
X79503789Y-102869701D01*
X79429567Y-102869959D01*
X79345537Y-102870000D01*
X79032485Y-102870000D01*
X79004776Y-102842291D01*
X78981463Y-102808137D01*
X78980623Y-102775006D01*
X78999645Y-102745822D01*
X78999645Y-102745822D01*
G37*
X78999645Y-102745822D02*
X79007218Y-102739242D01*
X79016987Y-102734079D01*
X79031571Y-102730164D01*
X79053585Y-102727324D01*
X79085648Y-102725387D01*
X79130375Y-102724183D01*
X79190385Y-102723539D01*
X79268294Y-102723284D01*
X79343956Y-102723245D01*
X79437802Y-102723314D01*
X79511689Y-102723638D01*
X79568232Y-102724386D01*
X79610049Y-102725732D01*
X79639757Y-102727846D01*
X79659973Y-102730900D01*
X79673314Y-102735066D01*
X79682398Y-102740516D01*
X79688267Y-102745822D01*
X79707947Y-102778826D01*
X79706181Y-102813991D01*
X79684717Y-102845455D01*
X79676337Y-102852684D01*
X79666614Y-102858334D01*
X79652861Y-102862599D01*
X79632389Y-102865673D01*
X79602512Y-102867752D01*
X79560541Y-102869030D01*
X79503789Y-102869701D01*
X79429567Y-102869959D01*
X79345537Y-102870000D01*
X79032485Y-102870000D01*
X79004776Y-102842291D01*
X78981463Y-102808137D01*
X78980623Y-102775006D01*
X78999645Y-102745822D01*
G36*
X78978351Y-103513703D02*
X78983581Y-103438888D01*
X78991750Y-103369306D01*
X79002550Y-103309002D01*
X79015673Y-103262020D01*
X79030813Y-103232406D01*
X79035269Y-103227860D01*
X79069850Y-103212054D01*
X79105351Y-103216847D01*
X79135725Y-103241364D01*
X79136596Y-103242534D01*
X79145954Y-103256954D01*
X79150876Y-103272008D01*
X79151473Y-103293005D01*
X79147861Y-103325257D01*
X79140154Y-103374073D01*
X79139505Y-103378000D01*
X79130569Y-103450739D01*
X79126161Y-103529217D01*
X79126119Y-103607927D01*
X79130279Y-103681361D01*
X79138479Y-103744011D01*
X79150557Y-103790370D01*
X79151771Y-103793416D01*
X79170615Y-103827048D01*
X79189685Y-103838864D01*
X79208439Y-103829614D01*
X79226337Y-103800047D01*
X79242837Y-103750911D01*
X79257396Y-103682957D01*
X79264406Y-103637645D01*
X79277889Y-103543456D01*
X79290214Y-103468544D01*
X79302449Y-103409717D01*
X79315661Y-103363785D01*
X79330917Y-103327555D01*
X79349285Y-103297838D01*
X79371831Y-103271442D01*
X79393971Y-103250230D01*
X79424819Y-103225065D01*
X79451345Y-103212681D01*
X79484026Y-103208808D01*
X79495995Y-103208667D01*
X79535712Y-103211576D01*
X79565259Y-103223202D01*
X79591486Y-103243323D01*
X79631576Y-103284216D01*
X79662149Y-103329817D01*
X79684203Y-103383513D01*
X79698735Y-103448692D01*
X79706741Y-103528744D01*
X79709218Y-103627057D01*
X79709177Y-103643289D01*
X79707818Y-103708849D01*
X79704730Y-103773866D01*
X79700356Y-103831252D01*
X79695140Y-103873922D01*
X79694541Y-103877372D01*
X79684491Y-103919796D01*
X79671796Y-103955780D01*
X79660190Y-103976150D01*
X79629572Y-103995107D01*
X79593918Y-103996427D01*
X79562144Y-103980085D01*
X79558551Y-103976429D01*
X79547876Y-103961315D01*
X79543276Y-103942415D01*
X79544059Y-103913162D01*
X79548127Y-103877651D01*
X79551762Y-103837970D01*
X79554828Y-103782345D01*
X79557053Y-103717406D01*
X79558164Y-103649785D01*
X79558237Y-103632000D01*
X79557964Y-103564128D01*
X79556646Y-103514454D01*
X79553827Y-103478610D01*
X79549050Y-103452224D01*
X79541857Y-103430926D01*
X79535867Y-103418126D01*
X79519233Y-103390000D01*
X79504168Y-103372068D01*
X79499897Y-103369447D01*
X79482263Y-103374976D01*
X79465192Y-103401260D01*
X79449458Y-103446478D01*
X79435838Y-103508808D01*
X79432804Y-103527171D01*
X79417738Y-103623090D01*
X79405146Y-103699641D01*
X79394111Y-103759780D01*
X79383720Y-103806460D01*
X79373056Y-103842637D01*
X79361205Y-103871265D01*
X79347251Y-103895298D01*
X79330281Y-103917692D01*
X79309378Y-103941402D01*
X79302049Y-103949380D01*
X79274699Y-103977353D01*
X79253029Y-103992160D01*
X79228232Y-103997952D01*
X79196983Y-103998889D01*
X79135705Y-103988575D01*
X79083640Y-103957752D01*
X79040958Y-103906595D01*
X79007825Y-103835283D01*
X78992964Y-103784400D01*
X78983366Y-103729100D01*
X78977936Y-103662853D01*
X78976367Y-103589706D01*
X78978351Y-103513703D01*
X78978351Y-103513703D01*
G37*
X78978351Y-103513703D02*
X78983581Y-103438888D01*
X78991750Y-103369306D01*
X79002550Y-103309002D01*
X79015673Y-103262020D01*
X79030813Y-103232406D01*
X79035269Y-103227860D01*
X79069850Y-103212054D01*
X79105351Y-103216847D01*
X79135725Y-103241364D01*
X79136596Y-103242534D01*
X79145954Y-103256954D01*
X79150876Y-103272008D01*
X79151473Y-103293005D01*
X79147861Y-103325257D01*
X79140154Y-103374073D01*
X79139505Y-103378000D01*
X79130569Y-103450739D01*
X79126161Y-103529217D01*
X79126119Y-103607927D01*
X79130279Y-103681361D01*
X79138479Y-103744011D01*
X79150557Y-103790370D01*
X79151771Y-103793416D01*
X79170615Y-103827048D01*
X79189685Y-103838864D01*
X79208439Y-103829614D01*
X79226337Y-103800047D01*
X79242837Y-103750911D01*
X79257396Y-103682957D01*
X79264406Y-103637645D01*
X79277889Y-103543456D01*
X79290214Y-103468544D01*
X79302449Y-103409717D01*
X79315661Y-103363785D01*
X79330917Y-103327555D01*
X79349285Y-103297838D01*
X79371831Y-103271442D01*
X79393971Y-103250230D01*
X79424819Y-103225065D01*
X79451345Y-103212681D01*
X79484026Y-103208808D01*
X79495995Y-103208667D01*
X79535712Y-103211576D01*
X79565259Y-103223202D01*
X79591486Y-103243323D01*
X79631576Y-103284216D01*
X79662149Y-103329817D01*
X79684203Y-103383513D01*
X79698735Y-103448692D01*
X79706741Y-103528744D01*
X79709218Y-103627057D01*
X79709177Y-103643289D01*
X79707818Y-103708849D01*
X79704730Y-103773866D01*
X79700356Y-103831252D01*
X79695140Y-103873922D01*
X79694541Y-103877372D01*
X79684491Y-103919796D01*
X79671796Y-103955780D01*
X79660190Y-103976150D01*
X79629572Y-103995107D01*
X79593918Y-103996427D01*
X79562144Y-103980085D01*
X79558551Y-103976429D01*
X79547876Y-103961315D01*
X79543276Y-103942415D01*
X79544059Y-103913162D01*
X79548127Y-103877651D01*
X79551762Y-103837970D01*
X79554828Y-103782345D01*
X79557053Y-103717406D01*
X79558164Y-103649785D01*
X79558237Y-103632000D01*
X79557964Y-103564128D01*
X79556646Y-103514454D01*
X79553827Y-103478610D01*
X79549050Y-103452224D01*
X79541857Y-103430926D01*
X79535867Y-103418126D01*
X79519233Y-103390000D01*
X79504168Y-103372068D01*
X79499897Y-103369447D01*
X79482263Y-103374976D01*
X79465192Y-103401260D01*
X79449458Y-103446478D01*
X79435838Y-103508808D01*
X79432804Y-103527171D01*
X79417738Y-103623090D01*
X79405146Y-103699641D01*
X79394111Y-103759780D01*
X79383720Y-103806460D01*
X79373056Y-103842637D01*
X79361205Y-103871265D01*
X79347251Y-103895298D01*
X79330281Y-103917692D01*
X79309378Y-103941402D01*
X79302049Y-103949380D01*
X79274699Y-103977353D01*
X79253029Y-103992160D01*
X79228232Y-103997952D01*
X79196983Y-103998889D01*
X79135705Y-103988575D01*
X79083640Y-103957752D01*
X79040958Y-103906595D01*
X79007825Y-103835283D01*
X78992964Y-103784400D01*
X78983366Y-103729100D01*
X78977936Y-103662853D01*
X78976367Y-103589706D01*
X78978351Y-103513703D01*
G36*
X78977146Y-104534794D02*
X78977518Y-104465386D01*
X78978385Y-104412997D01*
X78979946Y-104374847D01*
X78982403Y-104348159D01*
X78985957Y-104330153D01*
X78990810Y-104318049D01*
X78997161Y-104309069D01*
X79000084Y-104305818D01*
X79031142Y-104286043D01*
X79066828Y-104282482D01*
X79098510Y-104295491D01*
X79104913Y-104301506D01*
X79111121Y-104311235D01*
X79115910Y-104326901D01*
X79119514Y-104351408D01*
X79122164Y-104387661D01*
X79124095Y-104438565D01*
X79125539Y-104507026D01*
X79126418Y-104569617D01*
X79129467Y-104817334D01*
X79194378Y-104820719D01*
X79259289Y-104824105D01*
X79259289Y-104655958D01*
X79259919Y-104582959D01*
X79262553Y-104529517D01*
X79268309Y-104492628D01*
X79278304Y-104469288D01*
X79293656Y-104456494D01*
X79315482Y-104451242D01*
X79335738Y-104450445D01*
X79360592Y-104452923D01*
X79378906Y-104462277D01*
X79391637Y-104481383D01*
X79399741Y-104513118D01*
X79404176Y-104560359D01*
X79405899Y-104625983D01*
X79406045Y-104661801D01*
X79406045Y-104822978D01*
X79564089Y-104822978D01*
X79564089Y-104574622D01*
X79564202Y-104493213D01*
X79564712Y-104431342D01*
X79565870Y-104385968D01*
X79567930Y-104354054D01*
X79571146Y-104332559D01*
X79575772Y-104318443D01*
X79582059Y-104308668D01*
X79586667Y-104303689D01*
X79613560Y-104286610D01*
X79637467Y-104281111D01*
X79666667Y-104288963D01*
X79688267Y-104303689D01*
X79695066Y-104311546D01*
X79700346Y-104321688D01*
X79704298Y-104336844D01*
X79707113Y-104359741D01*
X79708982Y-104393109D01*
X79710098Y-104439675D01*
X79710651Y-104502167D01*
X79710833Y-104583314D01*
X79710845Y-104625422D01*
X79710765Y-104715598D01*
X79710398Y-104785924D01*
X79709552Y-104839129D01*
X79708036Y-104877940D01*
X79705659Y-104905087D01*
X79702229Y-104923298D01*
X79697554Y-104935300D01*
X79691444Y-104943822D01*
X79688267Y-104947156D01*
X79680670Y-104953755D01*
X79670870Y-104958927D01*
X79656239Y-104962846D01*
X79634152Y-104965684D01*
X79601982Y-104967615D01*
X79557103Y-104968812D01*
X79496889Y-104969448D01*
X79418713Y-104969697D01*
X79345923Y-104969734D01*
X79252707Y-104969700D01*
X79179431Y-104969465D01*
X79123458Y-104968830D01*
X79082151Y-104967594D01*
X79052872Y-104965556D01*
X79032984Y-104962517D01*
X79019850Y-104958277D01*
X79010832Y-104952635D01*
X79003293Y-104945391D01*
X79001612Y-104943606D01*
X78994172Y-104934945D01*
X78988409Y-104924882D01*
X78984112Y-104910625D01*
X78981064Y-104889383D01*
X78979051Y-104858364D01*
X78977860Y-104814777D01*
X78977275Y-104755831D01*
X78977083Y-104678734D01*
X78977067Y-104624001D01*
X78977146Y-104534794D01*
X78977146Y-104534794D01*
G37*
X78977146Y-104534794D02*
X78977518Y-104465386D01*
X78978385Y-104412997D01*
X78979946Y-104374847D01*
X78982403Y-104348159D01*
X78985957Y-104330153D01*
X78990810Y-104318049D01*
X78997161Y-104309069D01*
X79000084Y-104305818D01*
X79031142Y-104286043D01*
X79066828Y-104282482D01*
X79098510Y-104295491D01*
X79104913Y-104301506D01*
X79111121Y-104311235D01*
X79115910Y-104326901D01*
X79119514Y-104351408D01*
X79122164Y-104387661D01*
X79124095Y-104438565D01*
X79125539Y-104507026D01*
X79126418Y-104569617D01*
X79129467Y-104817334D01*
X79194378Y-104820719D01*
X79259289Y-104824105D01*
X79259289Y-104655958D01*
X79259919Y-104582959D01*
X79262553Y-104529517D01*
X79268309Y-104492628D01*
X79278304Y-104469288D01*
X79293656Y-104456494D01*
X79315482Y-104451242D01*
X79335738Y-104450445D01*
X79360592Y-104452923D01*
X79378906Y-104462277D01*
X79391637Y-104481383D01*
X79399741Y-104513118D01*
X79404176Y-104560359D01*
X79405899Y-104625983D01*
X79406045Y-104661801D01*
X79406045Y-104822978D01*
X79564089Y-104822978D01*
X79564089Y-104574622D01*
X79564202Y-104493213D01*
X79564712Y-104431342D01*
X79565870Y-104385968D01*
X79567930Y-104354054D01*
X79571146Y-104332559D01*
X79575772Y-104318443D01*
X79582059Y-104308668D01*
X79586667Y-104303689D01*
X79613560Y-104286610D01*
X79637467Y-104281111D01*
X79666667Y-104288963D01*
X79688267Y-104303689D01*
X79695066Y-104311546D01*
X79700346Y-104321688D01*
X79704298Y-104336844D01*
X79707113Y-104359741D01*
X79708982Y-104393109D01*
X79710098Y-104439675D01*
X79710651Y-104502167D01*
X79710833Y-104583314D01*
X79710845Y-104625422D01*
X79710765Y-104715598D01*
X79710398Y-104785924D01*
X79709552Y-104839129D01*
X79708036Y-104877940D01*
X79705659Y-104905087D01*
X79702229Y-104923298D01*
X79697554Y-104935300D01*
X79691444Y-104943822D01*
X79688267Y-104947156D01*
X79680670Y-104953755D01*
X79670870Y-104958927D01*
X79656239Y-104962846D01*
X79634152Y-104965684D01*
X79601982Y-104967615D01*
X79557103Y-104968812D01*
X79496889Y-104969448D01*
X79418713Y-104969697D01*
X79345923Y-104969734D01*
X79252707Y-104969700D01*
X79179431Y-104969465D01*
X79123458Y-104968830D01*
X79082151Y-104967594D01*
X79052872Y-104965556D01*
X79032984Y-104962517D01*
X79019850Y-104958277D01*
X79010832Y-104952635D01*
X79003293Y-104945391D01*
X79001612Y-104943606D01*
X78994172Y-104934945D01*
X78988409Y-104924882D01*
X78984112Y-104910625D01*
X78981064Y-104889383D01*
X78979051Y-104858364D01*
X78977860Y-104814777D01*
X78977275Y-104755831D01*
X78977083Y-104678734D01*
X78977067Y-104624001D01*
X78977146Y-104534794D01*
G36*
X78977066Y-105943371D02*
X78977467Y-105903889D01*
X78980259Y-105788200D01*
X78988550Y-105691311D01*
X79003232Y-105609919D01*
X79025193Y-105540723D01*
X79055322Y-105480420D01*
X79094510Y-105425708D01*
X79111532Y-105406167D01*
X79151363Y-105373750D01*
X79205413Y-105344520D01*
X79265323Y-105321991D01*
X79322739Y-105309679D01*
X79343956Y-105308400D01*
X79402769Y-105316417D01*
X79467013Y-105337899D01*
X79527821Y-105368999D01*
X79576330Y-105405866D01*
X79582182Y-105411854D01*
X79623321Y-105462579D01*
X79655435Y-105518125D01*
X79679365Y-105581696D01*
X79695953Y-105656494D01*
X79706041Y-105745722D01*
X79710469Y-105852582D01*
X79710845Y-105901528D01*
X79710545Y-105963762D01*
X79709292Y-106007528D01*
X79706554Y-106036931D01*
X79701801Y-106056079D01*
X79694501Y-106069077D01*
X79688267Y-106076045D01*
X79680694Y-106082626D01*
X79670924Y-106087788D01*
X79656340Y-106091703D01*
X79634326Y-106094543D01*
X79602264Y-106096480D01*
X79557536Y-106097684D01*
X79497526Y-106098328D01*
X79419617Y-106098583D01*
X79343956Y-106098622D01*
X79243041Y-106098870D01*
X79162427Y-106098817D01*
X79123822Y-106097857D01*
X79123822Y-105951867D01*
X79564089Y-105951867D01*
X79564004Y-105858734D01*
X79562396Y-105802693D01*
X79558256Y-105743999D01*
X79552464Y-105695028D01*
X79552226Y-105693538D01*
X79533090Y-105614392D01*
X79503287Y-105553002D01*
X79460878Y-105506305D01*
X79414961Y-105476635D01*
X79364026Y-105458353D01*
X79316200Y-105459771D01*
X79264933Y-105480988D01*
X79211899Y-105522489D01*
X79172600Y-105579998D01*
X79146331Y-105654750D01*
X79137035Y-105704708D01*
X79130507Y-105761416D01*
X79125782Y-105821519D01*
X79123817Y-105872639D01*
X79123808Y-105875667D01*
X79123822Y-105951867D01*
X79123822Y-106097857D01*
X79099851Y-106097260D01*
X79053055Y-106092998D01*
X79019778Y-106084830D01*
X78997759Y-106071556D01*
X78984739Y-106051974D01*
X78978457Y-106024883D01*
X78976653Y-105989082D01*
X78977066Y-105943371D01*
X78977066Y-105943371D01*
G37*
X78977066Y-105943371D02*
X78977467Y-105903889D01*
X78980259Y-105788200D01*
X78988550Y-105691311D01*
X79003232Y-105609919D01*
X79025193Y-105540723D01*
X79055322Y-105480420D01*
X79094510Y-105425708D01*
X79111532Y-105406167D01*
X79151363Y-105373750D01*
X79205413Y-105344520D01*
X79265323Y-105321991D01*
X79322739Y-105309679D01*
X79343956Y-105308400D01*
X79402769Y-105316417D01*
X79467013Y-105337899D01*
X79527821Y-105368999D01*
X79576330Y-105405866D01*
X79582182Y-105411854D01*
X79623321Y-105462579D01*
X79655435Y-105518125D01*
X79679365Y-105581696D01*
X79695953Y-105656494D01*
X79706041Y-105745722D01*
X79710469Y-105852582D01*
X79710845Y-105901528D01*
X79710545Y-105963762D01*
X79709292Y-106007528D01*
X79706554Y-106036931D01*
X79701801Y-106056079D01*
X79694501Y-106069077D01*
X79688267Y-106076045D01*
X79680694Y-106082626D01*
X79670924Y-106087788D01*
X79656340Y-106091703D01*
X79634326Y-106094543D01*
X79602264Y-106096480D01*
X79557536Y-106097684D01*
X79497526Y-106098328D01*
X79419617Y-106098583D01*
X79343956Y-106098622D01*
X79243041Y-106098870D01*
X79162427Y-106098817D01*
X79123822Y-106097857D01*
X79123822Y-105951867D01*
X79564089Y-105951867D01*
X79564004Y-105858734D01*
X79562396Y-105802693D01*
X79558256Y-105743999D01*
X79552464Y-105695028D01*
X79552226Y-105693538D01*
X79533090Y-105614392D01*
X79503287Y-105553002D01*
X79460878Y-105506305D01*
X79414961Y-105476635D01*
X79364026Y-105458353D01*
X79316200Y-105459771D01*
X79264933Y-105480988D01*
X79211899Y-105522489D01*
X79172600Y-105579998D01*
X79146331Y-105654750D01*
X79137035Y-105704708D01*
X79130507Y-105761416D01*
X79125782Y-105821519D01*
X79123817Y-105872639D01*
X79123808Y-105875667D01*
X79123822Y-105951867D01*
X79123822Y-106097857D01*
X79099851Y-106097260D01*
X79053055Y-106092998D01*
X79019778Y-106084830D01*
X78997759Y-106071556D01*
X78984739Y-106051974D01*
X78978457Y-106024883D01*
X78976653Y-105989082D01*
X78977066Y-105943371D01*
G04 #@! TO.C,B1*
D11*
X86062457Y-96766742D02*
X86091485Y-96679657D01*
X86120514Y-96650628D01*
X86178571Y-96621600D01*
X86265657Y-96621600D01*
X86323714Y-96650628D01*
X86352742Y-96679657D01*
X86381771Y-96737714D01*
X86381771Y-96969942D01*
X85772171Y-96969942D01*
X85772171Y-96766742D01*
X85801200Y-96708685D01*
X85830228Y-96679657D01*
X85888285Y-96650628D01*
X85946342Y-96650628D01*
X86004400Y-96679657D01*
X86033428Y-96708685D01*
X86062457Y-96766742D01*
X86062457Y-96969942D01*
X86381771Y-96041028D02*
X86381771Y-96389371D01*
X86381771Y-96215200D02*
X85772171Y-96215200D01*
X85859257Y-96273257D01*
X85917314Y-96331314D01*
X85946342Y-96389371D01*
X86352742Y-108697485D02*
X86381771Y-108610400D01*
X86381771Y-108465257D01*
X86352742Y-108407200D01*
X86323714Y-108378171D01*
X86265657Y-108349142D01*
X86207600Y-108349142D01*
X86149542Y-108378171D01*
X86120514Y-108407200D01*
X86091485Y-108465257D01*
X86062457Y-108581371D01*
X86033428Y-108639428D01*
X86004400Y-108668457D01*
X85946342Y-108697485D01*
X85888285Y-108697485D01*
X85830228Y-108668457D01*
X85801200Y-108639428D01*
X85772171Y-108581371D01*
X85772171Y-108436228D01*
X85801200Y-108349142D01*
X86381771Y-108087885D02*
X85772171Y-108087885D01*
X85772171Y-107855657D01*
X85801200Y-107797600D01*
X85830228Y-107768571D01*
X85888285Y-107739542D01*
X85975371Y-107739542D01*
X86033428Y-107768571D01*
X86062457Y-107797600D01*
X86091485Y-107855657D01*
X86091485Y-108087885D01*
X86207600Y-107507314D02*
X86207600Y-107217028D01*
X86381771Y-107565371D02*
X85772171Y-107362171D01*
X86381771Y-107158971D01*
X86381771Y-106607428D02*
X86091485Y-106810628D01*
X86381771Y-106955771D02*
X85772171Y-106955771D01*
X85772171Y-106723542D01*
X85801200Y-106665485D01*
X85830228Y-106636457D01*
X85888285Y-106607428D01*
X85975371Y-106607428D01*
X86033428Y-106636457D01*
X86062457Y-106665485D01*
X86091485Y-106723542D01*
X86091485Y-106955771D01*
X86381771Y-106346171D02*
X85772171Y-106346171D01*
X86381771Y-105997828D02*
X86033428Y-106259085D01*
X85772171Y-105997828D02*
X86120514Y-106346171D01*
X86062457Y-105533371D02*
X86062457Y-105736571D01*
X86381771Y-105736571D02*
X85772171Y-105736571D01*
X85772171Y-105446285D01*
X85772171Y-105214057D02*
X86265657Y-105214057D01*
X86323714Y-105185028D01*
X86352742Y-105156000D01*
X86381771Y-105097942D01*
X86381771Y-104981828D01*
X86352742Y-104923771D01*
X86323714Y-104894742D01*
X86265657Y-104865714D01*
X85772171Y-104865714D01*
X86381771Y-104575428D02*
X85772171Y-104575428D01*
X86381771Y-104227085D01*
X85772171Y-104227085D01*
X86439828Y-104081942D02*
X86439828Y-103617485D01*
X86381771Y-103472342D02*
X85772171Y-103472342D01*
X85772171Y-103240114D01*
X85801200Y-103182057D01*
X85830228Y-103153028D01*
X85888285Y-103124000D01*
X85975371Y-103124000D01*
X86033428Y-103153028D01*
X86062457Y-103182057D01*
X86091485Y-103240114D01*
X86091485Y-103472342D01*
X86381771Y-102514400D02*
X86091485Y-102717600D01*
X86381771Y-102862742D02*
X85772171Y-102862742D01*
X85772171Y-102630514D01*
X85801200Y-102572457D01*
X85830228Y-102543428D01*
X85888285Y-102514400D01*
X85975371Y-102514400D01*
X86033428Y-102543428D01*
X86062457Y-102572457D01*
X86091485Y-102630514D01*
X86091485Y-102862742D01*
X85772171Y-102137028D02*
X85772171Y-102020914D01*
X85801200Y-101962857D01*
X85859257Y-101904800D01*
X85975371Y-101875771D01*
X86178571Y-101875771D01*
X86294685Y-101904800D01*
X86352742Y-101962857D01*
X86381771Y-102020914D01*
X86381771Y-102137028D01*
X86352742Y-102195085D01*
X86294685Y-102253142D01*
X86178571Y-102282171D01*
X85975371Y-102282171D01*
X85859257Y-102253142D01*
X85801200Y-102195085D01*
X85772171Y-102137028D01*
X86439828Y-101759657D02*
X86439828Y-101295200D01*
X86381771Y-101150057D02*
X85772171Y-101150057D01*
X86207600Y-100946857D01*
X85772171Y-100743657D01*
X86381771Y-100743657D01*
X86381771Y-100453371D02*
X85772171Y-100453371D01*
X86323714Y-99814742D02*
X86352742Y-99843771D01*
X86381771Y-99930857D01*
X86381771Y-99988914D01*
X86352742Y-100076000D01*
X86294685Y-100134057D01*
X86236628Y-100163085D01*
X86120514Y-100192114D01*
X86033428Y-100192114D01*
X85917314Y-100163085D01*
X85859257Y-100134057D01*
X85801200Y-100076000D01*
X85772171Y-99988914D01*
X85772171Y-99930857D01*
X85801200Y-99843771D01*
X85830228Y-99814742D01*
X86381771Y-99205142D02*
X86091485Y-99408342D01*
X86381771Y-99553485D02*
X85772171Y-99553485D01*
X85772171Y-99321257D01*
X85801200Y-99263200D01*
X85830228Y-99234171D01*
X85888285Y-99205142D01*
X85975371Y-99205142D01*
X86033428Y-99234171D01*
X86062457Y-99263200D01*
X86091485Y-99321257D01*
X86091485Y-99553485D01*
X85772171Y-98827771D02*
X85772171Y-98711657D01*
X85801200Y-98653600D01*
X85859257Y-98595542D01*
X85975371Y-98566514D01*
X86178571Y-98566514D01*
X86294685Y-98595542D01*
X86352742Y-98653600D01*
X86381771Y-98711657D01*
X86381771Y-98827771D01*
X86352742Y-98885828D01*
X86294685Y-98943885D01*
X86178571Y-98972914D01*
X85975371Y-98972914D01*
X85859257Y-98943885D01*
X85801200Y-98885828D01*
X85772171Y-98827771D01*
G04 #@! TD*
M02*
